<svg width="246" height="325" viewBox="0 0 246 325" fill="none" xmlns="http://www.w3.org/2000/svg">
<g clip-path="url(#clip0_335_3849)">
<mask id="mask0_335_3849" style="mask-type:alpha" maskUnits="userSpaceOnUse" x="-126" y="-40" width="545" height="461">
<rect x="-126" y="112.076" width="463.367" height="325.997" transform="rotate(-19.0286 -126 112.076)" fill="#C4C4C4"/>
</mask>
<g mask="url(#mask0_335_3849)">
<path d="M110.868 283.466C114.065 292.736 105.004 317.484 99.239 319.472C93.4741 321.46 86.2091 315.558 83.0122 306.288C79.8152 297.019 81.897 287.892 87.6619 285.904C93.4269 283.916 107.671 274.197 110.868 283.466Z" fill="#E160FF"/>
<path d="M119.151 307.484C122.348 316.754 113.287 341.502 107.522 343.49C101.757 345.478 94.4923 339.576 91.2954 330.306C88.0984 321.037 90.1802 311.91 95.9451 309.922C101.71 307.934 115.954 298.215 119.151 307.484Z" fill="#E160FF"/>
<path d="M229.108 236.132C232.305 245.402 254.695 259.302 260.46 257.314C266.225 255.326 268.307 246.2 265.11 236.93C261.913 227.661 254.648 221.758 248.883 223.746C243.118 225.734 225.911 226.863 229.108 236.132Z" fill="#E160FF"/>
<path d="M237.391 260.149C240.588 269.419 262.978 283.319 268.743 281.331C274.508 279.343 276.59 270.217 273.393 260.947C270.196 251.678 262.931 245.775 257.166 247.763C251.401 249.752 234.194 250.88 237.391 260.149Z" fill="#E160FF"/>
<path d="M241.495 330.529C241.798 340.322 259.07 360.309 265.171 360.153C271.272 359.996 275.973 351.93 275.671 342.137C275.369 332.345 270.178 324.533 264.077 324.69C257.976 324.847 241.193 320.736 241.495 330.529Z" fill="#DDE8EF"/>
<path d="M243.352 284.969C246.549 294.238 268.939 308.139 274.704 306.15C280.469 304.162 282.551 295.036 279.354 285.767C276.157 276.497 268.892 270.594 263.127 272.583C257.362 274.571 240.155 275.699 243.352 284.969Z" fill="#E160FF"/>
<path d="M129.468 330.8C132.665 340.07 123.604 364.818 117.839 366.806C112.074 368.794 104.809 362.892 101.612 353.622C98.4148 344.353 100.497 335.226 106.262 333.238C112.026 331.25 126.271 321.531 129.468 330.8Z" fill="#E160FF"/>
<path fill-rule="evenodd" clip-rule="evenodd" d="M77.1643 244.35C53.6118 243.505 30.9876 202.529 17.6399 163.828C0.195097 113.247 5.71932 67.2512 23.2059 61.2203C37.5009 56.2901 45.3576 80.4111 57.2796 117.013C59.9414 125.185 62.8058 133.979 65.9897 143.211C73.3278 157.805 81.3244 170.366 88.2416 181.231C90.6774 185.057 92.9793 188.673 95.0715 192.094C104.898 181.608 118.354 173.628 134.481 168.066C152.355 161.901 170.879 159.615 188.009 162.48C187.431 157.842 186.938 152.787 186.41 147.375C185.158 134.556 183.712 119.736 180.493 103.721C177.31 94.4897 174.144 85.7997 171.202 77.7245L171.202 77.7242L171.202 77.7239C158.026 41.5541 149.343 17.7181 163.638 12.788C181.125 6.75711 213.828 39.5683 231.273 90.1497C244.454 128.368 251.879 173.91 234.705 189.663C241.083 197.629 246.463 207.425 250.539 219.243C252.773 225.719 255.428 232.735 258.229 240.136C280.178 298.126 311.1 379.827 218.526 411.755C130.378 442.156 109.201 365.715 92.8638 306.742C89.8536 295.877 87.0078 285.604 83.9376 276.702C79.9089 265.021 77.7143 254.242 77.1643 244.35Z" fill="#E160FF"/>
<path fill-rule="evenodd" clip-rule="evenodd" d="M230.454 232.615C232.904 224.174 232.957 215.577 230.158 207.463C220.562 179.64 181.074 168.021 141.959 181.511C102.844 195.001 78.9137 228.493 88.5095 256.316C91.361 264.584 96.8523 271.421 104.189 276.593C100.836 286.405 104.276 296.379 108.03 307.265C116.51 331.853 153.131 337.265 191.444 324.052C229.758 310.838 255.256 284.001 246.776 259.413C242.959 248.345 239.467 238.221 230.454 232.615Z" fill="#F3BEFF"/>
<path d="M222.023 95.3445C230.914 121.124 215.467 171.21 211.262 165.33C207.057 159.45 209.779 148.137 191.682 108.557C173.584 68.9779 160.713 24.5471 169.382 20.6408C173.001 19.0103 205.886 54.1778 222.023 95.3445Z" fill="#AC5CFF"/>
<path d="M226.134 102.525C235.025 128.305 219.578 178.391 215.373 172.511C211.168 166.63 213.891 155.318 195.793 115.738C177.695 76.1586 164.824 31.7277 173.494 27.8214C177.112 26.1909 209.997 61.3585 226.134 102.525Z" fill="url(#paint0_linear_335_3849)" fill-opacity="0.8"/>
<path d="M26.3835 162.817C35.2745 188.596 78.3127 218.512 77.9987 211.289C77.6847 204.067 68.5675 196.838 58.4188 154.517C48.2701 112.196 31.0159 69.2765 21.7813 71.5451C17.9268 72.4921 13.7123 120.455 26.3835 162.817Z" fill="#AC5CFF"/>
<path d="M28.5515 174.107C37.4424 199.886 80.4807 229.802 80.1667 222.58C79.8527 215.357 70.7354 208.128 60.5868 165.807C50.4381 123.486 33.1838 80.5665 23.9493 82.8352C20.0948 83.7821 15.8803 131.745 28.5515 174.107Z" fill="url(#paint1_linear_335_3849)" fill-opacity="0.8"/>
<path d="M202.561 269.257C205.195 276.894 195.57 287.141 181.063 292.145C166.556 297.148 152.66 295.013 150.027 287.376C147.393 279.739 148.108 243.658 162.615 238.655C177.122 233.651 199.928 261.62 202.561 269.257Z" fill="#E36DFF"/>
<line x1="172.912" y1="269.27" x2="177.682" y2="283.103" stroke="url(#paint2_linear_335_3849)" stroke-width="0.466053"/>
<path d="M161.435 283.547C174.999 285.556 181.203 283.797 189.1 274.006" stroke="black" stroke-width="0.487732" stroke-linecap="round" stroke-linejoin="round"/>
<path d="M167.181 252.128C180.909 247.698 187.044 255.772 189.76 257.749C192.476 259.727 193.252 269.219 174.561 273.527C160.532 277.825 151.993 277.637 152.615 271.039C152.615 271.039 153.454 256.558 167.181 252.128Z" fill="#8A13A5"/>
<path d="M186.205 258.478C187.69 259.848 182.618 266.993 180.536 268.48C177.572 270.597 174.242 273.109 173.944 272.834C173.646 272.559 176.527 268.919 178.433 265.727C180.34 262.535 184.721 257.108 186.205 258.478Z" fill="#67067C"/>
<path d="M156.179 268.834C155.855 270.828 164.253 273.327 166.808 273.215C170.447 273.055 174.618 272.98 174.683 272.579C174.748 272.179 170.236 271.089 166.767 269.751C163.298 268.412 156.503 266.84 156.179 268.834Z" fill="#67067C"/>
<mask id="mask1_335_3849" style="mask-type:luminance" maskUnits="userSpaceOnUse" x="12" y="79" width="291" height="291">
<circle cx="157.467" cy="224.355" r="145.257" transform="rotate(-19.0286 157.467 224.355)" fill="white"/>
</mask>
<g mask="url(#mask1_335_3849)">
<path d="M133.269 244.625C138.16 252.226 136.238 262.24 128.977 266.992C121.715 271.744 111.863 269.434 106.972 261.833C102.08 254.232 104.002 244.218 111.264 239.466C118.525 234.714 128.377 237.024 133.269 244.625Z" fill="#8C8C8C" fill-opacity="0.2"/>
<path d="M218.11 215.365C223.002 222.966 221.08 232.98 213.818 237.732C206.557 242.484 196.705 240.174 191.813 232.573C186.922 224.972 188.844 214.957 196.105 210.206C203.367 205.454 213.219 207.763 218.11 215.365Z" fill="#8C8C8C" fill-opacity="0.2"/>
<path d="M188.28 223.389C189.11 232.398 196.785 239.103 205.423 238.363C214.061 237.624 220.391 229.721 219.561 220.711C218.731 211.702 211.056 204.997 202.418 205.737C193.78 206.476 187.45 214.379 188.28 223.389Z" fill="#333333"/>
<path d="M132.825 242.661C137.716 250.262 135.795 260.276 128.533 265.028C121.271 269.78 111.419 267.47 106.528 259.869C101.637 252.267 103.558 242.253 110.82 237.501C118.082 232.749 127.934 235.059 132.825 242.661Z" fill="#333333"/>
<ellipse cx="4.92442" cy="4.94538" rx="4.92442" ry="4.94538" transform="matrix(0.996362 -0.0852814 0.0917288 0.995789 191.655 212.857)" fill="#DADADA"/>
<ellipse cx="1.23111" cy="1.23634" rx="1.23111" ry="1.23634" transform="matrix(0.996362 -0.0852826 0.0917276 0.995789 201.96 210.718)" fill="#DADADA"/>
<ellipse cx="4.92443" cy="4.94538" rx="4.92443" ry="4.94538" transform="matrix(0.837101 -0.547057 0.541627 0.840624 105.689 244.442)" fill="#DADADA"/>
<ellipse cx="1.23111" cy="1.23635" rx="1.23111" ry="1.23635" transform="matrix(0.8371 -0.547058 0.541626 0.840625 117.594 240.282)" fill="#DADADA"/>
<ellipse cx="3.69342" cy="1.92882" rx="3.69342" ry="1.92882" transform="matrix(0.638664 -0.769486 0.764367 0.644782 188.448 234.757)" fill="#333333"/>
<ellipse cx="3.69342" cy="1.92882" rx="3.69342" ry="1.92882" transform="matrix(0.638663 -0.769487 0.764366 0.644783 210.909 210.429)" fill="#333333"/>
<ellipse cx="3.69341" cy="1.92882" rx="3.69341" ry="1.92882" transform="matrix(-0.97723 -0.212185 -0.204383 0.978891 140.884 253.281)" fill="#333333"/>
<ellipse cx="3.69342" cy="1.92882" rx="3.69342" ry="1.92882" transform="matrix(-0.977229 -0.212185 -0.204382 0.978891 105.845 246.828)" fill="#333333"/>
<g filter="url(#filter0_f_335_3849)">
<ellipse cx="125.545" cy="279.318" rx="19.6507" ry="4.33756" transform="rotate(-19.0286 125.545 279.318)" fill="#FF7BE2" fill-opacity="0.3"/>
</g>
<g filter="url(#filter1_f_335_3849)">
<ellipse cx="216.121" cy="248.079" rx="19.6507" ry="4.33756" transform="rotate(-19.0286 216.121 248.079)" fill="#FF7BE2" fill-opacity="0.3"/>
</g>
</g>
<mask id="mask2_335_3849" style="mask-type:alpha" maskUnits="userSpaceOnUse" x="12" y="79" width="291" height="291">
<circle cx="157.467" cy="224.355" r="145.257" transform="rotate(-19.0286 157.467 224.355)" fill="#C4C4C4"/>
</mask>
<g mask="url(#mask2_335_3849)">
<path d="M192.039 123.581C199.605 125.351 208.444 126.886 214.233 130.331C243.264 154.617 241.622 167.695 211.138 190.19C182.635 206.028 138.043 201.827 119.199 199.091C118.877 199.046 118.555 199.036 118.234 199.004L111.374 204.636C109.186 206.512 107.707 208.997 105.274 210.043C95.3125 214.481 89.2016 215.275 77.3897 213.51C68.6144 208.602 64.987 204.81 61.5964 195.57C59.9591 192.22 59.0206 188.395 59.0226 184.194C59.0344 162.835 72.797 145.343 72.797 145.343C68.6551 152.142 69.2714 160.248 70.2913 165.311C70.3304 165.271 70.3702 165.233 70.4119 165.195C68.3035 148.819 83.4944 133.502 83.4944 133.502C80.8016 136.634 80.0185 143.892 79.9751 150.965L92.9652 123.026C90.9335 131.102 104.315 128.445 112.159 134.596C112.17 134.59 112.181 134.585 112.193 134.579C108.777 123.345 110.019 120.83 110.019 120.83C111.557 128.519 120.339 124.99 127.124 128.394C127.824 128.14 128.494 127.873 129.208 127.621C129.644 127.501 130.067 127.392 130.5 127.276C126.326 115.889 125.733 113.453 125.733 113.453C125.733 113.453 126.558 116.605 153.366 121.283C154.18 121.04 154.908 120.846 155.443 120.771C163.976 119.542 171.824 119.332 178.963 119.647C184.864 119.925 187.018 122.405 192.039 123.581Z" fill="#E160FF"/>
<path d="M72.3895 146.394C70.3828 149.965 60.0676 172.575 61.05 169.286C62.1006 165.768 61.8937 165.205 63.0185 162.418C64.1145 159.702 66.6296 155.357 66.6296 155.357L72.3895 146.394C72.529 146.146 72.6284 145.99 72.681 145.941L72.3895 146.394Z" fill="#E98FFF"/>
<path d="M82.3593 134.388C80.765 137.128 70.8012 161.595 70.9022 157.809C71.0077 153.858 71.5287 152.903 72.5758 149.892C73.5961 146.958 76.9174 142.249 76.9174 142.249L82.3593 134.388C82.4292 134.267 82.4831 134.189 82.5192 134.157L82.3593 134.388Z" fill="#E98FFF"/>
<path d="M92.752 123.384C94.0166 124.964 90.6104 139.758 80.1905 150.692C82.7245 143.851 83.4982 144.624 84.6236 140.844L92.752 123.384Z" fill="#E98FFF"/>
<path d="M110.019 120.831C113.769 127.024 120.44 124.087 129.277 129.848C123.275 129.471 118.585 128.642 118.585 128.642C116.383 127.933 111.28 126.39 110.019 120.831Z" fill="#B55CCB"/>
<path d="M80.7329 183.729C59.529 204.125 78.1503 160.723 88.1823 154.809C89.8665 153.816 91.9387 153.285 94.1207 153.054C101.055 152.32 103.497 160.704 98.6298 165.691C92.2284 172.251 84.6069 180.002 80.7329 183.729Z" fill="url(#paint3_linear_335_3849)" fill-opacity="0.3"/>
</g>
</g>
</g>
<defs>
<filter id="filter0_f_335_3849" x="100.41" y="265.207" width="50.2699" height="28.2215" filterUnits="userSpaceOnUse" color-interpolation-filters="sRGB">
<feFlood flood-opacity="0" result="BackgroundImageFix"/>
<feBlend mode="normal" in="SourceGraphic" in2="BackgroundImageFix" result="shape"/>
<feGaussianBlur stdDeviation="3.25155" result="effect1_foregroundBlur_335_3849"/>
</filter>
<filter id="filter1_f_335_3849" x="190.986" y="233.968" width="50.2699" height="28.2215" filterUnits="userSpaceOnUse" color-interpolation-filters="sRGB">
<feFlood flood-opacity="0" result="BackgroundImageFix"/>
<feBlend mode="normal" in="SourceGraphic" in2="BackgroundImageFix" result="shape"/>
<feGaussianBlur stdDeviation="3.25155" result="effect1_foregroundBlur_335_3849"/>
</filter>
<linearGradient id="paint0_linear_335_3849" x1="180.967" y1="25.2416" x2="230.263" y2="168.175" gradientUnits="userSpaceOnUse">
<stop stop-color="#9F50FF"/>
<stop offset="1" stop-color="#7F58FF"/>
</linearGradient>
<linearGradient id="paint1_linear_335_3849" x1="16.4745" y1="85.4107" x2="65.7702" y2="228.344" gradientUnits="userSpaceOnUse">
<stop stop-color="#9F50FF"/>
<stop offset="1" stop-color="#7F58FF"/>
</linearGradient>
<linearGradient id="paint2_linear_335_3849" x1="170.701" y1="261.977" x2="179.649" y2="288.131" gradientUnits="userSpaceOnUse">
<stop stop-color="#2D0047"/>
<stop offset="1" stop-color="#34312F"/>
</linearGradient>
<linearGradient id="paint3_linear_335_3849" x1="57.0621" y1="144.08" x2="84.4709" y2="197.735" gradientUnits="userSpaceOnUse">
<stop stop-color="white"/>
<stop offset="1" stop-color="white" stop-opacity="0"/>
</linearGradient>
<clipPath id="clip0_335_3849">
<rect width="246" height="325" fill="white"/>
</clipPath>
</defs>
</svg>
