<svg width="339" height="339" viewBox="0 0 339 339" fill="none" xmlns="http://www.w3.org/2000/svg">
<g clip-path="url(#clip0_306_2354)">
<path d="M210.878 310.954C215.252 302.142 212.215 291.865 208.126 291.482C204.037 291.099 205.891 291.412 198.454 290.809C191.016 290.206 191.698 296.4 197.957 306.825C190.174 307.286 190.495 311.029 197.472 322.468C188.695 322.618 188.047 325.771 194.054 336.529C185.487 336.264 187.564 359.605 194.967 361.325C201.717 360.043 209.445 353.179 207.638 343.289C210.739 338.131 211.391 334.805 209.613 327.691C213.044 321.247 213.585 317.591 210.878 310.954Z" fill="#693EEE"/>
<path d="M123.492 311.699C119.118 302.887 122.155 292.61 126.244 292.227C130.333 291.844 128.479 292.158 135.917 291.554C143.354 290.951 142.672 297.145 136.413 307.57C144.196 308.031 143.875 311.774 136.898 323.214C145.675 323.363 146.323 326.516 140.317 337.275C148.883 337.009 146.806 360.35 139.403 362.071C132.653 360.789 124.925 353.925 126.732 344.034C123.631 338.877 122.979 335.55 124.757 328.437C121.326 321.993 120.785 318.336 123.492 311.699Z" fill="#693EEE"/>
<path d="M208.922 292.412C208.922 320.157 216.895 371.055 166.275 371.055C115.655 371.055 128.134 320.157 128.134 292.412C128.134 264.667 143.966 252.887 166.275 252.887C188.584 252.887 208.922 264.667 208.922 292.412Z" fill="#693FEE"/>
<path d="M221.424 230.192C221.424 254.719 215.138 283.299 196.493 272.118C184.713 268.392 194.15 252.553 197.39 228.483C197.39 203.956 195.197 186.557 203.676 186.557C212.156 186.557 221.424 205.664 221.424 230.192Z" fill="#693FEE"/>
<path d="M216.896 234.042C216.896 246.543 202.716 265.94 201.773 262.763C200.83 259.586 203.7 255.09 201.773 235.233C199.846 215.376 200.908 194.197 205.249 193.8C207.061 193.634 216.056 213.79 216.896 234.042Z" fill="url(#paint0_linear_306_2354)"/>
<path d="M117.829 230.192C117.829 254.719 124.116 283.299 142.761 272.118C154.541 268.392 145.104 252.553 141.864 228.483C141.864 203.956 144.057 186.557 135.578 186.557C127.098 186.557 117.829 205.664 117.829 230.192Z" fill="#693FEE"/>
<path d="M121.557 233.507C121.557 246.008 135.737 265.405 136.68 262.228C137.624 259.051 134.753 254.556 136.68 234.698C138.608 214.841 137.545 193.662 133.204 193.265C131.392 193.099 122.397 213.255 121.557 233.507Z" fill="url(#paint1_linear_306_2354)"/>
<ellipse cx="167.825" cy="284.769" rx="34.3438" ry="24.4291" fill="#D9C8EF"/>
<path d="M200.556 309.715C200.556 321.755 186.042 329.651 168.137 329.651C150.232 329.651 135.717 321.755 135.717 309.715C135.717 297.675 135.717 287.915 168.137 287.915C200.556 287.915 200.556 297.675 200.556 309.715Z" fill="#D9C8EF"/>
<path d="M182.577 308.847C182.577 313.529 176.904 317.324 169.907 317.324C162.91 317.324 157.237 313.529 157.237 308.847C157.237 304.165 162.91 284.532 169.907 284.532C176.904 284.532 182.577 304.165 182.577 308.847Z" fill="#BD6AE3" fill-opacity="0.5"/>
<path d="M181.457 308.621C181.457 313.326 175.722 317.14 168.648 317.14C161.574 317.14 155.84 313.326 155.84 308.621C155.84 303.917 161.574 284.189 168.648 284.189C175.722 284.189 181.457 303.917 181.457 308.621Z" fill="#BD6AE3"/>
<line x1="169.24" y1="303.909" x2="169.24" y2="312.108" stroke="#392773" stroke-width="0.745283"/>
<path d="M162.16 309.872C167.738 312.77 170.69 312.935 175.575 309.872" stroke="#392773" stroke-width="0.745283" stroke-linecap="round" stroke-linejoin="round"/>
<path d="M169.346 294.133C175.957 294.265 177.409 298.681 178.29 299.944C179.172 301.207 177.811 304.509 169.346 304.509C162.624 304.275 158.951 302.918 160.207 300.151C160.207 300.151 162.735 294.001 169.346 294.133Z" fill="url(#paint2_linear_306_2354)"/>
<path d="M176.643 299.915C177.081 300.73 173.816 303.069 172.691 303.402C171.09 303.877 169.272 304.468 169.184 304.304C169.096 304.14 170.888 302.993 172.191 301.895C173.495 300.796 176.204 299.099 176.643 299.915Z" fill="#0C022C"/>
<path d="M161.843 299.915C161.405 300.73 164.671 303.069 165.795 303.402C167.396 303.877 169.215 304.468 169.303 304.304C169.391 304.14 167.598 302.993 166.295 301.895C164.992 300.796 162.282 299.099 161.843 299.915Z" fill="#0C022C"/>
<path d="M193.355 286.301C193.828 290.418 191.011 294.148 187.062 294.633C183.114 295.118 179.529 292.174 179.055 288.057C178.582 283.941 181.399 280.211 185.348 279.726C189.296 279.241 192.881 282.185 193.355 286.301Z" fill="#554A76" fill-opacity="0.2"/>
<path d="M193.907 285.738C193.876 289.854 190.513 293.19 186.397 293.19C182.281 293.19 178.97 289.854 179.001 285.738C179.033 281.622 182.395 278.285 186.511 278.285C190.628 278.285 193.939 281.622 193.907 285.738Z" fill="#2C224E"/>
<path d="M155.345 286.301C155.818 290.418 153.001 294.148 149.053 294.633C145.104 295.118 141.519 292.174 141.046 288.057C140.572 283.941 143.389 280.211 147.338 279.726C151.287 279.241 154.872 282.185 155.345 286.301Z" fill="#554A76" fill-opacity="0.2"/>
<path d="M155.911 285.738C155.879 289.854 152.517 293.19 148.401 293.19C144.285 293.19 140.974 289.854 141.005 285.738C141.037 281.622 144.399 278.285 148.515 278.285C152.631 278.285 155.943 281.622 155.911 285.738Z" fill="#2C224E"/>
<ellipse cx="2.13475" cy="2.14383" rx="2.13475" ry="2.14383" transform="matrix(0.969721 -0.244235 0.237954 0.971281 147.642 280.014)" fill="#FEFEFE"/>
<ellipse cx="2.13475" cy="2.14383" rx="2.13475" ry="2.14383" transform="matrix(0.969721 -0.244235 0.237954 0.971281 185.651 281.505)" fill="#FEFEFE"/>
<path d="M156.585 294.296C156.585 292.83 155.396 291.642 153.93 291.642H142.098C140.632 291.642 139.443 292.83 139.443 294.296C139.443 295.534 140.298 296.607 141.515 296.836C143.335 297.178 146.001 297.604 148.014 297.604C150.028 297.604 152.693 297.178 154.514 296.836C155.73 296.607 156.585 295.534 156.585 294.296Z" fill="#D9C8EF"/>
<path d="M195.34 293.551C195.34 292.085 194.151 290.896 192.685 290.896H180.853C179.387 290.896 178.198 292.085 178.198 293.551C178.198 294.789 179.053 295.862 180.269 296.091C182.09 296.433 184.756 296.859 186.769 296.859C188.782 296.859 191.448 296.433 193.269 296.091C194.485 295.862 195.34 294.789 195.34 293.551Z" fill="#D9C8EF"/>
<path d="M140.188 277.7C140.188 276.344 141.288 275.245 142.643 275.245H156.366C157.721 275.245 158.821 276.344 158.821 277.7C158.821 278.872 157.992 279.88 156.835 280.071C154.857 280.399 151.793 280.835 149.505 280.835C147.216 280.835 144.152 280.399 142.174 280.071C141.017 279.88 140.188 278.872 140.188 277.7Z" fill="#D9C8EF"/>
<path d="M177.453 276.21C177.453 274.854 178.552 273.755 179.908 273.755H193.63C194.986 273.755 196.085 274.854 196.085 276.21C196.085 277.382 195.256 278.389 194.1 278.581C192.122 278.908 189.058 279.344 186.769 279.344C184.48 279.344 181.416 278.908 179.438 278.581C178.282 278.389 177.453 277.382 177.453 276.21Z" fill="#D9C8EF"/>
<path d="M125.326 250.038C123.595 252.042 122.302 253.259 122.302 256.58L131.343 274.59C132.776 275.848 134.561 276.715 136.513 277.052C152.517 279.812 172.847 270.815 181.282 266.572C181.426 266.5 181.577 266.445 181.723 266.379C182.838 266.042 183.933 265.752 184.991 265.536C186.549 265.4 188.136 265.604 189.623 266.178C190.959 266.693 192.299 266.982 193.616 267.077C193.71 267.187 193.81 267.288 193.898 267.409C195.611 269.759 198.343 274.346 199.563 277.052L209.252 259.189C208.844 258.038 208.374 256.919 207.853 255.826C208.08 254.028 207.9 252.121 207.217 250.192C203.74 240.379 194.412 234.523 194.412 234.523C197.469 236.991 198.496 240.813 198.838 243.301C198.813 243.289 198.788 243.278 198.762 243.267C197.095 235.408 187.447 230.778 187.447 230.778C189.225 231.79 190.774 235.001 191.944 238.244C188.363 231.377 181.963 227.465 181.963 227.465C181.592 225.903 179.467 222.334 178.774 221.196C178.705 221.074 178.633 220.955 178.555 220.84C178.555 220.84 178.636 220.97 178.774 221.196C180.862 224.91 178.803 231.376 176.709 236.147C175.856 236.027 174.989 235.915 174.099 235.821C173.883 230.118 172.627 223.865 172.627 223.865C173.152 227.642 168.702 232.705 166.059 235.345C165.687 235.339 165.328 235.323 164.951 235.32C164.726 235.334 164.509 235.351 164.286 235.366C164.402 229.472 161.957 223.866 161.957 223.866C161.957 223.866 164.409 229.838 152.537 236.236C152.114 236.253 151.74 236.279 151.475 236.33C147.255 237.117 143.523 238.264 140.21 239.541C137.475 240.603 136.863 242.084 134.687 243.42C131.41 245.432 127.494 247.538 125.326 250.038Z" fill="url(#paint3_linear_306_2354)"/>
<path d="M172.916 228.844C172.172 232.29 169.512 236.47 166.472 240.651C163.431 244.831 171.792 236.47 172.551 235.33C173.31 234.19 173.219 231.603 172.916 228.844Z" fill="#170862" fill-opacity="0.4"/>
<path d="M162.195 230.577C161.451 234.023 153.251 241.692 155.354 239.698C157.457 237.704 161.231 236.371 161.991 235.231C162.75 234.091 162.498 233.336 162.195 230.577Z" fill="#170862" fill-opacity="0.4"/>
<path d="M195.705 240.365C196.868 241.315 205.126 249.864 204.127 248.476C203.083 247.023 203.089 246.732 202.127 245.627C201.189 244.551 199.337 242.951 199.337 242.951L195.705 240.365C195.651 240.321 195.612 240.293 195.59 240.284L195.705 240.365Z" fill="#8D83FF"/>
<path opacity="0.7" d="M188.746 235.8C189.939 236.823 198.266 246.203 197.287 244.653C196.262 243.032 196.291 242.69 195.329 241.47C194.392 240.282 192.5 238.549 192.5 238.549L188.746 235.8C188.691 235.753 188.651 235.723 188.628 235.714L188.746 235.8Z" fill="#8D83FF"/>
<path opacity="0.7" d="M180.661 231.167C181.61 231.747 194.132 245.189 192.692 243.077C191.236 240.943 191.258 240.505 189.906 238.889C188.589 237.314 185.967 234.993 185.967 234.993C185.967 234.993 183.042 232.448 180.661 231.167C180.651 231.161 180.642 231.156 180.635 231.153C180.644 231.157 180.652 231.162 180.661 231.167Z" fill="#8D83FF"/>
<path opacity="0.7" d="M179.322 227.384C179.958 228.297 186.022 245.639 185.552 243.126C185.077 240.586 185.273 240.194 184.685 238.171C184.112 236.2 182.643 233.02 182.643 233.02C182.643 233.02 180.988 229.514 179.322 227.384C179.316 227.375 179.309 227.367 179.304 227.361C179.31 227.369 179.316 227.376 179.322 227.384Z" fill="#8D83FF"/>
<path d="M178.198 274.505C178.198 273.956 178.567 273.472 179.099 273.333C184.657 271.889 188.131 271.925 193.687 273.337C194.222 273.473 194.594 273.959 194.594 274.511C194.594 275.279 193.894 275.855 193.138 275.723C188.085 274.846 184.711 274.829 179.66 275.718C178.902 275.851 178.198 275.275 178.198 274.505Z" fill="#4B339D"/>
<path d="M124.052 282.398C124.052 289.982 128.876 305.163 139.946 305.163C151.017 305.163 164.773 287.771 164.773 280.187C164.773 271.601 157.191 267.829 146.12 267.829C132.853 267.048 124.052 274.814 124.052 282.398Z" fill="url(#paint4_linear_306_2354)" fill-opacity="0.99"/>
<path d="M213.775 282.398C213.775 289.982 208.95 305.163 197.88 305.163C186.809 305.163 173.053 287.771 173.053 280.187C173.053 271.601 180.635 267.829 191.706 267.829C204.973 267.048 213.775 274.814 213.775 282.398Z" fill="url(#paint5_linear_306_2354)" fill-opacity="0.99"/>
<path d="M214.378 281.468C214.138 278.879 213.502 276.564 212.476 274.699C210.776 271.602 207.179 269.397 201.786 268.145C197.671 267.19 193.624 267.047 191.578 267.047C191.183 267.047 146.58 267.047 146.183 267.047C144.137 267.047 140.091 267.191 135.975 268.145C130.582 269.397 126.985 271.602 125.285 274.699C124.225 276.63 123.621 278.967 123.394 281.468H121.557V283.315H123.297C123.153 291.004 126.22 299.639 130.385 302.697C132.927 304.564 136.065 306.472 140.059 306.472C145.839 306.472 151.863 302.453 158.474 294.183C162.311 289.382 164.271 285.417 165.101 282.195C165.549 280.457 165.67 278.937 165.579 277.617C166.558 277.196 167.683 276.956 168.881 276.956C170.08 276.956 171.205 277.196 172.183 277.617C172.093 278.936 172.213 280.457 172.661 282.195C173.493 285.417 175.451 289.382 179.291 294.183C185.901 302.452 191.925 306.472 197.704 306.472C201.698 306.472 204.836 304.564 207.379 302.697C210.215 300.613 212.689 295.799 213.832 290.132C214.308 287.767 214.52 285.468 214.479 283.315H216.208V281.468H214.378ZM163.182 282.195C162.353 285.079 160.514 288.656 157.011 293.036C150.776 300.835 145.231 304.627 140.058 304.627C136.607 304.624 133.793 302.901 131.495 301.215C129.051 299.418 126.8 294.927 125.759 289.77C125.31 287.544 125.112 285.357 125.157 283.316C125.171 282.686 125.208 282.068 125.267 281.469C125.494 279.194 126.05 277.17 126.922 275.582C130.418 269.218 143.579 268.896 146.182 268.896C146.739 268.896 150.217 269.011 154.874 269.526C158.753 269.954 161.821 271.996 163.081 274.989C163.281 275.466 163.452 276.004 163.57 276.602C163.633 276.921 163.679 277.259 163.71 277.614C163.742 277.978 163.754 278.364 163.744 278.768C163.719 279.78 163.55 280.921 163.182 282.195ZM172.474 275.749C171.378 275.339 170.163 275.109 168.882 275.109C167.601 275.109 166.385 275.34 165.291 275.749C165.158 275.213 164.992 274.724 164.804 274.277C163.813 271.924 161.933 270.062 159.485 268.906H178.278C175.831 270.061 173.949 271.924 172.958 274.277C172.771 274.724 172.605 275.214 172.474 275.749ZM212.004 289.769C210.964 294.926 208.711 299.418 206.268 301.214C203.969 302.9 201.156 304.626 197.704 304.626C192.531 304.626 186.987 300.834 180.752 293.035C177.25 288.655 175.411 285.078 174.581 282.194C174.214 280.919 174.045 279.779 174.02 278.765C174.009 278.361 174.022 277.975 174.052 277.611C174.083 277.257 174.13 276.918 174.192 276.599C174.311 276.001 174.48 275.463 174.681 274.986C175.942 271.993 179.01 269.952 182.888 269.523C187.546 269.007 191.024 268.893 191.58 268.893C194.184 268.893 207.344 269.214 210.839 275.579C211.712 277.167 212.268 279.191 212.495 281.466C212.556 282.065 212.592 282.682 212.606 283.313C212.65 285.356 212.452 287.543 212.004 289.769Z" fill="black"/>
<g filter="url(#filter0_d_306_2354)">
<path d="M280.615 275.895C272.893 286.216 258.641 288.625 258.641 288.625C258.641 288.625 252.201 275.081 253.946 263.646C255.028 256.551 259.263 246.766 260.602 243.791C260.826 243.292 261.411 243.081 261.908 243.309L276.398 249.964L290.713 256.539C291.221 256.773 291.439 257.373 291.189 257.872C289.717 260.805 284.9 270.169 280.615 275.895Z" fill="#FFBA08"/>
<path fill-rule="evenodd" clip-rule="evenodd" d="M265.288 291.428L251.942 285.298L246.869 286.803L267.679 296.361L265.288 291.428ZM269.715 297.296L244.607 285.764L242.217 290.966L235.884 288.057L233.164 293.382L272.523 311.46L274.564 305.823L267.325 302.499L269.715 297.296Z" fill="#FFBA08"/>
<path d="M267.448 302.829L242.114 291.193L244.192 286.669C244.421 286.169 245.013 285.95 245.512 286.179L269.037 296.984C269.537 297.214 269.756 297.805 269.526 298.305L267.448 302.829Z" fill="#E59114"/>
<rect x="256.81" y="284.246" width="7.46753" height="2.98701" transform="rotate(24.6694 256.81 284.246)" fill="#E59114"/>
<path d="M295.294 262.478L287.404 258.854L273.595 279.904L295.294 262.478Z" stroke="#FFBA08" stroke-width="3.48485" stroke-linejoin="round"/>
<path d="M254.579 243.777L262.469 247.402L255.499 271.592L254.579 243.777Z" stroke="#FFBA08" stroke-width="3.48485" stroke-linejoin="round"/>
<rect x="259.519" y="244.951" width="34.3507" height="4.97835" rx="0.995671" transform="rotate(24.6694 259.519 244.951)" fill="#FFBA08"/>
<path d="M261.439 257.287C261.597 255.685 259.108 255.183 257.659 255.886C256.254 256.568 256.343 257.119 256.114 258.092C254.117 266.593 258.246 279.649 258.246 279.649C258.246 279.649 260.699 264.817 261.439 257.287Z" fill="#FFFCE4" fill-opacity="0.3"/>
<path d="M288.212 263.569L258.429 250.417C263.596 254.037 266.258 255.62 272.004 258.225C278.05 260.967 288.212 263.569 288.212 263.569Z" fill="#E59114"/>
</g>
<path d="M67.3253 257.36L53.0641 265.49L52.9744 281.905L67.1458 290.191L81.4069 282.061L81.4967 265.645L67.3253 257.36Z" fill="#E159FB"/>
<path d="M67.3253 257.36L53.0641 265.49L44.3833 260.348L67.3794 247.454L67.3253 257.36Z" fill="#E159FB"/>
<path d="M81.1143 281.96L81.204 265.545L89.9976 260.598L89.666 286.96L81.1143 281.96Z" fill="#E159FB" fill-opacity="0.6"/>
<path d="M66.8647 289.906L81.1259 281.776L89.8066 286.918L66.8105 299.812L66.8647 289.906Z" fill="#9944FF"/>
<path d="M53.1527 281.2L67.3242 289.485L67.2114 299.574L44.5469 286.106L53.1527 281.2Z" fill="#E159FB" fill-opacity="0.6"/>
<path d="M53.3828 265.068L53.293 281.484L44.4995 286.43L44.8311 260.068L53.3828 265.068Z" fill="#9944FF"/>
<path d="M81.3433 265.829L67.1719 257.543L67.2847 247.454L89.9492 260.923L81.3433 265.829Z" fill="#E794FE"/>
<path opacity="0.6" d="M44.6611 287.619L66.9995 299.745C66.9995 299.745 72.8946 294.329 72.657 289.222C72.3052 281.658 63.398 280.714 61.4573 273.395C58.6531 262.82 68.0655 247.422 68.0655 247.422L44.8875 260.003L44.6611 287.619Z" fill="#7824ED"/>
<g filter="url(#filter1_d_306_2354)">
<path fill-rule="evenodd" clip-rule="evenodd" d="M44.5696 279.803C39.8098 282.553 36.1096 285.159 33.6927 287.376C32.808 288.188 32.1726 288.878 31.7355 289.436C31.8502 289.455 31.973 289.472 32.1043 289.489C34.0782 289.74 37.0615 289.641 40.9679 289.064C48.7103 287.922 59.1322 285.051 70.329 280.664C81.5258 276.276 91.1235 271.302 97.5806 266.88C100.839 264.649 103.095 262.695 104.373 261.17C104.458 261.069 104.536 260.972 104.608 260.881C103.96 260.777 103.105 260.704 102.017 260.699C99.0134 260.685 94.9404 261.183 90.0618 262.22L90.0505 261.247L85.9095 258.72C85.9518 258.709 85.9941 258.699 86.0363 258.689C98.8038 255.605 108.12 255.477 109.488 258.968C111.553 264.239 94.7293 275.76 71.911 284.701C49.0927 293.643 28.9206 296.619 26.8554 291.348C25.541 287.994 31.8782 282.108 42.5427 275.966C43.2185 275.577 43.9116 275.186 44.6213 274.796L44.5696 279.803ZM105.967 261.259C105.966 261.259 105.958 261.255 105.943 261.245C105.96 261.254 105.967 261.259 105.967 261.259ZM30.9948 290.637C30.9941 290.638 30.9963 290.628 31.0035 290.607C30.9991 290.627 30.9955 290.637 30.9948 290.637Z" fill="#FFD84E"/>
</g>
</g>
<defs>
<filter id="filter0_d_306_2354" x="229.164" y="238.035" width="71.8726" height="77.4247" filterUnits="userSpaceOnUse" color-interpolation-filters="sRGB">
<feFlood flood-opacity="0" result="BackgroundImageFix"/>
<feColorMatrix in="SourceAlpha" type="matrix" values="0 0 0 0 0 0 0 0 0 0 0 0 0 0 0 0 0 0 127 0" result="hardAlpha"/>
<feOffset/>
<feGaussianBlur stdDeviation="2"/>
<feColorMatrix type="matrix" values="0 0 0 0 1 0 0 0 0 0.728125 0 0 0 0 0.0333334 0 0 0 0.51 0"/>
<feBlend mode="normal" in2="BackgroundImageFix" result="effect1_dropShadow_306_2354"/>
<feBlend mode="normal" in="SourceGraphic" in2="effect1_dropShadow_306_2354" result="shape"/>
</filter>
<filter id="filter1_d_306_2354" x="17.2232" y="246.902" width="101.897" height="56.514" filterUnits="userSpaceOnUse" color-interpolation-filters="sRGB">
<feFlood flood-opacity="0" result="BackgroundImageFix"/>
<feColorMatrix in="SourceAlpha" type="matrix" values="0 0 0 0 0 0 0 0 0 0 0 0 0 0 0 0 0 0 127 0" result="hardAlpha"/>
<feOffset/>
<feGaussianBlur stdDeviation="4.73045"/>
<feColorMatrix type="matrix" values="0 0 0 0 0.952941 0 0 0 0 0.792157 0 0 0 0 0.227451 0 0 0 1 0"/>
<feBlend mode="normal" in2="BackgroundImageFix" result="effect1_dropShadow_306_2354"/>
<feBlend mode="normal" in="SourceGraphic" in2="effect1_dropShadow_306_2354" result="shape"/>
</filter>
<linearGradient id="paint0_linear_306_2354" x1="208.874" y1="193.799" x2="208.874" y2="263.109" gradientUnits="userSpaceOnUse">
<stop stop-color="#E2ACFC"/>
<stop offset="1" stop-color="#E8A1FB"/>
</linearGradient>
<linearGradient id="paint1_linear_306_2354" x1="129.58" y1="193.264" x2="129.58" y2="262.575" gradientUnits="userSpaceOnUse">
<stop stop-color="#E2ACFC"/>
<stop offset="1" stop-color="#E99FFB"/>
</linearGradient>
<linearGradient id="paint2_linear_306_2354" x1="169.253" y1="294.131" x2="169.253" y2="304.641" gradientUnits="userSpaceOnUse">
<stop stop-color="#530379"/>
<stop offset="1" stop-color="#2A0993"/>
</linearGradient>
<linearGradient id="paint3_linear_306_2354" x1="165.777" y1="220.84" x2="165.777" y2="277.568" gradientUnits="userSpaceOnUse">
<stop stop-color="#6355FF"/>
<stop offset="1" stop-color="#4C37CC"/>
</linearGradient>
<linearGradient id="paint4_linear_306_2354" x1="184.543" y1="251.727" x2="118.492" y2="308.245" gradientUnits="userSpaceOnUse">
<stop offset="0.0989583" stop-color="#02004B"/>
<stop offset="1" stop-color="#330854"/>
</linearGradient>
<linearGradient id="paint5_linear_306_2354" x1="153.283" y1="251.727" x2="219.334" y2="308.245" gradientUnits="userSpaceOnUse">
<stop offset="0.0989583" stop-color="#02004B"/>
<stop offset="1" stop-color="#330854"/>
</linearGradient>
<clipPath id="clip0_306_2354">
<path d="M0 12.0499C0 5.39495 5.39493 0 12.0499 0H339V339H12.0499C5.39495 339 0 333.605 0 326.95V12.0499Z" fill="white"/>
</clipPath>
</defs>
</svg>
