<svg width="339" height="339" viewBox="0 0 339 339" fill="none" xmlns="http://www.w3.org/2000/svg">
<g clip-path="url(#clip0_268_21215)">
<path d="M43.4295 199.659C45.6846 186.222 54.1967 161.495 68.6095 161.84C84.8494 162.23 82.8201 190.324 98.6708 201.65C102.984 204.732 104.267 200.799 110.32 208.617C115.889 215.808 109.634 222.689 112.951 232.006C114.906 237.497 121.847 237.136 122.596 246.438C123.345 255.74 115.737 259.596 119.341 267.836C121.37 272.475 124.772 272.696 126.857 277.291C128.438 280.774 127.829 294.017 126.857 300.445C124.976 312.886 121.532 315.866 112.951 326.058C104.693 335.866 98.6708 340.49 88.5264 343.476C80.772 345.76 76.545 337.521 68.6095 338.002C62.1026 338.397 58.7418 345.711 52.4505 343.476C37.0411 338.002 32.6422 335.412 24.2643 321.58C16.2425 308.336 9.34726 306.643 11.7115 289.956C12.8398 281.993 20.8501 272.132 22.0115 264.353C23.0553 257.361 18.221 253.398 19.3809 246.438C20.5576 239.378 25.4201 238.109 27.6483 231.509C30.4945 223.079 23.1799 219.502 27.6483 212.412C31.787 205.845 42.0283 208.009 43.4295 199.659Z" fill="#5A29C1"/>
<path d="M43.1502 199.666C45.4053 186.229 53.9174 161.501 68.3302 161.847C68.3302 161.847 86.347 212.557 88.2471 246.444C89.8975 275.879 61.8075 292.836 68.3302 321.586C70.3228 330.369 72.0225 338.009 72.0225 338.009C71.6843 338.108 71.3838 338.198 71.1174 338.279C67.251 339.456 70.6076 338.755 71.1174 338.279C71.3778 338.037 70.8958 337.853 68.3302 338.009C61.8233 338.404 58.4625 345.718 52.1712 343.483C36.7618 338.009 32.3629 335.418 23.985 321.586C15.9632 308.342 9.06796 306.649 11.4322 289.963C12.5605 282 20.5708 272.139 21.7322 264.359C22.776 257.367 17.9417 253.404 19.1016 246.444C20.2783 239.385 25.1408 238.116 27.369 231.515C30.2152 223.085 22.9006 219.508 27.369 212.418C31.5077 205.852 41.749 208.015 43.1502 199.666Z" fill="url(#paint0_linear_268_21215)"/>
<path d="M66.3956 264.044C66.4118 262.211 67.9017 260.735 69.734 260.735C71.5606 260.735 73.0481 262.202 73.0723 264.029L74.6795 385.105H65.3242L66.3956 264.044Z" fill="#512D57"/>
<path d="M85.1093 296.495C86.2014 295.52 87.8701 295.587 88.8808 296.646C89.8795 297.693 89.8819 299.339 88.8861 300.388L72.6217 317.53L67.5278 312.192L85.1093 296.495Z" fill="#512D57"/>
<path d="M59.3799 287.525C58.6436 286.754 58.6465 285.54 59.3865 284.773C60.1156 284.018 61.3071 283.96 62.1057 284.642L72.5213 293.537L68.8064 297.387L59.3799 287.525Z" fill="#512D57"/>
<path d="M49.4453 317.471C48.7024 316.721 48.6945 315.515 49.4275 314.755C50.1546 314.002 51.3481 313.96 52.1258 314.661L71.4222 332.056L67.7073 335.906L49.4453 317.471Z" fill="#512D57"/>
<path d="M51.0951 242.646C53.0765 244.651 53.1537 247.785 53.1537 247.785C53.1537 247.785 50.0184 247.67 48.037 245.665C46.0555 243.661 45.9784 240.526 45.9784 240.526C45.9784 240.526 49.1137 240.642 51.0951 242.646Z" fill="#7824ED"/>
<path d="M95.5419 267.453C92.9786 268.121 90.3928 266.708 90.3928 266.708C90.3928 266.708 91.9629 264.212 94.5262 263.544C97.0895 262.876 99.6753 264.289 99.6753 264.289C99.6753 264.289 98.1052 266.785 95.5419 267.453Z" fill="#5A66D6"/>
<path d="M60.0732 240.361C57.5099 241.029 54.9241 239.616 54.9241 239.616C54.9241 239.616 56.4941 237.12 59.0574 236.452C61.6207 235.784 64.2065 237.197 64.2065 237.197C64.2065 237.197 62.6365 239.693 60.0732 240.361Z" fill="#9423F5"/>
<path d="M99.1966 298.766C97.66 300.924 94.7703 301.5 94.7703 301.5C94.7703 301.5 94.3718 298.579 95.9084 296.421C97.4449 294.263 100.335 293.687 100.335 293.687C100.335 293.687 100.733 296.608 99.1966 298.766Z" fill="#EF8BFF"/>
<path d="M67.7767 210.041C66.2401 212.199 63.3504 212.776 63.3504 212.776C63.3504 212.776 62.9519 209.854 64.4884 207.696C66.025 205.539 68.9147 204.962 68.9147 204.962C68.9147 204.962 69.3132 207.884 67.7767 210.041Z" fill="#FF8BDF"/>
<path d="M40.582 279.729C40.5302 281.882 38.8465 283.587 38.8465 283.587C38.8465 283.587 37.2469 281.801 37.2987 279.647C37.3506 277.494 39.0343 275.789 39.0343 275.789C39.0343 275.789 40.6339 277.575 40.582 279.729Z" fill="#B942FE"/>
<path d="M37.7453 319.021C39.2238 320.588 39.2273 322.984 39.2273 322.984C39.2273 322.984 36.8337 322.84 35.3552 321.274C33.8767 319.707 33.8732 317.311 33.8732 317.311C33.8732 317.311 36.2668 317.455 37.7453 319.021Z" fill="#B942FE"/>
<path d="M173.633 261.73C175.888 248.293 184.4 223.565 198.813 223.911C215.053 224.3 213.023 252.395 228.874 263.721C233.187 266.803 234.47 262.87 240.523 270.688C246.092 277.879 239.837 284.76 243.154 294.076C245.109 299.568 252.05 299.207 252.799 308.509C253.549 317.811 245.94 321.667 249.544 329.907C251.573 334.546 254.975 334.767 257.06 339.362C258.641 342.844 258.032 356.088 257.06 362.516C255.179 374.957 251.736 377.937 243.154 388.129C234.896 397.937 228.874 402.56 218.73 405.547C210.975 407.83 206.748 399.592 198.813 400.073C192.306 400.468 188.945 407.782 182.654 405.547C167.244 400.073 162.845 397.482 154.467 383.65C146.446 370.406 139.55 368.713 141.915 352.027C143.043 344.064 151.053 334.203 152.215 326.423C153.258 319.432 148.424 315.468 149.584 308.509C150.761 301.449 155.623 300.18 157.851 293.58C160.698 285.149 153.383 281.572 157.851 274.482C161.99 267.916 172.231 270.08 173.633 261.73Z" fill="#7727DC"/>
<path d="M173.355 261.732C175.61 248.295 184.122 223.567 198.535 223.913C198.535 223.913 216.552 274.623 218.452 308.51C220.103 337.944 192.013 354.902 198.535 383.652C200.528 392.434 202.228 400.075 202.228 400.075C201.889 400.174 201.589 400.264 201.323 400.345C197.456 401.522 200.813 400.82 201.323 400.345C201.583 400.102 201.101 399.919 198.535 400.075C192.028 400.47 188.668 407.783 182.376 405.549C166.967 400.075 162.568 397.484 154.19 383.652C146.168 370.408 139.273 368.715 141.637 352.028C142.766 344.065 150.776 334.204 151.937 326.425C152.981 319.433 148.147 315.47 149.307 308.51C150.483 301.45 155.346 300.181 157.574 293.581C160.42 285.151 153.106 281.574 157.574 274.484C161.713 267.917 171.954 270.081 173.355 261.732Z" fill="url(#paint1_linear_268_21215)"/>
<path d="M196.61 326.118C196.627 324.286 198.117 322.809 199.949 322.809C201.775 322.809 203.263 324.277 203.287 326.104L204.894 447.18H195.539L196.61 326.118Z" fill="#512D57"/>
<path d="M227.995 329.516C225.432 330.184 222.846 328.771 222.846 328.771C222.846 328.771 224.416 326.275 226.979 325.607C229.543 324.939 232.128 326.352 232.128 326.352C232.128 326.352 230.558 328.848 227.995 329.516Z" fill="#5A66D6"/>
<path d="M192.526 302.429C189.963 303.097 187.377 301.684 187.377 301.684C187.377 301.684 188.947 299.188 191.511 298.52C194.074 297.852 196.66 299.265 196.66 299.265C196.66 299.265 195.09 301.761 192.526 302.429Z" fill="#7824EC"/>
<path d="M200.23 272.109C198.693 274.267 195.804 274.844 195.804 274.844C195.804 274.844 195.405 271.922 196.942 269.764C198.478 267.607 201.368 267.03 201.368 267.03C201.368 267.03 201.766 269.952 200.23 272.109Z" fill="#FF8BDF"/>
<path d="M173.035 341.797C172.983 343.95 171.3 345.655 171.3 345.655C171.3 345.655 169.7 343.869 169.752 341.715C169.804 339.562 171.487 337.857 171.487 337.857C171.487 337.857 173.087 339.643 173.035 341.797Z" fill="#B942FE"/>
<path d="M109.391 271.08C110.759 262.927 115.924 247.925 124.668 248.135C134.521 248.371 133.29 265.416 142.907 272.288C145.523 274.157 146.302 271.771 149.975 276.514C153.353 280.877 149.558 285.052 151.57 290.705C152.757 294.036 156.968 293.817 157.422 299.461C157.877 305.105 153.261 307.444 155.448 312.444C156.679 315.258 158.742 315.392 160.008 318.18C160.966 320.293 160.597 328.328 160.008 332.228C158.866 339.776 156.777 341.584 151.57 347.768C146.56 353.718 142.907 356.523 136.752 358.335C132.047 359.721 129.483 354.722 124.668 355.014C120.72 355.254 118.681 359.691 114.864 358.335C105.515 355.014 102.846 353.442 97.7632 345.05C92.8963 337.015 88.7128 335.988 90.1473 325.864C90.8318 321.033 95.6917 315.05 96.3964 310.33C97.0297 306.088 94.0966 303.684 94.8004 299.461C95.5143 295.178 98.4644 294.408 99.8163 290.403C101.543 285.288 97.1053 283.118 99.8163 278.817C102.327 274.833 108.541 276.146 109.391 271.08Z" fill="#7727DC"/>
<path d="M109.221 271.08C110.589 262.927 115.754 247.925 124.498 248.134C124.498 248.134 135.429 278.901 136.582 299.461C137.583 317.319 120.541 327.608 124.498 345.05C125.707 350.379 126.738 355.014 126.738 355.014C126.533 355.075 126.351 355.129 126.189 355.179C123.843 355.892 125.88 355.467 126.189 355.179C126.347 355.031 126.055 354.92 124.498 355.014C120.55 355.254 118.511 359.691 114.694 358.335C105.345 355.014 102.676 353.442 97.5932 345.05C92.7264 337.015 88.5429 335.988 89.9773 325.864C90.6619 321.033 95.5218 315.05 96.2265 310.33C96.8598 306.088 93.9267 303.684 94.6305 299.461C95.3444 295.178 98.2945 294.408 99.6464 290.403C101.373 285.288 96.9353 283.118 99.6464 278.817C102.157 274.833 108.371 276.146 109.221 271.08Z" fill="url(#paint2_linear_268_21215)"/>
<path d="M123.326 310.142C123.336 309.03 124.24 308.134 125.351 308.134C126.459 308.134 127.362 309.025 127.377 310.133L128.352 383.592H122.676L123.326 310.142Z" fill="#512D57"/>
<path d="M134.671 329.831C135.334 329.24 136.346 329.28 136.96 329.923C137.565 330.558 137.567 331.556 136.963 332.193L127.095 342.594L124.004 339.355L134.671 329.831Z" fill="#512D57"/>
<path d="M119.067 324.39C118.62 323.922 118.622 323.186 119.071 322.72C119.513 322.262 120.236 322.227 120.72 322.641L127.04 328.038L124.786 330.374L119.067 324.39Z" fill="#512D57"/>
<path d="M142.372 312.209C140.817 312.614 139.248 311.757 139.248 311.757C139.248 311.757 140.2 310.243 141.756 309.838C143.311 309.432 144.88 310.29 144.88 310.29C144.88 310.29 143.927 311.804 142.372 312.209Z" fill="#5A66D6"/>
<path d="M120.856 295.772C119.301 296.177 117.732 295.32 117.732 295.32C117.732 295.32 118.685 293.806 120.24 293.401C121.795 292.995 123.364 293.853 123.364 293.853C123.364 293.853 122.411 295.367 120.856 295.772Z" fill="#7824EC"/>
<path d="M144.593 331.206C143.661 332.515 141.908 332.865 141.908 332.865C141.908 332.865 141.666 331.092 142.598 329.783C143.53 328.474 145.284 328.124 145.284 328.124C145.284 328.124 145.525 329.897 144.593 331.206Z" fill="#EF8BFF"/>
<path d="M125.529 277.378C124.596 278.687 122.843 279.037 122.843 279.037C122.843 279.037 122.601 277.264 123.534 275.955C124.466 274.646 126.219 274.296 126.219 274.296C126.219 274.296 126.461 276.069 125.529 277.378Z" fill="#FF8BDF"/>
<path d="M109.023 319.657C108.991 320.963 107.97 321.998 107.97 321.998C107.97 321.998 106.999 320.914 107.031 319.608C107.062 318.301 108.084 317.267 108.084 317.267C108.084 317.267 109.054 318.35 109.023 319.657Z" fill="#B942FE"/>
<path d="M238.736 219.34C240.991 205.903 249.503 181.175 263.916 181.521C280.156 181.91 278.127 210.004 293.977 221.33C298.29 224.412 299.573 220.479 305.627 228.297C311.195 235.488 304.94 242.37 308.257 251.686C310.213 257.177 317.154 256.816 317.903 266.118C318.652 275.42 311.044 279.276 314.648 287.516C316.677 292.155 320.078 292.376 322.164 296.971C323.744 300.454 323.136 313.697 322.164 320.125C320.283 332.566 316.839 335.546 308.257 345.738C300 355.546 293.977 360.17 283.833 363.157C276.079 365.44 271.852 357.201 263.916 357.683C257.409 358.078 254.048 365.391 247.757 363.157C232.348 357.683 227.949 355.092 219.571 341.26C211.549 328.016 204.654 326.323 207.018 309.636C208.146 301.673 216.157 291.812 217.318 284.033C218.362 277.041 213.528 273.078 214.688 266.118C215.864 259.058 220.727 257.789 222.955 251.189C225.801 242.759 218.487 239.182 222.955 232.092C227.094 225.526 237.335 227.689 238.736 219.34Z" fill="#5A29C1"/>
<path d="M238.459 219.346C240.714 205.909 249.226 181.181 263.639 181.527C263.639 181.527 281.656 232.237 283.556 266.124C285.206 295.558 257.116 312.516 263.639 341.266C265.631 350.049 267.331 357.689 267.331 357.689C266.993 357.788 266.692 357.878 266.426 357.959C262.56 359.136 265.916 358.435 266.426 357.959C266.686 357.717 266.204 357.533 263.639 357.689C257.132 358.084 253.771 365.398 247.48 363.163C232.07 357.689 227.672 355.098 219.294 341.266C211.272 328.022 204.377 326.329 206.741 309.643C207.869 301.679 215.879 291.818 217.041 284.039C218.085 277.047 213.25 273.084 214.41 266.124C215.587 259.065 220.449 257.796 222.678 251.195C225.524 242.765 218.209 239.188 222.678 232.098C226.816 225.532 237.058 227.695 238.459 219.346Z" fill="url(#paint3_linear_268_21215)"/>
<path d="M261.708 283.724C261.724 281.891 263.214 280.415 265.047 280.415C266.873 280.415 268.361 281.883 268.385 283.709L269.992 404.785H260.637L261.708 283.724Z" fill="#512D57"/>
<path d="M280.414 316.177C281.506 315.202 283.175 315.269 284.185 316.328C285.184 317.375 285.187 319.021 284.191 320.07L267.926 337.212L262.832 331.874L280.414 316.177Z" fill="#512D57"/>
<path d="M254.692 307.207C253.956 306.437 253.959 305.222 254.699 304.455C255.428 303.7 256.62 303.642 257.418 304.324L267.834 313.219L264.119 317.07L254.692 307.207Z" fill="#512D57"/>
<path d="M244.756 337.151C244.013 336.401 244.005 335.195 244.738 334.435C245.465 333.682 246.659 333.64 247.436 334.341L266.733 351.736L263.018 355.586L244.756 337.151Z" fill="#512D57"/>
<path d="M246.404 262.326C248.385 264.33 248.462 267.465 248.462 267.465C248.462 267.465 245.327 267.349 243.346 265.345C241.364 263.34 241.287 260.206 241.287 260.206C241.287 260.206 244.422 260.322 246.404 262.326Z" fill="#7824ED"/>
<path d="M290.841 287.132C288.277 287.8 285.692 286.387 285.692 286.387C285.692 286.387 287.262 283.891 289.825 283.223C292.388 282.556 294.974 283.969 294.974 283.969C294.974 283.969 293.404 286.464 290.841 287.132Z" fill="#5A66D6"/>
<path d="M255.374 260.043C252.811 260.711 250.225 259.298 250.225 259.298C250.225 259.298 251.795 256.802 254.358 256.134C256.921 255.466 259.507 256.879 259.507 256.879C259.507 256.879 257.937 259.375 255.374 260.043Z" fill="#9423F5"/>
<path d="M294.505 318.448C292.969 320.606 290.079 321.182 290.079 321.182C290.079 321.182 289.68 318.261 291.217 316.103C292.753 313.945 295.643 313.369 295.643 313.369C295.643 313.369 296.042 316.29 294.505 318.448Z" fill="#EF8BFF"/>
<path d="M263.075 229.721C261.539 231.879 258.649 232.455 258.649 232.455C258.649 232.455 258.251 229.534 259.787 227.376C261.324 225.218 264.214 224.642 264.214 224.642C264.214 224.642 264.612 227.563 263.075 229.721Z" fill="#FF8BDF"/>
<path d="M235.881 299.408C235.829 301.562 234.145 303.267 234.145 303.267C234.145 303.267 232.546 301.48 232.598 299.327C232.649 297.173 234.333 295.468 234.333 295.468C234.333 295.468 235.933 297.255 235.881 299.408Z" fill="#B942FE"/>
<path d="M233.054 338.701C234.532 340.267 234.536 342.664 234.536 342.664C234.536 342.664 232.142 342.52 230.664 340.953C229.185 339.387 229.182 336.991 229.182 336.991C229.182 336.991 231.575 337.134 233.054 338.701Z" fill="#B942FE"/>
<path d="M193.56 304.813C193.56 308.565 187.195 316.387 184.862 316.387C182.528 316.387 180.637 313.345 180.637 309.593C180.637 305.841 182.528 302.8 184.862 302.8C187.195 302.8 193.56 301.061 193.56 304.813Z" fill="#BE6AFF"/>
<path d="M193.56 314.532C193.56 318.284 187.195 326.105 184.862 326.105C182.528 326.105 180.637 323.064 180.637 319.312C180.637 315.56 182.528 312.519 184.862 312.519C187.195 312.519 193.56 310.78 193.56 314.532Z" fill="#BE6AFF"/>
<path d="M194.022 331.998C195.135 335.578 191.38 344.963 189.154 345.667C186.927 346.372 184.22 344.041 183.108 340.461C181.996 336.88 182.899 333.407 185.125 332.703C187.352 331.998 192.91 328.418 194.022 331.998Z" fill="#BE6AFF"/>
<path d="M199.794 340.504C200.906 344.084 197.152 353.469 194.925 354.173C192.699 354.877 189.992 352.546 188.88 348.966C187.767 345.386 188.67 341.913 190.897 341.209C193.123 340.504 198.681 336.924 199.794 340.504Z" fill="#5A5A5B"/>
<path d="M242.223 302.444C242.223 306.196 248.588 314.018 250.922 314.018C253.255 314.018 255.146 310.976 255.146 307.224C255.146 303.473 253.255 300.431 250.922 300.431C248.588 300.431 242.223 298.693 242.223 302.444Z" fill="#BE6AFF"/>
<path d="M242.223 312.167C242.223 315.919 248.588 323.741 250.922 323.741C253.255 323.741 255.146 320.699 255.146 316.947C255.146 313.195 253.255 310.154 250.922 310.154C248.588 310.154 242.223 308.415 242.223 312.167Z" fill="#BE6AFF"/>
<path d="M241.761 329.631C240.649 333.211 244.403 342.596 246.63 343.3C248.856 344.005 251.563 341.674 252.675 338.094C253.788 334.514 252.884 331.04 250.658 330.336C248.431 329.631 242.873 326.051 241.761 329.631Z" fill="#BE6AFF"/>
<path d="M234.931 338.135C233.818 341.715 237.573 351.1 239.799 351.804C242.026 352.509 244.733 350.178 245.845 346.598C246.957 343.018 246.054 339.544 243.828 338.84C241.601 338.135 236.043 334.555 234.931 338.135Z" fill="#DDE8EF"/>
<path d="M241.286 321.886C241.286 325.638 247.651 333.459 249.984 333.459C252.317 333.459 254.209 330.418 254.209 326.666C254.209 322.914 252.317 319.873 249.984 319.873C247.651 319.873 241.286 318.134 241.286 321.886Z" fill="#BE6AFF"/>
<path d="M194.378 324.256C194.378 328.008 188.013 335.83 185.68 335.83C183.347 335.83 181.455 332.788 181.455 329.036C181.455 325.284 183.347 322.243 185.68 322.243C188.013 322.243 194.378 320.504 194.378 324.256Z" fill="#BE6AFF"/>
<path fill-rule="evenodd" clip-rule="evenodd" d="M186.26 286.456C177.855 283.199 174.787 265.565 174.787 249.908C174.787 229.435 182.523 213.486 189.601 213.486C195.387 213.486 195.219 223.192 194.966 237.919V237.919V237.919C194.909 241.207 194.848 244.746 194.848 248.482C195.682 254.677 197.007 260.218 198.154 265.011C198.557 266.696 198.938 268.289 199.268 269.785C204.128 267.222 209.987 266.016 216.509 266.016C223.747 266.016 230.736 267.501 236.576 270.678C236.946 268.927 237.399 267.036 237.883 265.011C239.03 260.218 240.355 254.677 241.189 248.482C241.189 244.746 241.128 241.207 241.071 237.919C240.817 223.192 240.65 213.486 246.436 213.486C253.514 213.486 261.25 229.435 261.25 249.908C261.25 265.382 258.253 282.787 250.07 286.336C251.382 290.012 252.105 294.226 252.105 299.007C252.105 301.628 252.191 304.497 252.281 307.524C252.986 331.239 253.978 364.65 216.509 364.65C180.83 364.65 182.707 334.357 184.154 310.987C184.421 306.681 184.673 302.61 184.673 299.007C184.673 294.278 185.224 290.104 186.26 286.456Z" fill="#BE6AFF"/>
<path fill-rule="evenodd" clip-rule="evenodd" d="M243.181 301.34C245.121 298.592 246.214 295.488 246.214 292.202C246.214 280.941 233.379 271.812 217.547 271.812C201.715 271.812 188.881 280.941 188.881 292.202C188.881 295.548 190.014 298.705 192.021 301.491C189.582 304.622 189.582 308.66 189.582 313.067C189.582 323.019 202.154 329.546 217.661 329.546C233.169 329.546 245.74 323.019 245.74 313.067C245.74 308.589 245.74 304.492 243.181 301.34Z" fill="#E7D8FF"/>
<path d="M257.243 250.633C257.243 261.067 245.407 277.258 244.62 274.606C243.832 271.955 246.228 268.202 244.619 251.627C243.011 235.053 243.898 217.375 247.521 217.043C249.034 216.905 256.542 233.729 257.243 250.633Z" fill="#A65CF2"/>
<path d="M257.837 253.745C257.837 264.179 246.001 280.37 245.213 277.718C244.426 275.066 246.822 271.314 245.213 254.739C243.605 238.164 244.491 220.487 248.115 220.155C249.627 220.017 257.135 236.841 257.837 253.745Z" fill="url(#paint4_linear_268_21215)" fill-opacity="0.8"/>
<path d="M178.062 250.633C178.062 261.067 189.898 277.258 190.685 274.606C191.473 271.955 189.077 268.202 190.685 251.627C192.294 235.053 191.407 217.375 187.784 217.043C186.271 216.905 178.763 233.729 178.062 250.633Z" fill="#A65CF2"/>
<path d="M177.435 254.987C177.435 265.421 189.271 281.612 190.058 278.96C190.846 276.309 188.45 272.556 190.058 255.981C191.667 239.407 190.78 221.729 187.157 221.398C185.644 221.259 178.136 238.083 177.435 254.987Z" fill="url(#paint5_linear_268_21215)" fill-opacity="0.8"/>
<path d="M228.504 311.116C228.504 314.207 223.744 316.713 217.872 316.713C212 316.713 207.24 314.207 207.24 311.116C207.24 308.025 212 295.062 217.872 295.062C223.744 295.062 228.504 308.025 228.504 311.116Z" fill="#D9ACFC"/>
<line x1="217.777" y1="307.422" x2="217.777" y2="313.02" stroke="url(#paint6_linear_268_21215)" stroke-width="0.178329"/>
<path d="M211.855 311.154C216.511 313.573 218.975 313.711 223.053 311.154" stroke="black" stroke-width="0.186624" stroke-linecap="round" stroke-linejoin="round"/>
<path d="M217.846 300.504C223.364 300.614 224.576 304.3 225.311 305.354C226.047 306.408 225.144 309.939 217.846 309.165C212.235 308.97 209.169 307.836 210.217 305.527C210.217 305.527 212.327 300.394 217.846 300.504Z" fill="#6B2CD2"/>
<path d="M223.936 305.173C224.302 305.854 221.576 307.806 220.638 308.084C219.302 308.48 217.784 308.973 217.71 308.836C217.637 308.7 219.133 307.742 220.221 306.826C221.309 305.909 223.57 304.492 223.936 305.173Z" fill="#160646"/>
<path d="M211.781 305.173C211.414 305.854 214.14 307.806 215.079 308.084C216.415 308.48 217.933 308.973 218.007 308.836C218.08 308.7 216.584 307.742 215.496 306.826C214.408 305.909 212.147 304.492 211.781 305.173Z" fill="#160646"/>
<mask id="mask0_268_21215" style="mask-type:luminance" maskUnits="userSpaceOnUse" x="162" y="233" width="112" height="112">
<circle cx="217.94" cy="289.244" r="55.5807" fill="white"/>
</mask>
<g mask="url(#mask0_268_21215)">
<path d="M206.665 293.558C207.486 296.917 205.542 300.3 202.322 301.113C199.103 301.926 195.827 299.861 195.006 296.502C194.185 293.142 196.13 289.759 199.349 288.946C202.569 288.133 205.844 290.198 206.665 293.558Z" fill="#8C8C8C" fill-opacity="0.2"/>
<path d="M241.001 293.558C241.822 296.917 239.878 300.3 236.658 301.113C233.439 301.926 230.163 299.861 229.342 296.502C228.521 293.142 230.465 289.759 233.685 288.946C236.905 288.133 240.18 290.198 241.001 293.558Z" fill="#8C8C8C" fill-opacity="0.2"/>
<path d="M229.207 292.74C228.383 296.102 230.323 299.485 233.54 300.295C236.757 301.105 240.032 299.036 240.856 295.674C241.68 292.311 239.74 288.928 236.523 288.118C233.306 287.308 230.031 289.377 229.207 292.74Z" fill="#333333"/>
<path d="M206.751 292.79C207.572 296.15 205.628 299.533 202.408 300.346C199.189 301.159 195.913 299.094 195.092 295.734C194.271 292.375 196.216 288.992 199.435 288.179C202.655 287.366 205.93 289.431 206.751 292.79Z" fill="#333333"/>
<ellipse cx="1.88426" cy="1.89228" rx="1.88426" ry="1.89228" transform="matrix(0.969722 0.244233 -0.237951 0.971282 231.758 289.351)" fill="#DADADA"/>
<ellipse cx="0.471067" cy="0.473069" rx="0.471067" ry="0.473069" transform="matrix(0.969722 0.244231 -0.237952 0.971282 235.746 289.862)" fill="#DADADA"/>
<ellipse cx="1.88426" cy="1.89228" rx="1.88426" ry="1.89228" transform="matrix(0.969721 -0.244235 0.237954 0.971281 196.711 290.052)" fill="#DADADA"/>
<ellipse cx="0.471065" cy="0.473072" rx="0.471065" ry="0.473072" transform="matrix(0.969721 -0.244236 0.237952 0.971282 201.527 290.03)" fill="#DADADA"/>
<ellipse cx="1.41324" cy="0.738037" rx="1.41324" ry="0.738037" transform="matrix(0.854648 -0.519208 0.512374 0.858762 227.855 296.871)" fill="#333333"/>
<ellipse cx="1.41323" cy="0.738037" rx="1.41323" ry="0.738037" transform="matrix(0.854647 -0.51921 0.512373 0.858763 239.012 290.874)" fill="#333333"/>
<ellipse cx="1.41323" cy="0.738035" rx="1.41323" ry="0.738035" transform="matrix(-0.854649 -0.519206 -0.512372 0.858764 208.342 297.639)" fill="#333333"/>
<ellipse cx="1.41323" cy="0.738036" rx="1.41323" ry="0.738036" transform="matrix(-0.854649 -0.519206 -0.512372 0.858764 196.467 290.934)" fill="#333333"/>
<g filter="url(#filter0_f_268_21215)">
<ellipse cx="199.542" cy="305.143" rx="7.51905" ry="1.65971" fill="#FF7BE2" fill-opacity="0.3"/>
</g>
<g filter="url(#filter1_f_268_21215)">
<ellipse cx="236.203" cy="305.143" rx="7.51905" ry="1.65971" fill="#FF7BE2" fill-opacity="0.3"/>
</g>
</g>
<mask id="mask1_268_21215" style="mask-type:alpha" maskUnits="userSpaceOnUse" x="162" y="233" width="112" height="112">
<circle cx="217.94" cy="289.244" r="55.5807" fill="#C4C4C4"/>
</mask>
<g mask="url(#mask1_268_21215)">
<path d="M255.418 294.645C260.291 293.66 259.692 285.988 258.247 283.077C260.782 287.213 258.283 291.187 264.087 297.084C270.285 303.382 283.786 298.816 281.061 289.097C280.153 296.669 271.793 296.26 268.888 287.41C268.205 285.331 271.089 268.953 264.492 258.806C263.348 257.047 262.247 255.545 261.131 254.229C260.349 267.714 259.052 273.636 255.114 281.099C257.637 286.304 259.326 292.559 255.418 294.645Z" fill="#A346EC"/>
<path d="M241.129 243.249C236.004 242.88 230.961 244.435 228.12 248.262L240.244 253.486C241.345 249.456 241.492 247.12 241.129 243.249Z" fill="#A346EC"/>
<path d="M255.639 282.337C258.117 287.647 258.825 292.249 255.639 294.551C256.953 293.942 257.51 293.38 258.117 291.895C258.723 290.411 258.688 289.406 258.471 287.824C258.143 285.436 255.639 282.337 255.639 282.337Z" fill="#C983FF"/>
<path d="M196.001 256.454C205.538 249.031 215.795 246.83 223.286 247.563C233.772 248.853 238.801 251.461 245.686 260.723C249.219 266.715 253.198 276.369 251.528 284.585C249.184 296.101 249.184 297.739 249.184 297.739L243.529 280.997V290.439C243.529 290.439 228.23 276.844 229.206 267.215C229.206 267.215 227.532 278.355 216.371 286.284C216.371 286.284 218.976 281.564 219.719 276.75C219.719 276.75 216.558 284.321 201.304 288.796C201.304 288.796 208 283.64 209.674 279.865C209.674 279.865 194.887 293.27 184.842 296.951C184.842 296.951 179.263 269.479 196.001 256.454Z" fill="#BE6AFF"/>
<path d="M220.705 274.343C216.172 281.352 211.332 285.083 201.933 288.536C201.933 288.536 208.788 287.645 213.278 284.228C218.774 280.046 220.705 274.343 220.705 274.343Z" fill="#C983FF"/>
<path d="M227.238 270.437C224.315 276.692 221.892 280.752 216.346 286.231C216.346 286.231 221.148 284.043 224.665 278.088C226.483 275.01 228.559 271.008 228.736 269.592C229.444 267.291 227.238 270.437 227.238 270.437Z" fill="#C983FF"/>
<path d="M243.426 290.304C236.876 286.233 227.672 271.187 229.088 267.647C234.419 275.411 236.95 285.11 243.426 290.304Z" fill="#8E32D7"/>
<path d="M240.065 254.374L227.32 248.001C227.32 248.001 228.403 246.335 228.736 246.408C229.909 246.667 233.113 248.525 234.932 249.417C236.581 250.227 238.937 251.844 240.065 252.78C240.609 253.232 240.065 254.374 240.065 254.374Z" fill="#A2B6FF"/>
</g>
<path d="M110.263 304.813C110.263 308.565 103.898 316.387 101.565 316.387C99.2314 316.387 97.3398 313.345 97.3398 309.593C97.3398 305.841 99.2314 302.8 101.565 302.8C103.898 302.8 110.263 301.061 110.263 304.813Z" fill="#7A51F8"/>
<path d="M110.263 314.532C110.263 318.284 103.898 326.105 101.565 326.105C99.2314 326.105 97.3398 323.064 97.3398 319.312C97.3398 315.56 99.2314 312.519 101.565 312.519C103.898 312.519 110.263 310.78 110.263 314.532Z" fill="#7A51F8"/>
<path d="M110.725 331.998C111.838 335.578 108.083 344.963 105.857 345.667C103.63 346.371 100.924 344.04 99.8112 340.46C98.6988 336.88 99.6019 333.407 101.828 332.703C104.055 331.998 109.613 328.418 110.725 331.998Z" fill="#7A51F8"/>
<path d="M116.499 340.504C117.611 344.084 113.857 353.469 111.63 354.173C109.404 354.877 106.697 352.546 105.585 348.966C104.472 345.386 105.375 341.913 107.602 341.209C109.828 340.504 115.386 336.924 116.499 340.504Z" fill="#5A5A5B"/>
<path d="M158.936 302.445C158.936 306.197 165.301 314.018 167.634 314.018C169.968 314.018 171.859 310.977 171.859 307.225C171.859 303.473 169.968 300.432 167.634 300.432C165.301 300.432 158.936 298.693 158.936 302.445Z" fill="#7A51F8"/>
<path d="M158.936 312.168C158.936 315.919 165.301 323.741 167.634 323.741C169.968 323.741 171.859 320.699 171.859 316.948C171.859 313.196 169.968 310.154 167.634 310.154C165.301 310.154 158.936 308.416 158.936 312.168Z" fill="#7A51F8"/>
<path d="M158.474 329.632C157.361 333.212 161.116 342.596 163.342 343.301C165.569 344.005 168.276 341.674 169.388 338.094C170.5 334.514 169.597 331.041 167.371 330.336C165.144 329.632 159.586 326.052 158.474 329.632Z" fill="#7A51F8"/>
<path d="M151.644 338.135C150.531 341.715 154.286 351.1 156.512 351.805C158.739 352.509 161.446 350.178 162.558 346.598C163.67 343.018 162.767 339.545 160.541 338.84C158.314 338.136 152.756 334.555 151.644 338.135Z" fill="#DDE8EF"/>
<path d="M157.989 321.886C157.989 325.638 164.354 333.46 166.687 333.46C169.021 333.46 170.912 330.418 170.912 326.666C170.912 322.914 169.021 319.873 166.687 319.873C164.354 319.873 157.989 318.134 157.989 321.886Z" fill="#7A51F8"/>
<path d="M111.082 324.257C111.082 328.008 104.717 335.83 102.383 335.83C100.05 335.83 98.1582 332.788 98.1582 329.037C98.1582 325.285 100.05 322.243 102.383 322.243C104.717 322.243 111.082 320.505 111.082 324.257Z" fill="#7A51F8"/>
<path fill-rule="evenodd" clip-rule="evenodd" d="M102.917 286.46C94.506 283.212 91.4351 265.571 91.4351 249.909C91.4351 229.436 99.1715 213.487 106.249 213.487C112.035 213.487 111.868 223.192 111.614 237.92V237.92V237.92C111.557 241.208 111.496 244.746 111.496 248.483C112.33 254.677 113.656 260.218 114.802 265.012C115.206 266.698 115.587 268.293 115.917 269.79C120.779 267.224 126.641 266.016 133.167 266.016C140.401 266.016 147.387 267.5 153.226 270.673C153.595 268.924 154.048 267.035 154.531 265.012C155.678 260.218 157.004 254.677 157.837 248.483C157.837 244.746 157.776 241.208 157.72 237.92C157.466 223.192 157.299 213.487 163.085 213.487C170.162 213.487 177.899 229.436 177.899 249.909C177.899 265.377 174.903 282.776 166.726 286.333C168.04 290.01 168.764 294.225 168.764 299.008C168.764 301.629 168.849 304.498 168.939 307.524C169.644 331.239 170.637 364.651 133.167 364.651C97.4886 364.651 99.3649 334.358 100.812 310.988C101.079 306.682 101.331 302.611 101.331 299.008C101.331 294.28 101.882 290.107 102.917 286.46Z" fill="#7A51F8"/>
<path fill-rule="evenodd" clip-rule="evenodd" d="M159.829 301.34C161.77 298.591 162.862 295.488 162.862 292.202C162.862 280.941 150.028 271.812 134.196 271.812C118.364 271.812 105.529 280.941 105.529 292.202C105.529 295.548 106.662 298.705 108.669 301.491C106.23 304.622 106.23 308.66 106.23 313.067C106.23 323.019 118.802 329.546 134.309 329.546C149.817 329.546 162.388 323.019 162.388 313.067C162.388 308.589 162.388 304.492 159.829 301.34Z" fill="#DCD0FE"/>
<path d="M173.911 250.633C173.911 261.068 162.075 277.258 161.287 274.607C160.5 271.955 162.896 268.203 161.287 251.628C159.679 235.053 160.566 217.375 164.189 217.044C165.702 216.906 173.21 233.729 173.911 250.633Z" fill="#A65CF2"/>
<path d="M174.503 253.745C174.503 264.18 162.667 280.37 161.879 277.718C161.092 275.067 163.488 271.314 161.879 254.74C160.271 238.165 161.157 220.487 164.781 220.156C166.293 220.017 173.801 236.841 174.503 253.745Z" fill="url(#paint7_linear_268_21215)" fill-opacity="0.8"/>
<path d="M94.7278 250.633C94.7278 261.068 106.564 277.258 107.351 274.607C108.139 271.955 105.743 268.203 107.351 251.628C108.96 235.053 108.073 217.375 104.45 217.044C102.937 216.906 95.4291 233.729 94.7278 250.633Z" fill="#A65CF2"/>
<path d="M94.1028 254.988C94.1028 265.422 105.939 281.613 106.726 278.961C107.514 276.309 105.118 272.557 106.726 255.982C108.335 239.407 107.448 221.73 103.825 221.398C102.312 221.26 94.8041 238.083 94.1028 254.988Z" fill="url(#paint8_linear_268_21215)" fill-opacity="0.8"/>
<path d="M145.18 311.115C145.18 314.207 140.42 316.712 134.548 316.712C128.676 316.712 123.916 314.207 123.916 311.115C123.916 308.024 128.676 295.062 134.548 295.062C140.42 295.062 145.18 308.024 145.18 311.115Z" fill="#E2AAFC"/>
<line x1="134.449" y1="307.422" x2="134.449" y2="313.02" stroke="url(#paint9_linear_268_21215)" stroke-width="0.178329"/>
<path d="M128.521 311.154C133.177 313.573 135.641 313.711 139.719 311.154" stroke="black" stroke-width="0.186624" stroke-linecap="round" stroke-linejoin="round"/>
<path d="M134.519 300.504C140.038 300.614 141.25 304.3 141.985 305.355C142.721 306.409 141.818 309.939 134.519 309.166C128.908 308.97 125.843 307.837 126.891 305.528C126.891 305.528 129.001 300.394 134.519 300.504Z" fill="#6D4ECD"/>
<path d="M140.614 305.174C140.98 305.854 138.254 307.806 137.316 308.084C135.979 308.48 134.461 308.974 134.388 308.837C134.314 308.7 135.811 307.743 136.898 306.826C137.986 305.909 140.248 304.493 140.614 305.174Z" fill="#160646"/>
<path d="M128.458 305.174C128.092 305.854 130.818 307.806 131.757 308.084C133.093 308.48 134.611 308.974 134.684 308.837C134.758 308.7 133.262 307.743 132.174 306.826C131.086 305.909 128.824 304.493 128.458 305.174Z" fill="#160646"/>
<mask id="mask2_268_21215" style="mask-type:luminance" maskUnits="userSpaceOnUse" x="79" y="233" width="112" height="112">
<circle cx="134.655" cy="289.244" r="55.5807" fill="white"/>
</mask>
<g mask="url(#mask2_268_21215)">
<path d="M123.38 293.558C124.202 296.918 122.257 300.301 119.038 301.113C115.818 301.926 112.542 299.862 111.721 296.502C110.9 293.142 112.325 293.421 115.545 292.608C118.765 291.795 122.559 290.198 123.38 293.558Z" fill="#8C8C8C" fill-opacity="0.2"/>
<path d="M157.718 293.558C158.539 296.918 156.595 300.301 153.375 301.113C150.156 301.926 146.88 299.862 146.059 296.502C145.238 293.142 146.663 293.421 149.883 292.608C153.102 291.795 156.897 290.198 157.718 293.558Z" fill="#8C8C8C" fill-opacity="0.2"/>
<path fill-rule="evenodd" clip-rule="evenodd" d="M146.636 290.961C146.317 291.498 146.07 292.094 145.912 292.737C145.088 296.099 147.028 299.482 150.245 300.292C153.462 301.102 156.737 299.033 157.561 295.671C158.24 292.901 157.043 290.117 154.802 288.769C154.063 289.144 153.237 289.504 152.352 289.826C151.924 289.981 151.501 290.122 151.088 290.246C151.585 290.701 151.825 291.408 151.653 292.108C151.405 293.123 150.385 293.74 149.376 293.486C148.367 293.232 147.75 292.203 147.999 291.188C148.024 291.086 148.057 290.988 148.096 290.894C147.554 290.959 147.062 290.981 146.636 290.961Z" fill="#333333"/>
<path fill-rule="evenodd" clip-rule="evenodd" d="M115.936 289.527C115.9 289.525 115.865 289.525 115.829 289.525C114.695 289.525 113.775 290.444 113.775 291.578C113.775 292.712 114.695 293.631 115.829 293.631C116.963 293.631 117.882 292.712 117.882 291.578C117.882 290.826 117.478 290.169 116.876 289.811C116.555 289.721 116.241 289.627 115.936 289.527Z" fill="#F5F5F5"/>
<path fill-rule="evenodd" clip-rule="evenodd" d="M148.023 290.569C147.853 290.868 147.756 291.214 147.756 291.582C147.756 292.716 148.675 293.635 149.809 293.635C150.943 293.635 151.862 292.716 151.862 291.582C151.862 291.007 151.626 290.488 151.246 290.115C150.075 290.377 148.973 290.528 148.023 290.569Z" fill="#F5F5F5"/>
<path fill-rule="evenodd" clip-rule="evenodd" d="M114.59 288.82C112.331 290.164 111.12 292.957 111.799 295.735C112.62 299.094 115.895 301.159 119.115 300.346C122.335 299.533 124.279 296.15 123.458 292.791C123.295 292.123 123.035 291.507 122.698 290.954C121.307 291.033 119.189 290.644 116.931 289.822C116.089 289.516 115.301 289.176 114.59 288.82ZM117.526 290.968C117.775 291.983 117.159 293.012 116.149 293.266C115.14 293.52 114.121 292.904 113.872 291.888C113.623 290.873 114.24 289.844 115.249 289.59C116.258 289.336 117.278 289.953 117.526 290.968Z" fill="#333333"/>
</g>
<mask id="mask3_268_21215" style="mask-type:alpha" maskUnits="userSpaceOnUse" x="79" y="233" width="112" height="112">
<circle cx="134.655" cy="289.244" r="55.5807" fill="#C4C4C4"/>
</mask>
<g mask="url(#mask3_268_21215)">
<path d="M163.978 266.781C157.67 267.388 164.846 278.326 159.438 281.632C156.832 283.225 143.953 281.24 143.684 280.747C139.633 281.627 133.631 281.85 128.993 281.632C120.724 281.244 110.584 283.579 108.46 279.507C106.512 278.799 105.273 273.135 104.388 271.188L163.978 266.781C164.055 266.773 164.135 266.767 164.217 266.763L163.978 266.781Z" fill="black" fill-opacity="0.1"/>
<path d="M166.918 265.759C160.797 265.853 164.919 277.576 159.444 280.923C156.838 282.516 143.959 280.531 143.69 280.037C139.639 280.918 133.636 281.141 128.998 280.923C120.73 280.535 109.173 283.578 108.819 279.506C107.924 281.356 104.052 272.426 104.394 270.479C105.279 265.438 107.426 260.576 112.312 258.247C118.974 255.071 128.497 249.121 129.916 246.074C129.916 246.074 128.903 251.648 126.196 255.414C138.558 240.882 143.867 261.098 155.904 251.893C154.54 255.591 152.676 257.296 147.345 259.458C148.25 259.25 154.176 259.107 157.851 257.735C159.794 257.008 162.63 255.414 162.63 255.414C159.382 260.003 156.882 262.221 151.276 265.438C151.256 265.458 151.235 265.479 151.215 265.499C151.152 265.561 151.094 265.627 151.03 265.687C151.021 265.692 151.011 265.698 151.002 265.703C150.923 265.78 150.842 265.855 150.762 265.931C154.445 262.658 160.502 263.21 165.096 264.968L165.105 264.968C165.152 264.986 165.195 265.006 165.24 265.024C165.47 265.113 165.698 265.206 165.92 265.301C166.025 265.346 166.127 265.393 166.229 265.439C166.386 265.51 166.54 265.581 166.691 265.654C166.766 265.69 166.845 265.723 166.918 265.759Z" fill="#7A51F8"/>
<path d="M125.224 256.455C128.427 253.484 129.826 246.188 129.826 246.188C129.826 246.188 126.039 250.182 121.153 253.268C117.79 255.393 114.002 257.375 110.646 260.452C109.159 261.815 109.824 263.889 109.824 263.889C109.824 263.889 114.317 263.871 116.857 262.41C120.061 260.566 122.514 258.968 125.224 256.455Z" fill="url(#paint10_linear_268_21215)"/>
<path d="M153.066 253.585C154.496 252.832 155.898 251.895 155.898 251.895C155.898 251.895 155.288 253.861 153.774 255.435C152.149 257.125 149.778 258.521 147.52 259.152C143.56 260.259 141.298 255.643 137.382 254.392C135.055 253.649 126.869 253.068 126.869 253.068C126.869 253.068 133.628 249.632 135.593 249.768C139.541 250.039 137.914 250.869 147.048 254.196C148.641 254.196 151.22 254.557 153.066 253.585Z" fill="url(#paint11_linear_268_21215)"/>
<path d="M159.442 257.028C160.909 256.351 162.629 255.435 162.629 255.435C162.629 255.435 161.311 257.401 159.796 258.975C158.171 260.666 156.508 262.241 154.25 262.873L143.866 260.038L154.25 258.621C155.843 258.621 157.141 258.09 159.442 257.028Z" fill="url(#paint12_linear_268_21215)"/>
</g>
<path d="M329.745 45.5165H328.436C327.29 40.766 319.763 38.0668 313.217 39.9022C307.162 34.5039 293.744 37.0951 293.416 43.897C286.544 42.6014 279.507 45.8404 279.18 50.4829C274.925 51.5626 268.39 55.0175 271.979 57.3927C275.569 59.768 343.956 62.6831 343.956 57.3927C343.956 52.1024 337.763 45.5165 329.745 45.5165Z" fill="url(#paint13_linear_268_21215)"/>
<path d="M289.219 64.3642H288.145C287.206 60.5044 281.033 58.3114 275.666 59.8027C270.701 55.4165 259.698 57.5219 259.43 63.0484C253.794 61.9957 248.024 64.6274 247.755 68.3994C244.267 69.2767 238.908 72.0838 241.851 74.0137C244.794 75.9436 300.872 78.3121 300.872 74.0137C300.872 69.7153 295.794 64.3642 289.219 64.3642Z" fill="url(#paint14_linear_268_21215)"/>
</g>
<defs>
<filter id="filter0_f_268_21215" x="189.535" y="300.995" width="20.0147" height="8.29609" filterUnits="userSpaceOnUse" color-interpolation-filters="sRGB">
<feFlood flood-opacity="0" result="BackgroundImageFix"/>
<feBlend mode="normal" in="SourceGraphic" in2="BackgroundImageFix" result="shape"/>
<feGaussianBlur stdDeviation="1.24416" result="effect1_foregroundBlur_268_21215"/>
</filter>
<filter id="filter1_f_268_21215" x="226.195" y="300.995" width="20.0147" height="8.29609" filterUnits="userSpaceOnUse" color-interpolation-filters="sRGB">
<feFlood flood-opacity="0" result="BackgroundImageFix"/>
<feBlend mode="normal" in="SourceGraphic" in2="BackgroundImageFix" result="shape"/>
<feGaussianBlur stdDeviation="1.24416" result="effect1_foregroundBlur_268_21215"/>
</filter>
<linearGradient id="paint0_linear_268_21215" x1="49.6391" y1="161.843" x2="49.6391" y2="343.907" gradientUnits="userSpaceOnUse">
<stop stop-color="#8222FB"/>
<stop offset="1" stop-color="#8222FB" stop-opacity="0.5"/>
</linearGradient>
<linearGradient id="paint1_linear_268_21215" x1="179.844" y1="223.909" x2="179.844" y2="405.972" gradientUnits="userSpaceOnUse">
<stop stop-color="#9C22FB"/>
<stop offset="1" stop-color="#9C22FB" stop-opacity="0.5"/>
</linearGradient>
<linearGradient id="paint2_linear_268_21215" x1="113.158" y1="248.132" x2="113.158" y2="358.593" gradientUnits="userSpaceOnUse">
<stop stop-color="#9C22FB"/>
<stop offset="1" stop-color="#9C22FB" stop-opacity="0.5"/>
</linearGradient>
<linearGradient id="paint3_linear_268_21215" x1="244.948" y1="181.523" x2="244.948" y2="363.587" gradientUnits="userSpaceOnUse">
<stop stop-color="#8222FB"/>
<stop offset="1" stop-color="#8222FB" stop-opacity="0.5"/>
</linearGradient>
<linearGradient id="paint4_linear_268_21215" x1="251.14" y1="220.155" x2="251.14" y2="278.007" gradientUnits="userSpaceOnUse">
<stop stop-color="#CBC4FF"/>
<stop offset="1" stop-color="#EBB9FF"/>
</linearGradient>
<linearGradient id="paint5_linear_268_21215" x1="184.131" y1="221.397" x2="184.131" y2="279.249" gradientUnits="userSpaceOnUse">
<stop stop-color="#CBC4FF"/>
<stop offset="1" stop-color="#EBB9FF"/>
</linearGradient>
<linearGradient id="paint6_linear_268_21215" x1="218.208" y1="304.508" x2="218.198" y2="315.085" gradientUnits="userSpaceOnUse">
<stop stop-color="#2D0047"/>
<stop offset="1" stop-color="#34312F"/>
</linearGradient>
<linearGradient id="paint7_linear_268_21215" x1="167.806" y1="220.155" x2="167.806" y2="278.008" gradientUnits="userSpaceOnUse">
<stop stop-color="#E3ABFC"/>
<stop offset="1" stop-color="#EA9EFB"/>
</linearGradient>
<linearGradient id="paint8_linear_268_21215" x1="100.799" y1="221.397" x2="100.799" y2="279.25" gradientUnits="userSpaceOnUse">
<stop stop-color="#E3ABFC"/>
<stop offset="1" stop-color="#EA9EFB"/>
</linearGradient>
<linearGradient id="paint9_linear_268_21215" x1="134.88" y1="304.508" x2="134.87" y2="315.085" gradientUnits="userSpaceOnUse">
<stop stop-color="#2D0047"/>
<stop offset="1" stop-color="#34312F"/>
</linearGradient>
<linearGradient id="paint10_linear_268_21215" x1="119.595" y1="246.188" x2="119.595" y2="263.808" gradientUnits="userSpaceOnUse">
<stop stop-color="#C4B0FF"/>
<stop offset="1" stop-color="#7147F3" stop-opacity="0"/>
</linearGradient>
<linearGradient id="paint11_linear_268_21215" x1="147.468" y1="244.104" x2="139.802" y2="257.117" gradientUnits="userSpaceOnUse">
<stop stop-color="#EAD8F8"/>
<stop offset="1" stop-color="#C4C4C4" stop-opacity="0"/>
</linearGradient>
<linearGradient id="paint12_linear_268_21215" x1="154.198" y1="247.824" x2="146.532" y2="260.837" gradientUnits="userSpaceOnUse">
<stop stop-color="#EED9FF"/>
<stop offset="1" stop-color="#C4C4C4" stop-opacity="0"/>
</linearGradient>
<linearGradient id="paint13_linear_268_21215" x1="307.449" y1="37" x2="307.449" y2="60.3648" gradientUnits="userSpaceOnUse">
<stop stop-color="#EDD9F1" stop-opacity="0.41"/>
<stop offset="1" stop-color="#FBE9FF" stop-opacity="0.2"/>
</linearGradient>
<linearGradient id="paint14_linear_268_21215" x1="270.936" y1="57.4446" x2="270.936" y2="76.4284" gradientUnits="userSpaceOnUse">
<stop stop-color="#EDD9F1" stop-opacity="0.41"/>
<stop offset="1" stop-color="#FBE9FF" stop-opacity="0.2"/>
</linearGradient>
<clipPath id="clip0_268_21215">
<path d="M0 12.0499C0 5.39495 5.39493 0 12.0499 0H339V339H12.0499C5.39495 339 0 333.605 0 326.95V12.0499Z" fill="white"/>
</clipPath>
</defs>
</svg>
