<svg width="339" height="338" viewBox="0 0 339 338" fill="none" xmlns="http://www.w3.org/2000/svg">
<g clip-path="url(#clip0_268_20732)">
<circle cx="267" cy="210" r="57" fill="#EE71A2"/>
<path d="M-24.6543 337.419L50.3192 228.928L158.81 251.861L141.169 337.419H-24.6543Z" fill="#6F20BE"/>
<path d="M52.9661 227.164C142.789 192.016 297.291 191 297.291 191L352.86 199.82V338.301H-209C-209 338.301 10.6194 324.665 52.9661 314.486C82.9301 307.283 128.771 309.541 122.647 285.378C113.936 251.006 32.6792 235.102 52.9661 227.164Z" fill="url(#paint0_linear_268_20732)" stroke="url(#paint1_diamond_268_20732)" stroke-width="1.76408"/>
<circle cx="302.352" cy="224.287" r="13.8817" fill="url(#paint2_linear_268_20732)"/>
<path d="M309.729 256.757C309.594 257.459 310.504 259.152 310.94 259.236C311.377 259.32 311.841 258.819 311.976 258.117C312.111 257.414 311.866 256.777 311.429 256.693C310.992 256.609 309.864 256.055 309.729 256.757Z" fill="#361B7C"/>
<path d="M309.227 259.25C309.092 259.952 310.002 261.645 310.439 261.729C310.875 261.813 311.339 261.312 311.474 260.61C311.609 259.907 311.364 259.27 310.927 259.186C310.49 259.102 309.362 258.548 309.227 259.25Z" fill="#361B7C"/>
<path d="M308.758 261.267C308.623 261.969 309.533 263.662 309.97 263.746C310.406 263.83 310.87 263.328 311.005 262.626C311.14 261.924 310.895 261.287 310.458 261.203C310.022 261.119 308.893 260.564 308.758 261.267Z" fill="#361B7C"/>
<path d="M308.572 263.31C308.438 264.012 309.347 265.705 309.784 265.789C310.221 265.873 310.684 265.372 310.819 264.67C310.954 263.968 310.71 263.33 310.273 263.246C309.836 263.162 308.707 262.608 308.572 263.31Z" fill="#361B7C"/>
<path d="M308.416 264.941C308.281 265.643 309.191 267.336 309.628 267.42C310.065 267.504 310.528 267.002 310.663 266.3C310.798 265.598 310.553 264.961 310.117 264.877C309.68 264.793 308.551 264.238 308.416 264.941Z" fill="#361B7C"/>
<path d="M307.924 267.233C307.789 267.935 308.699 269.628 309.136 269.712C309.573 269.796 310.036 269.294 310.171 268.592C310.306 267.89 310.061 267.253 309.624 267.169C309.188 267.085 308.059 266.531 307.924 267.233Z" fill="#361B7C"/>
<path d="M307.463 269.249C307.328 269.952 308.238 271.645 308.675 271.728C309.112 271.812 309.575 271.311 309.71 270.609C309.845 269.907 309.6 269.269 309.164 269.186C308.727 269.102 307.598 268.547 307.463 269.249Z" fill="#361B7C"/>
<path d="M306.729 271.242C306.594 271.944 307.504 273.637 307.94 273.721C308.377 273.805 308.841 273.303 308.976 272.601C309.111 271.899 308.866 271.262 308.429 271.178C307.992 271.094 306.864 270.54 306.729 271.242Z" fill="#361B7C"/>
<path d="M319.774 258.066C319.976 258.752 319.234 260.525 318.807 260.65C318.381 260.776 317.871 260.322 317.669 259.636C317.467 258.95 317.649 258.292 318.075 258.166C318.502 258.041 319.572 257.38 319.774 258.066Z" fill="#361B7C"/>
<path d="M320.52 260.498C320.722 261.184 319.98 262.957 319.553 263.083C319.127 263.208 318.617 262.754 318.415 262.068C318.213 261.382 318.395 260.724 318.821 260.599C319.248 260.473 320.318 259.812 320.52 260.498Z" fill="#361B7C"/>
<path d="M321.18 262.462C321.382 263.148 320.64 264.921 320.213 265.047C319.787 265.172 319.277 264.718 319.075 264.032C318.873 263.346 319.055 262.689 319.482 262.563C319.908 262.437 320.978 261.776 321.18 262.462Z" fill="#361B7C"/>
<path d="M321.567 264.476C321.769 265.162 321.027 266.935 320.6 267.061C320.174 267.187 319.664 266.732 319.462 266.047C319.26 265.361 319.442 264.703 319.868 264.577C320.295 264.451 321.365 263.791 321.567 264.476Z" fill="#361B7C"/>
<path d="M321.876 266.089C322.078 266.774 321.335 268.547 320.909 268.673C320.482 268.799 319.973 268.345 319.77 267.659C319.568 266.973 319.75 266.315 320.177 266.189C320.603 266.063 321.673 265.403 321.876 266.089Z" fill="#361B7C"/>
<path d="M322.585 268.318C322.787 269.004 322.044 270.777 321.618 270.903C321.191 271.028 320.682 270.574 320.479 269.888C320.277 269.202 320.459 268.544 320.886 268.419C321.312 268.293 322.382 267.632 322.585 268.318Z" fill="#361B7C"/>
<path d="M323.235 270.283C323.437 270.968 322.695 272.741 322.268 272.867C321.842 272.993 321.332 272.538 321.13 271.853C320.928 271.167 321.11 270.509 321.536 270.383C321.963 270.257 323.033 269.597 323.235 270.283Z" fill="#361B7C"/>
<path d="M324.165 272.194C324.367 272.88 323.624 274.653 323.198 274.778C322.771 274.904 322.262 274.45 322.06 273.764C321.857 273.078 322.039 272.42 322.466 272.294C322.893 272.169 323.962 271.508 324.165 272.194Z" fill="#361B7C"/>
<path d="M302.182 275.097C302.117 274.919 302.25 274.73 302.439 274.73H304.168C304.343 274.73 304.474 274.893 304.435 275.064L304.217 276.022C304.189 276.146 304.078 276.235 303.95 276.235H302.787C302.672 276.235 302.57 276.163 302.53 276.055L302.182 275.097Z" fill="#361B7C"/>
<path d="M322.424 275.098C322.36 274.919 322.492 274.731 322.682 274.731H324.41C324.586 274.731 324.716 274.894 324.677 275.065L324.459 276.022C324.431 276.147 324.32 276.235 324.193 276.235H323.03C322.915 276.235 322.812 276.163 322.773 276.055L322.424 275.098Z" fill="#361B7C"/>
<path d="M305.057 275.097C304.992 274.918 305.125 274.729 305.314 274.729H307.043C307.218 274.729 307.349 274.892 307.31 275.064L307.092 276.021C307.064 276.146 306.953 276.234 306.825 276.234H305.662C305.547 276.234 305.445 276.162 305.405 276.054L305.057 275.097Z" fill="#361B7C"/>
<path d="M325.298 275.097C325.233 274.919 325.365 274.73 325.555 274.73H327.283C327.459 274.73 327.589 274.893 327.55 275.064L327.332 276.021C327.304 276.146 327.193 276.234 327.066 276.234H325.903C325.788 276.234 325.685 276.162 325.646 276.054L325.298 275.097Z" fill="#361B7C"/>
<path d="M304.374 275.141L302.869 253.943H311.759L307.588 275.141H304.374Z" fill="#361B7C"/>
<path d="M322.158 275.137L317.918 256.331L325.987 260.776L325.372 275.137H322.158Z" fill="#361B7C"/>
<path d="M297.465 230.592C297.465 231.307 296.252 232.798 295.807 232.798C295.362 232.798 295.002 232.218 295.002 231.503C295.002 230.788 295.362 230.209 295.807 230.209C296.252 230.209 297.465 229.877 297.465 230.592Z" fill="#4A1D88"/>
<path d="M297.465 232.447C297.465 233.163 296.252 234.653 295.807 234.653C295.362 234.653 295.002 234.074 295.002 233.358C295.002 232.643 295.362 232.064 295.807 232.064C296.252 232.064 297.465 231.732 297.465 232.447Z" fill="#4A1D88"/>
<path d="M297.282 235.774C297.494 236.456 296.778 238.245 296.354 238.379C295.929 238.514 295.414 238.069 295.202 237.387C294.99 236.705 295.162 236.043 295.586 235.908C296.01 235.774 297.07 235.092 297.282 235.774Z" fill="#4A1D88"/>
<path d="M297.141 237.627C297.353 238.309 296.637 240.098 296.213 240.232C295.789 240.366 295.273 239.922 295.061 239.24C294.849 238.557 295.021 237.895 295.445 237.761C295.87 237.627 296.929 236.945 297.141 237.627Z" fill="#56E6FF"/>
<path d="M297.139 239.479C297.351 240.162 296.636 241.95 296.211 242.084C295.787 242.219 295.271 241.774 295.059 241.092C294.847 240.41 295.019 239.748 295.443 239.614C295.868 239.479 296.927 238.797 297.139 239.479Z" fill="#56E6FF"/>
<path d="M298.651 237.395C298.863 238.078 298.147 239.866 297.723 240.001C297.299 240.135 296.783 239.691 296.571 239.008C296.359 238.326 296.531 237.664 296.955 237.53C297.379 237.396 298.439 236.713 298.651 237.395Z" fill="#5A5A5B"/>
<path d="M306.74 230.137C306.74 230.852 307.953 232.343 308.398 232.343C308.843 232.343 309.203 231.763 309.203 231.048C309.203 230.333 308.843 229.753 308.398 229.753C307.953 229.753 306.74 229.422 306.74 230.137Z" fill="#4A1D88"/>
<path d="M306.74 231.99C306.74 232.705 307.953 234.196 308.398 234.196C308.843 234.196 309.203 233.616 309.203 232.901C309.203 232.186 308.843 231.606 308.398 231.606C307.953 231.606 306.74 231.275 306.74 231.99Z" fill="#4A1D88"/>
<path d="M306.654 235.316C306.442 235.998 307.157 237.787 307.582 237.921C308.006 238.056 308.522 237.611 308.734 236.929C308.946 236.247 308.774 235.585 308.35 235.45C307.925 235.316 306.866 234.634 306.654 235.316Z" fill="#4A1D88"/>
<path d="M306.654 237.171C306.442 237.853 307.157 239.642 307.582 239.776C308.006 239.911 308.522 239.466 308.734 238.784C308.946 238.102 308.774 237.44 308.35 237.306C307.925 237.171 306.866 236.489 306.654 237.171Z" fill="#56E6FF"/>
<path d="M306.652 239.021C306.44 239.703 307.155 241.492 307.58 241.626C308.004 241.76 308.52 241.316 308.732 240.634C308.944 239.951 308.772 239.29 308.348 239.155C307.923 239.021 306.864 238.339 306.652 239.021Z" fill="#56E6FF"/>
<path d="M305.351 236.939C305.139 237.621 305.855 239.41 306.279 239.544C306.703 239.678 307.219 239.234 307.431 238.552C307.643 237.87 307.471 237.208 307.047 237.073C306.622 236.939 305.563 236.257 305.351 236.939Z" fill="#DDE8EF"/>
<path d="M306.56 233.843C306.56 234.558 307.773 236.049 308.218 236.049C308.663 236.049 309.023 235.469 309.023 234.754C309.023 234.039 308.663 233.46 308.218 233.46C307.773 233.46 306.56 233.128 306.56 233.843Z" fill="#4A1D88"/>
<path d="M297.623 234.295C297.623 235.01 296.41 236.501 295.965 236.501C295.521 236.501 295.16 235.921 295.16 235.206C295.16 234.491 295.521 233.911 295.965 233.911C296.41 233.911 297.623 233.58 297.623 234.295Z" fill="#4A1D88"/>
<path fill-rule="evenodd" clip-rule="evenodd" d="M308.131 227.108C309.766 226.532 310.362 223.137 310.362 220.126C310.362 216.224 308.887 213.184 307.538 213.184C306.436 213.184 306.467 215.034 306.516 217.841C306.527 218.468 306.538 219.142 306.538 219.854C306.379 221.035 306.127 222.091 305.908 223.004C305.81 223.414 305.719 223.795 305.646 224.146C304.532 223.48 303.204 223.169 301.83 223.169C300.595 223.169 299.483 223.421 298.557 223.955C298.492 223.658 298.416 223.342 298.336 223.005C298.117 222.092 297.865 221.036 297.706 219.855C297.706 219.143 297.717 218.469 297.728 217.842L297.728 217.842C297.777 215.035 297.808 213.185 296.706 213.185C295.357 213.185 293.882 216.225 293.882 220.127C293.882 223.154 294.484 226.57 296.14 227.118C295.857 228.006 295.705 229.055 295.705 230.276C295.705 230.936 295.67 231.862 295.628 232.972C295.352 240.252 294.776 255.446 301.83 255.446C309.159 255.446 308.84 239.044 308.706 232.158C308.692 231.406 308.679 230.767 308.679 230.276C308.679 229.05 308.482 227.998 308.131 227.108Z" fill="#4A1D88"/>
<path fill-rule="evenodd" clip-rule="evenodd" d="M306.919 229.928C307.288 229.405 307.495 228.814 307.495 228.188C307.495 226.042 305.049 224.302 302.032 224.302C299.014 224.302 296.568 226.042 296.568 228.188C296.568 228.827 296.785 229.429 297.168 229.961C296.705 230.557 296.705 231.326 296.705 232.165C296.705 234.062 299.101 235.306 302.057 235.306C305.012 235.306 307.408 234.062 307.408 232.165C307.408 231.311 307.408 230.529 306.919 229.928Z" fill="#4A1D88"/>
<path d="M309.598 220.266C309.598 222.255 307.342 225.34 307.192 224.835C307.042 224.33 307.498 223.615 307.192 220.456C306.885 217.297 307.054 213.927 307.745 213.864C308.033 213.838 309.464 217.044 309.598 220.266Z" fill="#4A1D88"/>
<path d="M309.711 220.86C309.711 222.849 307.455 225.934 307.305 225.429C307.155 224.924 307.612 224.208 307.305 221.049C306.998 217.891 307.167 214.521 307.858 214.458C308.146 214.432 309.577 217.638 309.711 220.86Z" fill="#4A1D88"/>
<path d="M294.508 220.266C294.508 222.254 296.764 225.34 296.914 224.835C297.064 224.329 296.607 223.614 296.914 220.455C297.22 217.296 297.051 213.927 296.361 213.864C296.073 213.837 294.642 217.044 294.508 220.266Z" fill="#4A1D88"/>
<path d="M294.385 221.096C294.385 223.084 296.641 226.17 296.791 225.665C296.941 225.159 296.484 224.444 296.791 221.285C297.097 218.126 296.928 214.757 296.238 214.694C295.95 214.667 294.519 217.874 294.385 221.096Z" fill="#4A1D88"/>
<path d="M304.123 231.796C304.123 232.386 303.216 232.863 302.097 232.863C300.978 232.863 300.07 232.386 300.07 231.796C300.07 231.207 300.978 228.737 302.097 228.737C303.216 228.737 304.123 231.207 304.123 231.796Z" fill="#4A1D88"/>
<path d="M302.09 229.773C303.142 229.794 303.373 230.496 303.513 230.697C303.653 230.898 303.481 231.571 302.09 231.423C301.021 231.386 300.437 231.17 300.636 230.73C300.636 230.73 301.039 229.752 302.09 229.773Z" fill="#4A1D88"/>
<path d="M303.248 230.663C303.317 230.793 302.798 231.165 302.619 231.218C302.364 231.294 302.075 231.388 302.061 231.362C302.047 231.335 302.332 231.153 302.54 230.978C302.747 230.804 303.178 230.534 303.248 230.663Z" fill="#4A1D88"/>
<path d="M300.936 230.66C300.866 230.79 301.386 231.162 301.565 231.215C301.819 231.291 302.109 231.385 302.123 231.359C302.137 231.333 301.851 231.15 301.644 230.975C301.437 230.801 301.006 230.531 300.936 230.66Z" fill="#4A1D88"/>
<path d="M328.197 241.128C321.842 238.425 295.486 242.793 295.486 242.793C295.486 242.793 296.487 252.422 300.41 256.553C305.944 262.38 326.899 256.553 326.899 256.553C326.899 256.553 331.987 253.441 332.366 250.191C332.742 246.967 330.824 242.245 328.197 241.128Z" fill="#56E6FF"/>
<path d="M304.924 245.256L308.617 241.085L309.847 241.017L304.924 245.256Z" fill="#59D9EF"/>
<path d="M297.401 241.956C297.401 242.671 296.187 244.162 295.743 244.162C295.298 244.162 294.938 243.582 294.938 242.867C294.938 242.152 295.298 241.573 295.743 241.573C296.187 241.573 297.401 241.241 297.401 241.956Z" fill="#361B7C"/>
<path d="M297.674 243.737C297.674 244.452 296.461 245.942 296.016 245.942C295.571 245.942 295.211 245.363 295.211 244.648C295.211 243.933 295.571 243.353 296.016 243.353C296.461 243.353 297.674 243.022 297.674 243.737Z" fill="#361B7C"/>
<path d="M297.712 245.659C297.877 246.355 297.041 248.086 296.608 248.188C296.175 248.291 295.691 247.81 295.526 247.114C295.36 246.419 295.577 245.771 296.01 245.669C296.443 245.566 297.547 244.964 297.712 245.659Z" fill="#361B7C"/>
<path d="M298.261 248.233C298.426 248.929 297.589 250.66 297.157 250.762C296.724 250.865 296.239 250.384 296.074 249.688C295.909 248.993 296.126 248.345 296.559 248.243C296.992 248.14 298.096 247.538 298.261 248.233Z" fill="#361B7C"/>
<path d="M298.503 249.882C298.893 250.481 298.69 252.392 298.317 252.635C297.944 252.878 297.326 252.588 296.936 251.989C296.546 251.39 296.531 250.708 296.904 250.465C297.277 250.222 298.113 249.283 298.503 249.882Z" fill="#361B7C"/>
<path d="M299.032 251.316C299.422 251.915 299.219 253.826 298.846 254.069C298.474 254.312 297.855 254.022 297.465 253.423C297.075 252.824 297.061 252.141 297.433 251.899C297.806 251.656 298.642 250.717 299.032 251.316Z" fill="#361B7C"/>
<path d="M300.265 253.094C300.655 253.693 300.451 255.605 300.079 255.847C299.706 256.09 299.088 255.801 298.697 255.202C298.307 254.602 298.293 253.92 298.666 253.677C299.039 253.434 299.874 252.495 300.265 253.094Z" fill="#361B7C"/>
<path d="M300.95 254.052C301.34 254.651 301.137 256.562 300.764 256.805C300.392 257.047 299.773 256.758 299.383 256.159C298.993 255.56 298.979 254.877 299.351 254.635C299.724 254.392 300.56 253.452 300.95 254.052Z" fill="#361B7C"/>
<path d="M299.664 253.585C299.799 254.287 298.889 255.98 298.452 256.064C298.015 256.148 297.552 255.647 297.417 254.944C297.282 254.242 297.527 253.605 297.963 253.521C298.4 253.437 299.529 252.883 299.664 253.585Z" fill="#361B7C"/>
<path d="M300.174 256.075C300.309 256.777 299.399 258.47 298.962 258.554C298.525 258.638 298.062 258.136 297.927 257.434C297.792 256.732 298.036 256.095 298.473 256.011C298.91 255.927 300.039 255.372 300.174 256.075Z" fill="#361B7C"/>
<path d="M300.64 258.093C300.775 258.795 299.865 260.488 299.429 260.572C298.992 260.656 298.529 260.154 298.394 259.452C298.259 258.75 298.503 258.113 298.94 258.029C299.377 257.945 300.505 257.39 300.64 258.093Z" fill="#361B7C"/>
<path d="M300.826 260.139C300.961 260.841 300.051 262.534 299.614 262.618C299.177 262.702 298.714 262.2 298.579 261.498C298.444 260.796 298.689 260.159 299.126 260.075C299.562 259.991 300.691 259.437 300.826 260.139Z" fill="#361B7C"/>
<path d="M300.98 261.77C301.115 262.473 300.205 264.166 299.769 264.249C299.332 264.333 298.868 263.832 298.733 263.13C298.598 262.428 298.843 261.79 299.28 261.707C299.717 261.623 300.845 261.068 300.98 261.77Z" fill="#361B7C"/>
<path d="M301.471 264.063C301.605 264.765 300.695 266.458 300.259 266.542C299.822 266.626 299.359 266.124 299.224 265.422C299.089 264.72 299.333 264.083 299.77 263.999C300.207 263.915 301.336 263.361 301.471 264.063Z" fill="#361B7C"/>
<path d="M301.935 266.075C302.07 266.778 301.16 268.47 300.724 268.554C300.287 268.638 299.823 268.137 299.688 267.435C299.554 266.733 299.798 266.095 300.235 266.011C300.672 265.928 301.8 265.373 301.935 266.075Z" fill="#361B7C"/>
<path d="M302.67 268.071C302.805 268.773 301.895 270.466 301.458 270.55C301.021 270.634 300.558 270.132 300.423 269.43C300.288 268.728 300.533 268.091 300.969 268.007C301.406 267.923 302.535 267.369 302.67 268.071Z" fill="#361B7C"/>
<path d="M306.854 256.76C306.719 257.462 307.629 259.155 308.065 259.239C308.502 259.323 308.966 258.821 309.101 258.119C309.236 257.417 308.991 256.78 308.554 256.696C308.117 256.612 306.989 256.058 306.854 256.76Z" fill="#361B7C"/>
<path d="M306.352 259.253C306.217 259.955 307.127 261.648 307.564 261.732C308 261.816 308.464 261.314 308.599 260.612C308.734 259.91 308.489 259.273 308.052 259.189C307.615 259.105 306.487 258.55 306.352 259.253Z" fill="#361B7C"/>
<path d="M305.885 261.272C305.75 261.974 306.66 263.667 307.097 263.751C307.533 263.835 307.997 263.334 308.132 262.632C308.267 261.929 308.022 261.292 307.585 261.208C307.149 261.124 306.02 260.57 305.885 261.272Z" fill="#361B7C"/>
<path d="M305.697 263.313C305.563 264.015 306.472 265.708 306.909 265.792C307.346 265.876 307.809 265.375 307.944 264.672C308.079 263.97 307.835 263.333 307.398 263.249C306.961 263.165 305.832 262.611 305.697 263.313Z" fill="#361B7C"/>
<path d="M305.543 264.946C305.408 265.648 306.318 267.341 306.755 267.425C307.192 267.509 307.655 267.008 307.79 266.306C307.925 265.603 307.68 264.966 307.244 264.882C306.807 264.798 305.678 264.244 305.543 264.946Z" fill="#361B7C"/>
<path d="M305.049 267.235C304.914 267.938 305.824 269.631 306.261 269.714C306.698 269.798 307.161 269.297 307.296 268.595C307.431 267.893 307.186 267.255 306.749 267.171C306.313 267.088 305.184 266.533 305.049 267.235Z" fill="#361B7C"/>
<path d="M304.59 269.255C304.455 269.957 305.365 271.65 305.802 271.734C306.239 271.818 306.702 271.316 306.837 270.614C306.972 269.912 306.727 269.275 306.29 269.191C305.854 269.107 304.725 268.553 304.59 269.255Z" fill="#361B7C"/>
<path d="M303.854 271.244C303.719 271.947 304.629 273.64 305.065 273.723C305.502 273.807 305.966 273.306 306.101 272.604C306.236 271.902 305.991 271.264 305.554 271.181C305.117 271.097 303.989 270.542 303.854 271.244Z" fill="#361B7C"/>
<path d="M329.012 256.208C328.877 256.91 329.787 258.603 330.224 258.687C330.66 258.771 331.124 258.269 331.259 257.567C331.394 256.865 331.149 256.228 330.712 256.144C330.276 256.06 329.147 255.505 329.012 256.208Z" fill="#361B7C"/>
<path d="M328.51 258.701C328.375 259.403 329.285 261.096 329.722 261.18C330.158 261.263 330.622 260.762 330.757 260.06C330.892 259.358 330.647 258.721 330.21 258.637C329.774 258.553 328.645 257.998 328.51 258.701Z" fill="#361B7C"/>
<path d="M328.043 260.72C327.908 261.422 328.818 263.115 329.255 263.199C329.692 263.283 330.155 262.782 330.29 262.08C330.425 261.377 330.18 260.74 329.744 260.656C329.307 260.572 328.178 260.018 328.043 260.72Z" fill="#361B7C"/>
<path d="M327.856 262.761C327.721 263.463 328.631 265.156 329.067 265.24C329.504 265.324 329.968 264.822 330.103 264.12C330.237 263.418 329.993 262.781 329.556 262.697C329.119 262.613 327.991 262.058 327.856 262.761Z" fill="#361B7C"/>
<path d="M327.701 264.397C327.566 265.099 328.476 266.792 328.913 266.876C329.35 266.96 329.813 266.458 329.948 265.756C330.083 265.054 329.839 264.417 329.402 264.333C328.965 264.249 327.836 263.694 327.701 264.397Z" fill="#361B7C"/>
<path d="M327.207 266.683C327.072 267.386 327.982 269.078 328.419 269.162C328.856 269.246 329.319 268.745 329.454 268.043C329.589 267.341 329.344 266.703 328.908 266.619C328.471 266.535 327.342 265.981 327.207 266.683Z" fill="#361B7C"/>
<path d="M326.748 268.703C326.613 269.405 327.523 271.098 327.96 271.182C328.397 271.266 328.86 270.764 328.995 270.062C329.13 269.36 328.885 268.723 328.449 268.639C328.012 268.555 326.883 268 326.748 268.703Z" fill="#361B7C"/>
<path d="M326.014 270.695C325.879 271.397 326.789 273.09 327.226 273.174C327.662 273.258 328.126 272.757 328.261 272.055C328.396 271.352 328.151 270.715 327.714 270.631C327.278 270.547 326.149 269.993 326.014 270.695Z" fill="#361B7C"/>
<path d="M319.59 242.18C318.875 242.18 317.385 240.967 317.385 240.522C317.385 240.077 317.964 239.717 318.679 239.717C319.394 239.717 319.974 240.077 319.974 240.522C319.974 240.967 320.305 242.18 319.59 242.18Z" fill="#361B7C"/>
<path d="M328.619 242.724C327.909 242.641 326.57 241.262 326.621 240.821C326.673 240.379 327.291 240.088 328.001 240.172C328.711 240.255 329.245 240.681 329.193 241.122C329.142 241.564 329.329 242.807 328.619 242.724Z" fill="#361B7C"/>
<path d="M315.762 259.409C315.047 259.409 313.557 258.196 313.557 257.752C313.557 257.307 314.136 256.946 314.851 256.946C315.566 256.946 316.146 257.307 316.146 257.752C316.146 258.196 316.477 259.409 315.762 259.409Z" fill="#361B7C"/>
<path d="M317.387 259.274C316.672 259.274 315.182 258.061 315.182 257.616C315.182 257.172 315.761 256.811 316.476 256.811C317.191 256.811 317.771 257.172 317.771 257.616C317.771 258.061 318.102 259.274 317.387 259.274Z" fill="#361B7C"/>
<path d="M318.756 259.139C318.041 259.139 316.551 257.926 316.551 257.482C316.551 257.037 317.13 256.676 317.845 256.676C318.56 256.676 319.14 257.037 319.14 257.482C319.14 257.926 319.471 259.139 318.756 259.139Z" fill="#361B7C"/>
<path d="M331.761 249.384C331.144 249.743 330.46 251.544 330.682 251.93C330.904 252.316 331.584 252.338 332.202 251.979C332.82 251.62 333.141 251.016 332.919 250.63C332.697 250.244 332.379 249.025 331.761 249.384Z" fill="#361B7C"/>
<path d="M330.503 247.8C330.489 248.514 331.672 250.034 332.117 250.045C332.562 250.057 332.935 249.487 332.949 248.772C332.963 248.058 332.614 247.47 332.169 247.458C331.724 247.447 330.517 247.085 330.503 247.8Z" fill="#361B7C"/>
<path d="M329.858 245.783C329.844 246.497 331.028 248.017 331.473 248.029C331.918 248.04 332.29 247.47 332.304 246.756C332.319 246.041 331.97 245.453 331.525 245.442C331.08 245.43 329.873 245.069 329.858 245.783Z" fill="#361B7C"/>
<path d="M316.259 242.27C315.577 242.482 313.788 241.766 313.654 241.342C313.52 240.918 313.964 240.402 314.646 240.19C315.329 239.978 315.991 240.15 316.125 240.574C316.259 240.999 316.942 242.058 316.259 242.27Z" fill="#361B7C"/>
<path d="M325.302 242.424C324.599 242.555 322.906 241.636 322.822 241.199C322.738 240.762 323.24 240.302 323.942 240.17C324.644 240.039 325.282 240.287 325.366 240.725C325.45 241.162 326.004 242.293 325.302 242.424Z" fill="#361B7C"/>
<path d="M312.431 259.502C311.749 259.714 309.96 258.999 309.826 258.574C309.692 258.15 310.136 257.634 310.818 257.422C311.501 257.21 312.163 257.382 312.297 257.807C312.431 258.231 313.114 259.29 312.431 259.502Z" fill="#361B7C"/>
<path d="M331.054 250.749C330.437 251.108 329.753 252.909 329.975 253.295C330.197 253.681 330.877 253.703 331.495 253.344C332.113 252.985 332.434 252.381 332.212 251.995C331.99 251.609 331.672 250.39 331.054 250.749Z" fill="#361B7C"/>
<path d="M314.412 242.27C313.729 242.482 311.941 241.766 311.806 241.342C311.672 240.917 312.117 240.402 312.799 240.19C313.481 239.978 314.143 240.15 314.277 240.574C314.412 240.998 315.094 242.058 314.412 242.27Z" fill="#361B7C"/>
<path d="M323.466 242.207C322.763 242.338 321.07 241.419 320.986 240.982C320.902 240.545 321.404 240.084 322.106 239.953C322.808 239.822 323.446 240.07 323.53 240.507C323.614 240.944 324.168 242.076 323.466 242.207Z" fill="#361B7C"/>
<path d="M310.578 259.502C309.895 259.714 308.107 258.999 307.973 258.574C307.838 258.15 308.283 257.634 308.965 257.422C309.647 257.21 310.309 257.382 310.443 257.807C310.578 258.231 311.26 259.29 310.578 259.502Z" fill="#361B7C"/>
<path d="M329.804 252.113C329.187 252.472 328.503 254.273 328.725 254.659C328.947 255.045 329.627 255.067 330.245 254.708C330.863 254.349 331.184 253.745 330.962 253.359C330.74 252.973 330.422 251.754 329.804 252.113Z" fill="#361B7C"/>
<path d="M312.556 242.27C311.874 242.482 310.085 241.766 309.951 241.342C309.817 240.918 310.261 240.402 310.943 240.19C311.626 239.978 312.288 240.15 312.422 240.574C312.556 240.999 313.239 242.058 312.556 242.27Z" fill="#361B7C"/>
<path d="M321.628 241.989C320.925 242.12 319.232 241.201 319.148 240.764C319.064 240.327 319.566 239.867 320.268 239.736C320.971 239.604 321.608 239.853 321.692 240.29C321.776 240.727 322.33 241.858 321.628 241.989Z" fill="#361B7C"/>
<path d="M308.73 259.502C308.048 259.714 306.259 258.998 306.125 258.574C305.991 258.15 306.435 257.634 307.117 257.422C307.8 257.21 308.461 257.382 308.596 257.806C308.73 258.231 309.412 259.29 308.73 259.502Z" fill="#361B7C"/>
<path d="M317.737 242.336C317.022 242.336 315.531 241.123 315.531 240.679C315.531 240.234 316.111 239.873 316.826 239.873C317.541 239.873 318.121 240.234 318.121 240.679C318.121 241.123 318.452 242.336 317.737 242.336Z" fill="#361B7C"/>
<path d="M326.76 242.664C326.05 242.58 324.71 241.202 324.762 240.76C324.814 240.319 325.432 240.028 326.142 240.111C326.852 240.195 327.386 240.62 327.334 241.062C327.282 241.504 327.47 242.747 326.76 242.664Z" fill="#361B7C"/>
<path d="M313.911 259.569C313.196 259.569 311.705 258.356 311.705 257.911C311.705 257.466 312.285 257.106 313 257.106C313.715 257.106 314.294 257.466 314.294 257.911C314.294 258.356 314.626 259.569 313.911 259.569Z" fill="#361B7C"/>
<path d="M332.288 240.306C333.849 239.244 334.947 241.055 334.03 241.991C334.228 242.769 333.477 243.512 332.713 243.433C332.614 244.059 331.892 244.562 331.277 244.449C331.064 245.258 330.049 245.754 329.301 245.355C327.892 246.308 326.621 244.315 327.944 243.263C327.724 242.414 328.207 241.658 329.014 241.356C329.221 240.478 330.196 240.026 331.012 240.419C331.349 240.104 331.906 239.996 332.288 240.306Z" fill="#361B7C"/>
<path d="M301.775 275.144L297.809 253.945H309.297L304.989 275.144H301.775Z" fill="#361B7C"/>
<path d="M325.029 275.142L319.627 253.944H330.637L328.243 275.142H325.029Z" fill="#361B7C"/>
<path d="M320.447 260.983C318.479 259.286 319.011 254.487 319.011 254.487L328.721 253.393L329.61 261.735L324.823 262.282C324.823 262.282 321.797 262.148 320.447 260.983Z" fill="#361B7C"/>
<path d="M322.09 258.023C322.293 258.709 321.55 260.482 321.124 260.608C320.697 260.733 320.187 260.279 319.985 259.593C319.783 258.908 319.965 258.25 320.392 258.124C320.818 257.998 321.888 257.337 322.09 258.023Z" fill="#361B7C"/>
<path d="M322.836 260.456C323.039 261.142 322.296 262.914 321.87 263.04C321.443 263.166 320.934 262.712 320.731 262.026C320.529 261.34 320.711 260.682 321.138 260.556C321.564 260.43 322.634 259.77 322.836 260.456Z" fill="#361B7C"/>
<path d="M323.497 262.42C323.699 263.106 322.956 264.878 322.53 265.004C322.103 265.13 321.594 264.676 321.392 263.99C321.189 263.304 321.371 262.646 321.798 262.52C322.225 262.395 323.295 261.734 323.497 262.42Z" fill="#361B7C"/>
<path d="M323.883 264.434C324.085 265.12 323.343 266.893 322.917 267.018C322.49 267.144 321.98 266.69 321.778 266.004C321.576 265.318 321.758 264.66 322.185 264.534C322.611 264.409 323.681 263.748 323.883 264.434Z" fill="#361B7C"/>
<path d="M324.19 266.043C324.392 266.729 323.65 268.502 323.223 268.628C322.797 268.753 322.287 268.299 322.085 267.613C321.883 266.927 322.065 266.269 322.491 266.144C322.918 266.018 323.988 265.357 324.19 266.043Z" fill="#361B7C"/>
<path d="M324.901 268.276C325.103 268.961 324.361 270.734 323.934 270.86C323.508 270.986 322.998 270.532 322.796 269.846C322.594 269.16 322.776 268.502 323.202 268.376C323.629 268.25 324.699 267.59 324.901 268.276Z" fill="#361B7C"/>
<path d="M325.551 270.24C325.753 270.926 325.011 272.699 324.585 272.824C324.158 272.95 323.648 272.496 323.446 271.81C323.244 271.124 323.426 270.466 323.853 270.34C324.279 270.215 325.349 269.554 325.551 270.24Z" fill="#361B7C"/>
<path d="M326.481 272.151C326.683 272.837 325.941 274.61 325.514 274.736C325.088 274.861 324.578 274.407 324.376 273.721C324.174 273.035 324.356 272.378 324.782 272.252C325.209 272.126 326.279 271.465 326.481 272.151Z" fill="#361B7C"/>
<path d="M325.23 275.621C323.575 275.812 322.837 276.1 321.606 275.621C319.007 266.663 318.597 263.517 316.614 258.32C315.505 258.15 314.031 258.157 312.921 258.32C311.28 260.919 310.664 271.039 308.476 275.621C306.744 275.836 304.031 275.142 304.031 275.142L305.194 256.679L320.99 257.294C320.99 257.294 323.589 269.603 325.23 275.621Z" fill="#361B7C"/>
<path d="M327.966 271.449H320.443L320.307 270.97L328.171 270.765L327.966 271.449Z" fill="#361B7C"/>
<path d="M309.913 271.447H302.631L302.459 270.969L310.049 270.764L309.913 271.447Z" fill="#361B7C"/>
<path d="M309.3 236.435C305.744 236.776 295.008 237.118 293.709 237.665C293.388 240.229 294.508 241.598 294.187 244.162C293.867 246.725 294.109 250.373 295.008 254.282C296.887 262.452 298.085 268.438 300.615 275.002C303.898 275.55 301.709 275.413 305.539 275.208C307.317 271.515 307.317 263.104 309.095 260.095C310.757 259.594 317.801 259.546 318.532 261.121C320.31 264.95 323.797 275.119 324.276 275.208C327.216 275.755 326.259 275.481 329.199 275.208C332.072 264.54 331.593 261.463 331.593 254.761C331.593 253.412 332.884 251.62 333.234 250.316C334 247.469 331.558 247.372 332.824 244.709C333.472 243.344 334.27 243.591 334.807 242.179C335.3 240.881 335.543 240.895 334.807 239.717C333.796 238.1 332.746 239.246 330.841 239.307C329.196 239.359 327.011 239.307 327.011 239.307C327.011 239.307 311.693 237.665 309.3 239.717C308.414 240.476 309.806 237.486 309.3 236.435Z" fill="#361B7C"/>
<path d="M305.336 244.637L309.029 239.851C309.92 239.259 310.478 239.091 311.559 239.03L305.336 244.637Z" fill="#361B7C"/>
<path d="M293.995 238.159L309.617 237.229C310.017 237.206 310.328 236.875 310.328 236.475C310.328 236.044 309.968 235.7 309.537 235.72L293.904 236.465C293.451 236.486 293.096 236.859 293.096 237.312C293.096 237.801 293.507 238.188 293.995 238.159Z" fill="#361B7C"/>
<path d="M330.157 271.445H322.635L322.43 270.967L330.362 270.762L330.157 271.445Z" fill="#361B7C"/>
<path d="M306.635 271.446H299.354L299.182 270.967L306.772 270.762L306.635 271.446Z" fill="#361B7C"/>
<path d="M302.254 239.924H297.809C297.582 239.924 297.398 240.108 297.398 240.334V243.974C297.398 244.195 297.573 244.376 297.793 244.384L302.238 244.558C302.47 244.567 302.664 244.38 302.664 244.148V240.334C302.664 240.108 302.48 239.924 302.254 239.924Z" fill="#361B7C"/>
<path d="M304.92 239.854H303.69C303.463 239.854 303.279 240.037 303.279 240.264V241.29C303.279 241.51 303.453 241.691 303.673 241.7L304.904 241.751C305.137 241.76 305.331 241.574 305.331 241.341V240.264C305.331 240.037 305.147 239.854 304.92 239.854Z" fill="#361B7C"/>
<path d="M304.924 242.041H303.694C303.467 242.041 303.283 242.225 303.283 242.452V244.137C303.283 244.355 303.453 244.535 303.671 244.547L304.901 244.616C305.137 244.629 305.335 244.442 305.335 244.206V242.452C305.335 242.225 305.151 242.041 304.924 242.041Z" fill="#361B7C"/>
<circle cx="273.605" cy="243.168" r="13.3585" fill="url(#paint3_linear_268_20732)"/>
<path d="M280.7 274.415C280.57 275.091 281.446 276.72 281.866 276.801C282.286 276.881 282.732 276.399 282.862 275.723C282.992 275.047 282.757 274.434 282.336 274.353C281.916 274.273 280.83 273.739 280.7 274.415Z" fill="#361B7C"/>
<path d="M280.218 276.814C280.088 277.49 280.964 279.119 281.384 279.199C281.804 279.28 282.25 278.798 282.38 278.122C282.51 277.446 282.274 276.833 281.854 276.752C281.434 276.672 280.348 276.138 280.218 276.814Z" fill="#361B7C"/>
<path d="M279.767 278.754C279.637 279.43 280.512 281.059 280.933 281.14C281.353 281.221 281.799 280.738 281.929 280.063C282.059 279.387 281.823 278.774 281.403 278.693C280.983 278.612 279.896 278.079 279.767 278.754Z" fill="#361B7C"/>
<path d="M279.589 280.721C279.459 281.397 280.335 283.026 280.755 283.107C281.175 283.187 281.621 282.705 281.751 282.029C281.881 281.354 281.645 280.74 281.225 280.659C280.805 280.579 279.719 280.045 279.589 280.721Z" fill="#361B7C"/>
<path d="M279.438 282.29C279.309 282.966 280.184 284.595 280.604 284.676C281.025 284.756 281.471 284.274 281.601 283.598C281.73 282.922 281.495 282.309 281.075 282.228C280.654 282.148 279.568 281.614 279.438 282.29Z" fill="#361B7C"/>
<path d="M278.964 284.496C278.834 285.171 279.71 286.8 280.13 286.881C280.55 286.962 280.996 286.48 281.126 285.804C281.256 285.128 281.02 284.515 280.6 284.434C280.18 284.353 279.094 283.82 278.964 284.496Z" fill="#361B7C"/>
<path d="M278.522 286.436C278.393 287.112 279.268 288.741 279.688 288.822C280.109 288.903 280.555 288.42 280.685 287.745C280.814 287.069 280.579 286.456 280.159 286.375C279.738 286.294 278.652 285.761 278.522 286.436Z" fill="#361B7C"/>
<path d="M277.815 288.354C277.685 289.029 278.561 290.658 278.981 290.739C279.402 290.82 279.848 290.338 279.978 289.662C280.107 288.986 279.872 288.373 279.452 288.292C279.031 288.211 277.945 287.678 277.815 288.354Z" fill="#361B7C"/>
<path d="M290.368 275.674C290.562 276.334 289.848 278.04 289.437 278.161C289.027 278.282 288.536 277.845 288.342 277.185C288.147 276.525 288.322 275.892 288.733 275.771C289.143 275.65 290.173 275.014 290.368 275.674Z" fill="#361B7C"/>
<path d="M291.086 278.015C291.281 278.675 290.566 280.381 290.156 280.502C289.745 280.623 289.255 280.186 289.061 279.526C288.866 278.866 289.041 278.232 289.452 278.112C289.862 277.991 290.892 277.355 291.086 278.015Z" fill="#361B7C"/>
<path d="M291.721 279.905C291.916 280.565 291.201 282.271 290.791 282.392C290.38 282.513 289.89 282.076 289.695 281.416C289.501 280.756 289.676 280.123 290.086 280.002C290.497 279.881 291.527 279.245 291.721 279.905Z" fill="#361B7C"/>
<path d="M292.094 281.843C292.289 282.503 291.574 284.209 291.164 284.33C290.753 284.451 290.263 284.014 290.068 283.354C289.874 282.694 290.049 282.061 290.459 281.94C290.87 281.819 291.9 281.183 292.094 281.843Z" fill="#361B7C"/>
<path d="M292.391 283.395C292.585 284.055 291.871 285.761 291.461 285.882C291.05 286.002 290.56 285.565 290.365 284.905C290.171 284.245 290.346 283.612 290.756 283.491C291.167 283.37 292.196 282.734 292.391 283.395Z" fill="#361B7C"/>
<path d="M293.071 285.54C293.265 286.2 292.551 287.906 292.14 288.027C291.73 288.148 291.239 287.711 291.045 287.051C290.85 286.391 291.026 285.758 291.436 285.637C291.847 285.516 292.876 284.88 293.071 285.54Z" fill="#361B7C"/>
<path d="M293.7 287.43C293.894 288.09 293.18 289.796 292.769 289.917C292.359 290.038 291.868 289.601 291.674 288.941C291.479 288.281 291.654 287.648 292.065 287.527C292.475 287.406 293.505 286.77 293.7 287.43Z" fill="#361B7C"/>
<path d="M294.594 289.27C294.789 289.93 294.074 291.636 293.664 291.757C293.253 291.878 292.763 291.441 292.568 290.781C292.374 290.12 292.549 289.487 292.959 289.366C293.37 289.245 294.4 288.61 294.594 289.27Z" fill="#361B7C"/>
<path d="M273.441 292.064C273.379 291.892 273.506 291.711 273.688 291.711H275.352C275.521 291.711 275.646 291.868 275.608 292.032L275.399 292.954C275.372 293.073 275.265 293.158 275.142 293.158H274.023C273.913 293.158 273.814 293.089 273.776 292.985L273.441 292.064Z" fill="#361B7C"/>
<path d="M292.919 292.064C292.857 291.893 292.984 291.711 293.167 291.711H294.83C294.999 291.711 295.124 291.868 295.087 292.033L294.878 292.954C294.85 293.074 294.744 293.159 294.621 293.159H293.502C293.391 293.159 293.292 293.09 293.254 292.986L292.919 292.064Z" fill="#361B7C"/>
<path d="M276.209 292.063C276.146 291.891 276.273 291.71 276.456 291.71H278.119C278.288 291.71 278.413 291.867 278.376 292.031L278.167 292.953C278.139 293.073 278.033 293.158 277.91 293.158H276.791C276.68 293.158 276.581 293.088 276.544 292.984L276.209 292.063Z" fill="#361B7C"/>
<path d="M295.687 292.064C295.625 291.892 295.752 291.71 295.934 291.71H297.598C297.767 291.71 297.892 291.867 297.855 292.032L297.645 292.953C297.618 293.073 297.511 293.158 297.388 293.158H296.269C296.159 293.158 296.06 293.089 296.022 292.985L295.687 292.064Z" fill="#361B7C"/>
<path d="M275.549 292.106L274.102 271.707H282.656L278.642 292.106H275.549Z" fill="#361B7C"/>
<path d="M292.664 292.102L288.584 274.005L296.349 278.283L295.757 292.102H292.664Z" fill="#361B7C"/>
<path d="M268.903 249.236C268.903 249.924 267.736 251.359 267.308 251.359C266.88 251.359 266.533 250.801 266.533 250.113C266.533 249.425 266.88 248.867 267.308 248.867C267.736 248.867 268.903 248.548 268.903 249.236Z" fill="#4A1D88"/>
<path d="M268.903 251.021C268.903 251.709 267.736 253.144 267.308 253.144C266.88 253.144 266.533 252.586 266.533 251.898C266.533 251.21 266.88 250.652 267.308 250.652C267.736 250.652 268.903 250.333 268.903 251.021Z" fill="#4A1D88"/>
<path d="M268.725 254.223C268.929 254.879 268.24 256.601 267.832 256.73C267.424 256.859 266.927 256.431 266.723 255.775C266.519 255.118 266.685 254.481 267.093 254.352C267.502 254.223 268.521 253.566 268.725 254.223Z" fill="#4A1D88"/>
<path d="M268.59 256.006C268.794 256.662 268.106 258.384 267.697 258.513C267.289 258.642 266.793 258.214 266.589 257.558C266.385 256.901 266.55 256.264 266.959 256.135C267.367 256.006 268.386 255.349 268.59 256.006Z" fill="#56E6FF"/>
<path d="M268.588 257.788C268.792 258.445 268.104 260.166 267.695 260.295C267.287 260.425 266.791 259.997 266.587 259.34C266.383 258.684 266.548 258.047 266.957 257.918C267.365 257.788 268.384 257.132 268.588 257.788Z" fill="#56E6FF"/>
<path d="M270.043 255.783C270.247 256.439 269.559 258.161 269.15 258.29C268.742 258.419 268.246 257.992 268.042 257.335C267.838 256.678 268.003 256.041 268.412 255.912C268.82 255.783 269.839 255.126 270.043 255.783Z" fill="#5A5A5B"/>
<path d="M277.829 248.798C277.829 249.486 278.996 250.921 279.424 250.921C279.852 250.921 280.199 250.363 280.199 249.675C280.199 248.986 279.852 248.429 279.424 248.429C278.996 248.429 277.829 248.11 277.829 248.798Z" fill="#4A1D88"/>
<path d="M277.829 250.581C277.829 251.269 278.996 252.704 279.424 252.704C279.852 252.704 280.199 252.146 280.199 251.458C280.199 250.77 279.852 250.212 279.424 250.212C278.996 250.212 277.829 249.893 277.829 250.581Z" fill="#4A1D88"/>
<path d="M277.748 253.782C277.544 254.438 278.232 256.16 278.641 256.289C279.049 256.418 279.545 255.991 279.749 255.334C279.953 254.677 279.788 254.04 279.379 253.911C278.971 253.782 277.952 253.125 277.748 253.782Z" fill="#4A1D88"/>
<path d="M277.748 255.567C277.544 256.224 278.232 257.945 278.641 258.074C279.049 258.203 279.545 257.776 279.749 257.119C279.953 256.463 279.788 255.826 279.379 255.696C278.971 255.567 277.952 254.911 277.748 255.567Z" fill="#56E6FF"/>
<path d="M277.744 257.347C277.54 258.004 278.228 259.725 278.637 259.854C279.045 259.983 279.541 259.556 279.745 258.899C279.949 258.243 279.784 257.606 279.375 257.476C278.967 257.347 277.948 256.69 277.744 257.347Z" fill="#56E6FF"/>
<path d="M276.494 255.344C276.29 256 276.978 257.722 277.387 257.851C277.795 257.98 278.291 257.552 278.495 256.896C278.699 256.239 278.534 255.602 278.125 255.473C277.717 255.344 276.698 254.687 276.494 255.344Z" fill="#DDE8EF"/>
<path d="M277.657 252.365C277.657 253.053 278.825 254.487 279.252 254.487C279.68 254.487 280.027 253.93 280.027 253.241C280.027 252.553 279.68 251.996 279.252 251.996C278.825 251.996 277.657 251.677 277.657 252.365Z" fill="#4A1D88"/>
<path d="M269.056 252.799C269.056 253.487 267.888 254.922 267.46 254.922C267.032 254.922 266.686 254.364 266.686 253.676C266.686 252.988 267.032 252.43 267.46 252.43C267.888 252.43 269.056 252.111 269.056 252.799Z" fill="#4A1D88"/>
<path fill-rule="evenodd" clip-rule="evenodd" d="M279.168 245.882C280.74 245.326 281.313 242.061 281.313 239.164C281.313 235.41 279.894 232.484 278.596 232.484C277.534 232.484 277.565 234.265 277.612 236.966C277.622 237.569 277.633 238.218 277.633 238.903C277.48 240.039 277.237 241.055 277.027 241.934C276.933 242.328 276.845 242.695 276.775 243.032C275.703 242.392 274.426 242.093 273.105 242.093C271.915 242.093 270.845 242.335 269.954 242.85C269.891 242.564 269.818 242.259 269.741 241.935L269.741 241.935C269.53 241.056 269.287 240.04 269.134 238.904C269.134 238.219 269.146 237.57 269.156 236.967L269.156 236.967C269.203 234.265 269.233 232.485 268.172 232.485C266.874 232.485 265.455 235.411 265.455 239.165C265.455 242.079 266.035 245.367 267.628 245.893C267.357 246.748 267.21 247.757 267.21 248.932C267.21 249.567 267.176 250.458 267.136 251.526C266.87 258.532 266.317 273.153 273.105 273.153C280.157 273.153 279.85 257.369 279.721 250.743C279.707 250.019 279.695 249.405 279.695 248.932C279.695 247.752 279.506 246.739 279.168 245.882Z" fill="#4A1D88"/>
<path fill-rule="evenodd" clip-rule="evenodd" d="M278.002 248.596C278.356 248.093 278.556 247.524 278.556 246.923C278.556 244.857 276.202 243.183 273.299 243.183C270.395 243.183 268.041 244.857 268.041 246.923C268.041 247.537 268.25 248.118 268.619 248.629C268.174 249.203 268.174 249.943 268.174 250.75C268.174 252.575 270.479 253.772 273.323 253.772C276.168 253.772 278.473 252.575 278.473 250.75C278.473 249.927 278.473 249.175 278.002 248.596Z" fill="#4A1D88"/>
<path d="M280.579 239.299C280.579 241.213 278.409 244.182 278.264 243.696C278.12 243.21 278.559 242.521 278.264 239.482C277.969 236.442 278.132 233.199 278.796 233.139C279.074 233.113 280.451 236.199 280.579 239.299Z" fill="#4A1D88"/>
<path d="M280.687 239.871C280.687 241.784 278.516 244.754 278.372 244.268C278.227 243.781 278.667 243.093 278.372 240.053C278.077 237.013 278.239 233.771 278.904 233.71C279.181 233.685 280.558 236.77 280.687 239.871Z" fill="#4A1D88"/>
<path d="M266.057 239.299C266.057 241.213 268.228 244.182 268.372 243.696C268.517 243.209 268.077 242.521 268.372 239.481C268.668 236.441 268.505 233.199 267.84 233.138C267.563 233.113 266.186 236.199 266.057 239.299Z" fill="#4A1D88"/>
<path d="M265.94 240.098C265.94 242.011 268.111 244.981 268.255 244.494C268.4 244.008 267.96 243.32 268.255 240.28C268.55 237.24 268.388 233.998 267.723 233.937C267.446 233.912 266.069 236.997 265.94 240.098Z" fill="#4A1D88"/>
<path d="M275.31 250.395C275.31 250.962 274.437 251.421 273.36 251.421C272.283 251.421 271.41 250.962 271.41 250.395C271.41 249.828 272.283 247.451 273.36 247.451C274.437 247.451 275.31 249.828 275.31 250.395Z" fill="#4A1D88"/>
<path d="M273.354 248.447C274.366 248.468 274.589 249.144 274.724 249.337C274.859 249.53 274.693 250.178 273.354 250.036C272.325 250 271.763 249.792 271.955 249.369C271.955 249.369 272.342 248.427 273.354 248.447Z" fill="#4A1D88"/>
<path d="M274.467 249.305C274.534 249.429 274.034 249.787 273.862 249.838C273.617 249.911 273.339 250.002 273.325 249.976C273.312 249.951 273.586 249.776 273.786 249.608C273.985 249.44 274.4 249.18 274.467 249.305Z" fill="#4A1D88"/>
<path d="M272.244 249.302C272.176 249.427 272.676 249.785 272.849 249.836C273.094 249.908 273.372 249.999 273.386 249.974C273.399 249.949 273.125 249.773 272.925 249.605C272.726 249.437 272.311 249.177 272.244 249.302Z" fill="#4A1D88"/>
<path d="M298.476 259.375C292.36 256.774 266.998 260.977 266.998 260.977C266.998 260.977 267.961 270.243 271.736 274.218C277.062 279.826 297.227 274.218 297.227 274.218C297.227 274.218 302.122 271.224 302.488 268.096C302.85 264.994 301.004 260.45 298.476 259.375Z" fill="#56E6FF"/>
<path d="M276.08 263.348L279.634 259.334L280.818 259.268L276.08 263.348Z" fill="#59D9EF"/>
<path d="M268.839 260.172C268.839 260.86 267.672 262.294 267.244 262.294C266.816 262.294 266.469 261.737 266.469 261.048C266.469 260.36 266.816 259.803 267.244 259.803C267.672 259.803 268.839 259.484 268.839 260.172Z" fill="#361B7C"/>
<path d="M269.105 261.885C269.105 262.573 267.937 264.008 267.509 264.008C267.081 264.008 266.734 263.45 266.734 262.762C266.734 262.074 267.081 261.516 267.509 261.516C267.937 261.516 269.105 261.197 269.105 261.885Z" fill="#361B7C"/>
<path d="M269.141 263.735C269.3 264.405 268.495 266.07 268.079 266.169C267.662 266.268 267.196 265.805 267.037 265.136C266.878 264.466 267.087 263.843 267.503 263.744C267.92 263.646 268.982 263.066 269.141 263.735Z" fill="#361B7C"/>
<path d="M269.666 266.213C269.825 266.882 269.02 268.547 268.604 268.646C268.188 268.745 267.721 268.282 267.562 267.613C267.404 266.943 267.612 266.32 268.029 266.222C268.445 266.123 269.507 265.543 269.666 266.213Z" fill="#361B7C"/>
<path d="M269.9 267.799C270.275 268.376 270.08 270.215 269.721 270.448C269.362 270.682 268.767 270.403 268.392 269.827C268.016 269.25 268.003 268.593 268.362 268.36C268.72 268.126 269.524 267.222 269.9 267.799Z" fill="#361B7C"/>
<path d="M270.41 269.179C270.785 269.755 270.59 271.595 270.231 271.828C269.872 272.062 269.277 271.783 268.902 271.207C268.526 270.63 268.513 269.973 268.871 269.74C269.23 269.506 270.034 268.602 270.41 269.179Z" fill="#361B7C"/>
<path d="M271.595 270.89C271.971 271.466 271.775 273.306 271.416 273.539C271.058 273.773 270.463 273.494 270.087 272.918C269.712 272.341 269.698 271.684 270.057 271.451C270.415 271.217 271.22 270.313 271.595 270.89Z" fill="#361B7C"/>
<path d="M272.253 271.812C272.629 272.388 272.433 274.227 272.075 274.461C271.716 274.694 271.121 274.416 270.745 273.839C270.37 273.263 270.356 272.606 270.715 272.373C271.074 272.139 271.878 271.235 272.253 271.812Z" fill="#361B7C"/>
<path d="M271.019 271.362C271.149 272.038 270.273 273.667 269.853 273.748C269.432 273.829 268.986 273.346 268.856 272.671C268.727 271.995 268.962 271.382 269.382 271.301C269.803 271.22 270.889 270.687 271.019 271.362Z" fill="#361B7C"/>
<path d="M271.507 273.758C271.637 274.434 270.761 276.063 270.341 276.144C269.921 276.225 269.475 275.742 269.345 275.067C269.215 274.391 269.45 273.777 269.871 273.697C270.291 273.616 271.377 273.083 271.507 273.758Z" fill="#361B7C"/>
<path d="M271.958 275.7C272.088 276.376 271.212 278.005 270.792 278.086C270.372 278.166 269.926 277.684 269.796 277.008C269.666 276.333 269.901 275.719 270.322 275.638C270.742 275.558 271.828 275.024 271.958 275.7Z" fill="#361B7C"/>
<path d="M272.136 277.669C272.266 278.345 271.39 279.974 270.97 280.055C270.549 280.135 270.104 279.653 269.974 278.977C269.844 278.302 270.079 277.688 270.499 277.608C270.92 277.527 272.006 276.993 272.136 277.669Z" fill="#361B7C"/>
<path d="M272.284 279.239C272.414 279.915 271.538 281.544 271.118 281.625C270.698 281.706 270.252 281.223 270.122 280.548C269.992 279.872 270.228 279.259 270.648 279.178C271.068 279.097 272.154 278.564 272.284 279.239Z" fill="#361B7C"/>
<path d="M272.755 281.445C272.885 282.121 272.009 283.75 271.589 283.831C271.169 283.912 270.723 283.429 270.593 282.754C270.463 282.078 270.698 281.465 271.119 281.384C271.539 281.303 272.625 280.77 272.755 281.445Z" fill="#361B7C"/>
<path d="M273.202 283.382C273.332 284.058 272.456 285.687 272.036 285.767C271.616 285.848 271.17 285.366 271.04 284.69C270.91 284.014 271.146 283.401 271.566 283.32C271.986 283.24 273.072 282.706 273.202 283.382Z" fill="#361B7C"/>
<path d="M273.911 285.302C274.041 285.978 273.165 287.607 272.745 287.688C272.325 287.769 271.879 287.286 271.749 286.61C271.619 285.935 271.855 285.321 272.275 285.241C272.695 285.16 273.781 284.626 273.911 285.302Z" fill="#361B7C"/>
<path d="M277.936 274.417C277.807 275.093 278.682 276.722 279.103 276.803C279.523 276.884 279.969 276.401 280.099 275.726C280.228 275.05 279.993 274.437 279.573 274.356C279.153 274.275 278.066 273.742 277.936 274.417Z" fill="#361B7C"/>
<path d="M277.454 276.816C277.324 277.492 278.2 279.121 278.62 279.202C279.04 279.283 279.486 278.8 279.616 278.125C279.746 277.449 279.511 276.836 279.09 276.755C278.67 276.674 277.584 276.141 277.454 276.816Z" fill="#361B7C"/>
<path d="M277.005 278.76C276.875 279.436 277.751 281.065 278.171 281.145C278.591 281.226 279.037 280.744 279.167 280.068C279.297 279.392 279.061 278.779 278.641 278.698C278.221 278.618 277.135 278.084 277.005 278.76Z" fill="#361B7C"/>
<path d="M276.825 280.724C276.695 281.399 277.571 283.028 277.991 283.109C278.411 283.19 278.857 282.708 278.987 282.032C279.117 281.356 278.882 280.743 278.461 280.662C278.041 280.581 276.955 280.048 276.825 280.724Z" fill="#361B7C"/>
<path d="M276.675 282.295C276.545 282.971 277.421 284.6 277.841 284.681C278.261 284.762 278.707 284.279 278.837 283.604C278.967 282.928 278.731 282.315 278.311 282.234C277.891 282.153 276.805 281.62 276.675 282.295Z" fill="#361B7C"/>
<path d="M276.2 284.498C276.07 285.174 276.946 286.803 277.366 286.884C277.786 286.965 278.232 286.482 278.362 285.806C278.492 285.131 278.257 284.517 277.836 284.437C277.416 284.356 276.33 283.823 276.2 284.498Z" fill="#361B7C"/>
<path d="M275.759 286.441C275.629 287.117 276.505 288.746 276.925 288.827C277.345 288.908 277.791 288.425 277.921 287.75C278.051 287.074 277.815 286.461 277.395 286.38C276.975 286.299 275.889 285.766 275.759 286.441Z" fill="#361B7C"/>
<path d="M275.052 288.356C274.922 289.032 275.797 290.661 276.218 290.742C276.638 290.822 277.084 290.34 277.214 289.664C277.344 288.989 277.108 288.375 276.688 288.295C276.268 288.214 275.182 287.68 275.052 288.356Z" fill="#361B7C"/>
<path d="M299.259 273.886C299.129 274.562 300.005 276.191 300.425 276.272C300.845 276.353 301.291 275.87 301.421 275.194C301.551 274.519 301.315 273.905 300.895 273.825C300.475 273.744 299.389 273.21 299.259 273.886Z" fill="#361B7C"/>
<path d="M298.776 276.285C298.646 276.961 299.522 278.59 299.942 278.671C300.363 278.751 300.809 278.269 300.938 277.593C301.068 276.918 300.833 276.304 300.413 276.224C299.992 276.143 298.906 275.609 298.776 276.285Z" fill="#361B7C"/>
<path d="M298.327 278.229C298.197 278.904 299.073 280.533 299.493 280.614C299.913 280.695 300.359 280.213 300.489 279.537C300.619 278.861 300.384 278.248 299.963 278.167C299.543 278.086 298.457 277.553 298.327 278.229Z" fill="#361B7C"/>
<path d="M298.147 280.192C298.018 280.868 298.893 282.497 299.313 282.578C299.734 282.659 300.18 282.176 300.31 281.501C300.439 280.825 300.204 280.212 299.784 280.131C299.363 280.05 298.277 279.517 298.147 280.192Z" fill="#361B7C"/>
<path d="M297.999 281.767C297.869 282.442 298.745 284.071 299.165 284.152C299.585 284.233 300.031 283.751 300.161 283.075C300.291 282.399 300.056 281.786 299.635 281.705C299.215 281.624 298.129 281.091 297.999 281.767Z" fill="#361B7C"/>
<path d="M297.522 283.967C297.393 284.643 298.268 286.272 298.688 286.353C299.109 286.433 299.555 285.951 299.685 285.275C299.814 284.6 299.579 283.986 299.159 283.905C298.738 283.825 297.652 283.291 297.522 283.967Z" fill="#361B7C"/>
<path d="M297.081 285.91C296.951 286.586 297.827 288.215 298.247 288.296C298.667 288.377 299.113 287.894 299.243 287.218C299.373 286.543 299.138 285.929 298.717 285.849C298.297 285.768 297.211 285.235 297.081 285.91Z" fill="#361B7C"/>
<path d="M296.374 287.827C296.244 288.503 297.12 290.132 297.54 290.213C297.96 290.294 298.406 289.811 298.536 289.136C298.666 288.46 298.431 287.847 298.01 287.766C297.59 287.685 296.504 287.152 296.374 287.827Z" fill="#361B7C"/>
<path d="M290.194 260.387C289.506 260.387 288.071 259.22 288.071 258.792C288.071 258.364 288.629 258.017 289.317 258.017C290.005 258.017 290.563 258.364 290.563 258.792C290.563 259.22 290.882 260.387 290.194 260.387Z" fill="#361B7C"/>
<path d="M298.881 260.911C298.198 260.831 296.909 259.504 296.959 259.079C297.009 258.654 297.604 258.374 298.287 258.455C298.97 258.535 299.484 258.944 299.434 259.369C299.384 259.794 299.565 260.991 298.881 260.911Z" fill="#361B7C"/>
<path d="M286.51 276.967C285.822 276.967 284.387 275.8 284.387 275.372C284.387 274.944 284.945 274.597 285.633 274.597C286.322 274.597 286.879 274.944 286.879 275.372C286.879 275.8 287.198 276.967 286.51 276.967Z" fill="#361B7C"/>
<path d="M288.073 276.837C287.384 276.837 285.95 275.67 285.95 275.242C285.95 274.814 286.508 274.467 287.196 274.467C287.884 274.467 288.442 274.814 288.442 275.242C288.442 275.67 288.761 276.837 288.073 276.837Z" fill="#361B7C"/>
<path d="M289.391 276.707C288.703 276.707 287.268 275.54 287.268 275.112C287.268 274.684 287.826 274.337 288.514 274.337C289.202 274.337 289.76 274.684 289.76 275.112C289.76 275.54 290.079 276.707 289.391 276.707Z" fill="#361B7C"/>
<path d="M301.907 267.319C301.312 267.665 300.655 269.398 300.868 269.77C301.081 270.141 301.736 270.162 302.331 269.817C302.925 269.471 303.234 268.89 303.021 268.519C302.807 268.147 302.501 266.974 301.907 267.319Z" fill="#361B7C"/>
<path d="M300.694 265.795C300.68 266.483 301.819 267.945 302.247 267.956C302.675 267.967 303.034 267.419 303.048 266.731C303.061 266.044 302.726 265.478 302.297 265.467C301.869 265.456 300.708 265.108 300.694 265.795Z" fill="#361B7C"/>
<path d="M300.075 263.855C300.061 264.542 301.2 266.005 301.628 266.015C302.056 266.026 302.415 265.478 302.429 264.79C302.442 264.103 302.106 263.537 301.678 263.526C301.25 263.515 300.089 263.167 300.075 263.855Z" fill="#361B7C"/>
<path d="M286.986 260.474C286.33 260.678 284.608 259.989 284.479 259.581C284.35 259.172 284.778 258.676 285.434 258.472C286.091 258.268 286.728 258.434 286.857 258.842C286.986 259.25 287.643 260.27 286.986 260.474Z" fill="#361B7C"/>
<path d="M295.69 260.622C295.014 260.748 293.385 259.864 293.304 259.443C293.223 259.023 293.706 258.579 294.381 258.453C295.057 258.327 295.671 258.566 295.751 258.987C295.832 259.407 296.366 260.496 295.69 260.622Z" fill="#361B7C"/>
<path d="M283.305 277.057C282.648 277.261 280.927 276.572 280.798 276.164C280.668 275.755 281.096 275.259 281.752 275.055C282.409 274.851 283.046 275.016 283.175 275.425C283.304 275.833 283.961 276.853 283.305 277.057Z" fill="#361B7C"/>
<path d="M301.225 268.633C300.631 268.979 299.973 270.712 300.186 271.084C300.4 271.455 301.055 271.476 301.649 271.13C302.243 270.785 302.552 270.204 302.339 269.832C302.126 269.461 301.819 268.288 301.225 268.633Z" fill="#361B7C"/>
<path d="M285.209 260.474C284.552 260.678 282.831 259.989 282.702 259.581C282.573 259.172 283 258.676 283.657 258.472C284.313 258.268 284.95 258.434 285.08 258.842C285.209 259.25 285.865 260.27 285.209 260.474Z" fill="#361B7C"/>
<path d="M293.922 260.413C293.246 260.539 291.617 259.655 291.536 259.234C291.456 258.813 291.938 258.37 292.614 258.244C293.29 258.118 293.903 258.357 293.984 258.777C294.065 259.198 294.598 260.287 293.922 260.413Z" fill="#361B7C"/>
<path d="M281.519 277.057C280.863 277.261 279.142 276.572 279.012 276.164C278.883 275.755 279.311 275.259 279.967 275.055C280.624 274.851 281.261 275.016 281.39 275.425C281.519 275.833 282.176 276.853 281.519 277.057Z" fill="#361B7C"/>
<path d="M300.024 269.945C299.429 270.291 298.772 272.024 298.985 272.396C299.199 272.767 299.853 272.788 300.448 272.443C301.042 272.097 301.351 271.516 301.138 271.144C300.925 270.773 300.618 269.6 300.024 269.945Z" fill="#361B7C"/>
<path d="M283.424 260.474C282.767 260.678 281.046 259.989 280.917 259.581C280.787 259.172 281.215 258.676 281.872 258.472C282.528 258.268 283.165 258.434 283.294 258.842C283.424 259.25 284.08 260.27 283.424 260.474Z" fill="#361B7C"/>
<path d="M292.157 260.204C291.481 260.33 289.851 259.445 289.771 259.025C289.69 258.604 290.172 258.161 290.848 258.035C291.524 257.909 292.138 258.147 292.218 258.568C292.299 258.989 292.832 260.078 292.157 260.204Z" fill="#361B7C"/>
<path d="M279.74 277.056C279.083 277.26 277.362 276.572 277.233 276.163C277.104 275.755 277.531 275.259 278.188 275.055C278.845 274.851 279.482 275.016 279.611 275.425C279.74 275.833 280.397 276.852 279.74 277.056Z" fill="#361B7C"/>
<path d="M288.409 260.538C287.72 260.538 286.286 259.37 286.286 258.942C286.286 258.514 286.844 258.167 287.532 258.167C288.22 258.167 288.778 258.514 288.778 258.942C288.778 259.37 289.097 260.538 288.409 260.538Z" fill="#361B7C"/>
<path d="M297.092 260.853C296.409 260.772 295.12 259.446 295.17 259.021C295.22 258.596 295.814 258.316 296.498 258.396C297.181 258.477 297.695 258.886 297.645 259.311C297.595 259.736 297.776 260.933 297.092 260.853Z" fill="#361B7C"/>
<path d="M284.729 277.121C284.041 277.121 282.606 275.953 282.606 275.525C282.606 275.097 283.164 274.75 283.852 274.75C284.54 274.75 285.098 275.097 285.098 275.525C285.098 275.953 285.417 277.121 284.729 277.121Z" fill="#361B7C"/>
<path d="M302.413 258.584C303.915 257.562 304.972 259.305 304.09 260.205C304.28 260.954 303.557 261.669 302.822 261.593C302.726 262.195 302.032 262.679 301.44 262.57C301.236 263.35 300.258 263.826 299.539 263.443C298.183 264.36 296.959 262.442 298.233 261.43C298.021 260.612 298.486 259.886 299.263 259.595C299.462 258.749 300.4 258.315 301.185 258.693C301.509 258.39 302.046 258.286 302.413 258.584Z" fill="#361B7C"/>
<path d="M273.049 292.109L269.232 271.709H280.288L276.142 292.109H273.049Z" fill="#361B7C"/>
<path d="M295.425 292.107L290.227 271.707H300.821L298.518 292.107H295.425Z" fill="#361B7C"/>
<path d="M291.017 278.482C289.124 276.849 289.635 272.23 289.635 272.23L298.98 271.177L299.835 279.205L295.229 279.732C295.229 279.732 292.316 279.602 291.017 278.482Z" fill="#361B7C"/>
<path d="M292.6 275.633C292.795 276.293 292.081 277.999 291.67 278.12C291.26 278.241 290.769 277.804 290.575 277.144C290.38 276.484 290.555 275.851 290.966 275.73C291.376 275.609 292.406 274.973 292.6 275.633Z" fill="#361B7C"/>
<path d="M293.317 277.974C293.511 278.634 292.797 280.34 292.386 280.461C291.976 280.582 291.485 280.145 291.291 279.485C291.096 278.825 291.272 278.192 291.682 278.071C292.093 277.95 293.122 277.314 293.317 277.974Z" fill="#361B7C"/>
<path d="M293.953 279.864C294.148 280.524 293.434 282.23 293.023 282.351C292.613 282.472 292.122 282.035 291.928 281.375C291.733 280.715 291.908 280.082 292.319 279.961C292.729 279.84 293.759 279.204 293.953 279.864Z" fill="#361B7C"/>
<path d="M294.327 281.802C294.521 282.463 293.807 284.169 293.396 284.289C292.986 284.41 292.495 283.973 292.301 283.313C292.106 282.653 292.281 282.02 292.692 281.899C293.102 281.778 294.132 281.142 294.327 281.802Z" fill="#361B7C"/>
<path d="M294.621 283.351C294.816 284.011 294.102 285.717 293.691 285.838C293.281 285.959 292.79 285.522 292.596 284.862C292.401 284.202 292.576 283.569 292.987 283.448C293.397 283.327 294.427 282.691 294.621 283.351Z" fill="#361B7C"/>
<path d="M295.303 285.499C295.498 286.159 294.783 287.865 294.373 287.986C293.962 288.107 293.472 287.67 293.277 287.01C293.083 286.35 293.258 285.717 293.668 285.596C294.079 285.475 295.109 284.839 295.303 285.499Z" fill="#361B7C"/>
<path d="M295.932 287.39C296.126 288.05 295.412 289.756 295.002 289.877C294.591 289.997 294.101 289.56 293.906 288.9C293.712 288.24 293.887 287.607 294.297 287.486C294.708 287.365 295.737 286.729 295.932 287.39Z" fill="#361B7C"/>
<path d="M296.827 289.229C297.021 289.889 296.307 291.595 295.896 291.716C295.486 291.837 294.995 291.4 294.801 290.74C294.606 290.08 294.781 289.446 295.192 289.325C295.602 289.205 296.632 288.569 296.827 289.229Z" fill="#361B7C"/>
<path d="M295.62 292.568C294.028 292.752 293.317 293.028 292.133 292.568C289.632 283.947 289.237 280.92 287.329 275.919C286.262 275.755 284.843 275.762 283.775 275.919C282.196 278.42 281.604 288.159 279.498 292.568C277.831 292.775 275.221 292.107 275.221 292.107L276.339 274.34L291.54 274.932C291.54 274.932 294.041 286.777 295.62 292.568Z" fill="#361B7C"/>
<path d="M298.251 288.553H291.012L290.881 288.092L298.448 287.895L298.251 288.553Z" fill="#361B7C"/>
<path d="M280.882 288.551H273.875L273.709 288.091L281.013 287.893L280.882 288.551Z" fill="#361B7C"/>
<path d="M280.29 254.858C276.868 255.187 266.537 255.516 265.287 256.043C264.978 258.51 266.056 259.827 265.747 262.294C265.439 264.761 265.671 268.271 266.537 272.034C268.345 279.895 269.498 285.655 271.933 291.973C275.092 292.499 272.986 292.367 276.671 292.17C278.382 288.617 278.382 280.522 280.093 277.627C281.692 277.145 288.47 277.099 289.174 278.614C290.885 282.299 294.241 292.084 294.702 292.17C297.531 292.696 296.61 292.433 299.44 292.17C302.203 281.904 301.743 278.943 301.743 272.494C301.743 271.195 302.985 269.471 303.322 268.217C304.059 265.477 301.709 265.384 302.927 262.821C303.551 261.507 304.319 261.745 304.836 260.386C305.311 259.137 305.544 259.15 304.836 258.017C303.863 256.461 302.852 257.564 301.019 257.622C299.436 257.673 297.334 257.622 297.334 257.622C297.334 257.622 282.593 256.043 280.29 258.017C279.438 258.748 280.777 255.87 280.29 254.858Z" fill="#361B7C"/>
<path d="M276.477 262.752L280.03 258.146C280.888 257.577 281.425 257.415 282.465 257.356L276.477 262.752Z" fill="#361B7C"/>
<path d="M265.562 256.518L280.596 255.623C280.98 255.6 281.28 255.282 281.28 254.897C281.28 254.482 280.933 254.151 280.518 254.171L265.475 254.887C265.04 254.908 264.697 255.267 264.697 255.703C264.697 256.173 265.093 256.546 265.562 256.518Z" fill="#361B7C"/>
<path d="M300.362 288.55H293.123L292.926 288.089L300.559 287.892L300.362 288.55Z" fill="#361B7C"/>
<path d="M277.727 288.55H270.72L270.555 288.09L277.859 287.892L277.727 288.55Z" fill="#361B7C"/>
<path d="M273.51 258.216H269.233C269.015 258.216 268.838 258.393 268.838 258.611V262.114C268.838 262.326 269.005 262.5 269.217 262.508L273.495 262.675C273.719 262.684 273.905 262.505 273.905 262.28V258.611C273.905 258.393 273.728 258.216 273.51 258.216Z" fill="#361B7C"/>
<path d="M276.077 258.149H274.893C274.675 258.149 274.498 258.325 274.498 258.543V259.531C274.498 259.743 274.665 259.917 274.877 259.925L276.061 259.974C276.285 259.983 276.472 259.804 276.472 259.58V258.543C276.472 258.325 276.295 258.149 276.077 258.149Z" fill="#361B7C"/>
<path d="M276.079 260.254H274.895C274.677 260.254 274.5 260.431 274.5 260.649V262.271C274.5 262.48 274.664 262.653 274.873 262.665L276.057 262.731C276.284 262.744 276.474 262.564 276.474 262.337V260.649C276.474 260.431 276.297 260.254 276.079 260.254Z" fill="#361B7C"/>
<circle cx="237.665" cy="238.323" r="9.17258" fill="url(#paint4_linear_268_20732)"/>
<path d="M242.538 259.779C242.449 260.243 243.05 261.361 243.338 261.417C243.627 261.472 243.933 261.141 244.022 260.677C244.112 260.213 243.95 259.792 243.661 259.736C243.373 259.681 242.627 259.315 242.538 259.779Z" fill="#361B7C"/>
<path d="M242.208 261.426C242.118 261.89 242.72 263.009 243.008 263.064C243.297 263.119 243.603 262.788 243.692 262.324C243.781 261.86 243.62 261.439 243.331 261.384C243.043 261.328 242.297 260.962 242.208 261.426Z" fill="#361B7C"/>
<path d="M241.897 262.758C241.808 263.222 242.409 264.341 242.698 264.396C242.986 264.452 243.293 264.121 243.382 263.657C243.471 263.193 243.309 262.772 243.021 262.716C242.732 262.661 241.986 262.294 241.897 262.758Z" fill="#361B7C"/>
<path d="M241.774 264.109C241.685 264.573 242.286 265.691 242.575 265.747C242.863 265.802 243.17 265.471 243.259 265.007C243.348 264.543 243.186 264.122 242.898 264.067C242.609 264.011 241.863 263.645 241.774 264.109Z" fill="#361B7C"/>
<path d="M241.672 265.186C241.583 265.65 242.185 266.769 242.473 266.824C242.762 266.88 243.068 266.548 243.157 266.084C243.246 265.62 243.085 265.199 242.796 265.144C242.507 265.088 241.762 264.722 241.672 265.186Z" fill="#361B7C"/>
<path d="M241.346 266.701C241.257 267.165 241.858 268.283 242.147 268.339C242.436 268.394 242.742 268.063 242.831 267.599C242.92 267.135 242.758 266.714 242.47 266.658C242.181 266.603 241.435 266.237 241.346 266.701Z" fill="#361B7C"/>
<path d="M241.042 268.033C240.952 268.497 241.554 269.616 241.842 269.671C242.131 269.727 242.437 269.396 242.526 268.932C242.615 268.468 242.454 268.046 242.165 267.991C241.877 267.936 241.131 267.569 241.042 268.033Z" fill="#361B7C"/>
<path d="M240.555 269.35C240.466 269.814 241.067 270.932 241.356 270.988C241.645 271.043 241.951 270.712 242.04 270.248C242.129 269.784 241.967 269.363 241.679 269.307C241.39 269.252 240.644 268.886 240.555 269.35Z" fill="#361B7C"/>
<path d="M249.174 260.644C249.308 261.097 248.818 262.268 248.536 262.351C248.254 262.434 247.917 262.134 247.783 261.681C247.65 261.228 247.77 260.793 248.052 260.71C248.334 260.627 249.041 260.19 249.174 260.644Z" fill="#361B7C"/>
<path d="M249.669 262.251C249.802 262.704 249.312 263.875 249.03 263.958C248.748 264.041 248.411 263.741 248.278 263.288C248.144 262.835 248.264 262.4 248.546 262.317C248.828 262.234 249.535 261.797 249.669 262.251Z" fill="#361B7C"/>
<path d="M250.104 263.548C250.238 264.002 249.747 265.173 249.465 265.256C249.183 265.339 248.847 265.039 248.713 264.586C248.58 264.133 248.7 263.698 248.982 263.615C249.264 263.532 249.971 263.095 250.104 263.548Z" fill="#361B7C"/>
<path d="M250.36 264.879C250.494 265.332 250.003 266.504 249.721 266.587C249.439 266.67 249.103 266.37 248.969 265.917C248.835 265.463 248.956 265.029 249.238 264.946C249.519 264.863 250.226 264.426 250.36 264.879Z" fill="#361B7C"/>
<path d="M250.565 265.944C250.699 266.398 250.208 267.569 249.926 267.652C249.644 267.735 249.308 267.435 249.174 266.982C249.041 266.529 249.161 266.094 249.443 266.011C249.725 265.928 250.432 265.491 250.565 265.944Z" fill="#361B7C"/>
<path d="M251.032 267.418C251.165 267.871 250.675 269.042 250.393 269.125C250.111 269.208 249.774 268.908 249.641 268.455C249.507 268.002 249.628 267.567 249.909 267.484C250.191 267.401 250.898 266.964 251.032 267.418Z" fill="#361B7C"/>
<path d="M251.464 268.716C251.597 269.169 251.107 270.34 250.825 270.423C250.543 270.506 250.206 270.206 250.073 269.753C249.939 269.3 250.059 268.865 250.341 268.782C250.623 268.699 251.33 268.262 251.464 268.716Z" fill="#361B7C"/>
<path d="M252.077 269.979C252.21 270.432 251.72 271.603 251.438 271.686C251.156 271.769 250.819 271.469 250.686 271.016C250.552 270.563 250.673 270.128 250.954 270.045C251.236 269.962 251.943 269.526 252.077 269.979Z" fill="#361B7C"/>
<path d="M237.553 271.897C237.51 271.779 237.597 271.655 237.723 271.655H238.865C238.981 271.655 239.067 271.762 239.041 271.876L238.898 272.508C238.879 272.59 238.806 272.649 238.721 272.649H237.953C237.877 272.649 237.809 272.601 237.783 272.53L237.553 271.897Z" fill="#361B7C"/>
<path d="M250.928 271.898C250.885 271.78 250.972 271.655 251.098 271.655H252.24C252.356 271.655 252.442 271.763 252.416 271.876L252.273 272.508C252.254 272.591 252.181 272.649 252.096 272.649H251.328C251.252 272.649 251.184 272.602 251.158 272.53L250.928 271.898Z" fill="#361B7C"/>
<path d="M239.451 271.897C239.409 271.779 239.496 271.654 239.621 271.654H240.764C240.88 271.654 240.965 271.762 240.94 271.875L240.796 272.508C240.777 272.59 240.704 272.648 240.62 272.648H239.851C239.775 272.648 239.707 272.601 239.681 272.529L239.451 271.897Z" fill="#361B7C"/>
<path d="M252.828 271.897C252.786 271.779 252.873 271.655 252.998 271.655H254.14C254.256 271.655 254.342 271.762 254.317 271.875L254.173 272.508C254.154 272.59 254.081 272.649 253.997 272.649H253.228C253.152 272.649 253.084 272.601 253.058 272.53L252.828 271.897Z" fill="#361B7C"/>
<path d="M239 271.926L238.006 257.919H243.88L241.124 271.926H239Z" fill="#361B7C"/>
<path d="M250.753 271.923L247.951 259.497L253.283 262.434L252.876 271.923H250.753Z" fill="#361B7C"/>
<path d="M234.436 242.49C234.436 242.962 233.635 243.947 233.341 243.947C233.047 243.947 232.809 243.564 232.809 243.092C232.809 242.619 233.047 242.236 233.341 242.236C233.635 242.236 234.436 242.017 234.436 242.49Z" fill="#4A1D88"/>
<path d="M234.436 243.715C234.436 244.188 233.635 245.173 233.341 245.173C233.047 245.173 232.809 244.79 232.809 244.317C232.809 243.845 233.047 243.462 233.341 243.462C233.635 243.462 234.436 243.243 234.436 243.715Z" fill="#4A1D88"/>
<path d="M234.315 245.914C234.455 246.365 233.982 247.547 233.702 247.635C233.422 247.724 233.081 247.43 232.941 246.98C232.8 246.529 232.914 246.091 233.195 246.003C233.475 245.914 234.175 245.463 234.315 245.914Z" fill="#4A1D88"/>
<path d="M234.221 247.138C234.361 247.589 233.889 248.771 233.608 248.859C233.328 248.948 232.987 248.655 232.847 248.204C232.707 247.753 232.82 247.316 233.101 247.227C233.381 247.138 234.081 246.687 234.221 247.138Z" fill="#56E6FF"/>
<path d="M234.221 248.362C234.361 248.813 233.889 249.995 233.608 250.083C233.328 250.172 232.987 249.879 232.847 249.428C232.707 248.977 232.82 248.54 233.101 248.451C233.381 248.362 234.081 247.911 234.221 248.362Z" fill="#56E6FF"/>
<path d="M235.221 246.985C235.361 247.436 234.889 248.618 234.608 248.707C234.328 248.795 233.987 248.502 233.847 248.051C233.707 247.6 233.82 247.163 234.101 247.074C234.381 246.985 235.081 246.534 235.221 246.985Z" fill="#5A5A5B"/>
<path d="M240.568 242.189C240.568 242.661 241.369 243.646 241.663 243.646C241.957 243.646 242.195 243.263 242.195 242.791C242.195 242.318 241.957 241.935 241.663 241.935C241.369 241.935 240.568 241.716 240.568 242.189Z" fill="#4A1D88"/>
<path d="M240.568 243.413C240.568 243.886 241.369 244.871 241.663 244.871C241.957 244.871 242.195 244.488 242.195 244.015C242.195 243.543 241.957 243.16 241.663 243.16C241.369 243.16 240.568 242.941 240.568 243.413Z" fill="#4A1D88"/>
<path d="M240.511 245.611C240.371 246.062 240.844 247.244 241.124 247.332C241.405 247.421 241.746 247.128 241.886 246.677C242.026 246.226 241.912 245.788 241.632 245.7C241.351 245.611 240.651 245.16 240.511 245.611Z" fill="#4A1D88"/>
<path d="M240.511 246.837C240.371 247.288 240.844 248.47 241.124 248.558C241.405 248.647 241.746 248.353 241.886 247.903C242.026 247.452 241.912 247.014 241.632 246.926C241.351 246.837 240.651 246.386 240.511 246.837Z" fill="#56E6FF"/>
<path d="M240.507 248.059C240.367 248.51 240.84 249.692 241.12 249.781C241.401 249.869 241.742 249.576 241.882 249.125C242.022 248.674 241.908 248.237 241.628 248.148C241.347 248.059 240.647 247.608 240.507 248.059Z" fill="#56E6FF"/>
<path d="M239.652 246.683C239.512 247.134 239.984 248.316 240.265 248.405C240.545 248.494 240.886 248.2 241.026 247.749C241.166 247.298 241.053 246.861 240.772 246.772C240.492 246.684 239.792 246.233 239.652 246.683Z" fill="#DDE8EF"/>
<path d="M240.451 244.638C240.451 245.11 241.252 246.095 241.546 246.095C241.84 246.095 242.078 245.712 242.078 245.24C242.078 244.767 241.84 244.384 241.546 244.384C241.252 244.384 240.451 244.165 240.451 244.638Z" fill="#4A1D88"/>
<path d="M234.544 244.936C234.544 245.409 233.742 246.394 233.448 246.394C233.154 246.394 232.916 246.011 232.916 245.538C232.916 245.066 233.154 244.683 233.448 244.683C233.742 244.683 234.544 244.464 234.544 244.936Z" fill="#4A1D88"/>
<path fill-rule="evenodd" clip-rule="evenodd" d="M241.484 240.188C242.566 239.809 242.96 237.564 242.96 235.574C242.96 232.996 241.985 230.987 241.094 230.987C240.365 230.987 240.386 232.209 240.418 234.064V234.064V234.064C240.425 234.478 240.433 234.924 240.433 235.394C240.328 236.174 240.161 236.872 240.017 237.476L240.017 237.476L240.017 237.476C239.952 237.747 239.892 237.999 239.844 238.231C239.107 237.791 238.229 237.585 237.321 237.585C236.505 237.585 235.77 237.751 235.158 238.104C235.115 237.908 235.065 237.699 235.012 237.477C234.868 236.873 234.701 236.175 234.596 235.395C234.596 234.924 234.603 234.479 234.611 234.065V234.065V234.065C234.643 232.21 234.664 230.988 233.935 230.988C233.044 230.988 232.069 232.996 232.069 235.575C232.069 237.575 232.467 239.831 233.561 240.194C233.374 240.781 233.273 241.474 233.273 242.281C233.273 242.717 233.25 243.329 233.222 244.062C233.04 248.872 232.66 258.912 237.321 258.912C242.163 258.912 241.952 248.074 241.864 243.524C241.854 243.027 241.846 242.605 241.846 242.281C241.846 241.471 241.716 240.776 241.484 240.188Z" fill="#4A1D88"/>
<path fill-rule="evenodd" clip-rule="evenodd" d="M240.685 242.05C240.929 241.704 241.066 241.314 241.066 240.901C241.066 239.483 239.45 238.333 237.456 238.333C235.462 238.333 233.846 239.483 233.846 240.901C233.846 241.323 233.989 241.722 234.243 242.073C233.937 242.467 233.938 242.975 233.938 243.529C233.938 244.782 235.521 245.604 237.474 245.604C239.427 245.604 241.01 244.782 241.01 243.529C241.01 242.964 241.01 242.447 240.685 242.05Z" fill="#4A1D88"/>
<path d="M242.454 235.666C242.454 236.981 240.964 239.019 240.865 238.686C240.765 238.352 241.067 237.879 240.865 235.792C240.662 233.704 240.774 231.478 241.23 231.436C241.42 231.419 242.366 233.538 242.454 235.666Z" fill="#4A1D88"/>
<path d="M242.528 236.059C242.528 237.373 241.038 239.412 240.939 239.078C240.84 238.744 241.141 238.271 240.939 236.184C240.736 234.097 240.848 231.871 241.304 231.829C241.495 231.811 242.44 233.93 242.528 236.059Z" fill="#4A1D88"/>
<path d="M232.483 235.666C232.483 236.98 233.974 239.019 234.073 238.685C234.172 238.351 233.87 237.879 234.073 235.791C234.276 233.704 234.164 231.478 233.708 231.436C233.517 231.419 232.572 233.537 232.483 235.666Z" fill="#4A1D88"/>
<path d="M232.403 236.215C232.403 237.529 233.894 239.568 233.993 239.234C234.092 238.9 233.79 238.427 233.993 236.34C234.195 234.252 234.084 232.026 233.627 231.984C233.437 231.967 232.491 234.086 232.403 236.215Z" fill="#4A1D88"/>
<path d="M238.836 243.285C238.836 243.675 238.237 243.99 237.497 243.99C236.758 243.99 236.158 243.675 236.158 243.285C236.158 242.896 236.758 241.264 237.497 241.264C238.237 241.264 238.836 242.896 238.836 243.285Z" fill="#4A1D88"/>
<path d="M237.494 241.948C238.189 241.962 238.342 242.426 238.434 242.559C238.527 242.692 238.413 243.136 237.494 243.039C236.788 243.014 236.401 242.872 236.533 242.581C236.533 242.581 236.799 241.934 237.494 241.948Z" fill="#4A1D88"/>
<path d="M238.258 242.537C238.304 242.622 237.96 242.868 237.842 242.903C237.674 242.953 237.483 243.015 237.473 242.998C237.464 242.981 237.653 242.86 237.79 242.745C237.927 242.629 238.211 242.451 238.258 242.537Z" fill="#4A1D88"/>
<path d="M236.731 242.535C236.685 242.621 237.028 242.866 237.146 242.901C237.314 242.951 237.506 243.013 237.515 242.996C237.524 242.979 237.336 242.858 237.199 242.743C237.062 242.627 236.777 242.449 236.731 242.535Z" fill="#4A1D88"/>
<path d="M254.741 249.451C250.542 247.665 233.127 250.552 233.127 250.552C233.127 250.552 233.788 256.914 236.38 259.644C240.037 263.494 253.883 259.644 253.883 259.644C253.883 259.644 257.245 257.587 257.496 255.44C257.744 253.31 256.477 250.189 254.741 249.451Z" fill="#56E6FF"/>
<path d="M239.363 252.179L241.803 249.423L242.617 249.378L239.363 252.179Z" fill="#59D9EF"/>
<path d="M234.393 249.999C234.393 250.471 233.592 251.456 233.298 251.456C233.004 251.456 232.766 251.073 232.766 250.601C232.766 250.128 233.004 249.745 233.298 249.745C233.592 249.745 234.393 249.526 234.393 249.999Z" fill="#361B7C"/>
<path d="M234.575 251.175C234.575 251.648 233.773 252.633 233.479 252.633C233.185 252.633 232.947 252.25 232.947 251.777C232.947 251.305 233.185 250.922 233.479 250.922C233.773 250.922 234.575 250.703 234.575 251.175Z" fill="#361B7C"/>
<path d="M234.601 252.446C234.71 252.905 234.158 254.049 233.872 254.117C233.586 254.185 233.265 253.867 233.156 253.407C233.047 252.947 233.191 252.52 233.477 252.452C233.763 252.384 234.492 251.986 234.601 252.446Z" fill="#361B7C"/>
<path d="M234.962 254.146C235.071 254.606 234.519 255.75 234.233 255.817C233.947 255.885 233.627 255.568 233.518 255.108C233.409 254.648 233.552 254.22 233.838 254.153C234.124 254.085 234.853 253.687 234.962 254.146Z" fill="#361B7C"/>
<path d="M235.122 255.236C235.379 255.632 235.245 256.894 234.999 257.055C234.753 257.215 234.344 257.024 234.086 256.628C233.828 256.232 233.819 255.781 234.065 255.621C234.312 255.461 234.864 254.84 235.122 255.236Z" fill="#361B7C"/>
<path d="M235.471 256.183C235.729 256.579 235.595 257.842 235.349 258.002C235.102 258.163 234.694 257.972 234.436 257.576C234.178 257.18 234.169 256.729 234.415 256.568C234.661 256.408 235.213 255.787 235.471 256.183Z" fill="#361B7C"/>
<path d="M236.286 257.358C236.544 257.754 236.409 259.017 236.163 259.177C235.917 259.338 235.508 259.147 235.25 258.751C234.992 258.355 234.983 257.904 235.229 257.743C235.476 257.583 236.028 256.962 236.286 257.358Z" fill="#361B7C"/>
<path d="M236.739 257.991C236.997 258.387 236.862 259.65 236.616 259.81C236.37 259.97 235.961 259.779 235.703 259.383C235.446 258.987 235.436 258.537 235.683 258.376C235.929 258.216 236.481 257.595 236.739 257.991Z" fill="#361B7C"/>
<path d="M235.89 257.683C235.979 258.147 235.378 259.265 235.089 259.321C234.801 259.376 234.495 259.045 234.405 258.581C234.316 258.117 234.478 257.696 234.766 257.64C235.055 257.585 235.801 257.219 235.89 257.683Z" fill="#361B7C"/>
<path d="M236.226 259.328C236.315 259.792 235.714 260.91 235.425 260.966C235.137 261.021 234.83 260.69 234.741 260.226C234.652 259.762 234.814 259.341 235.102 259.286C235.391 259.23 236.137 258.864 236.226 259.328Z" fill="#361B7C"/>
<path d="M236.535 260.661C236.624 261.125 236.022 262.244 235.734 262.299C235.445 262.355 235.139 262.023 235.05 261.559C234.961 261.095 235.122 260.674 235.411 260.619C235.7 260.563 236.445 260.197 236.535 260.661Z" fill="#361B7C"/>
<path d="M236.656 262.013C236.745 262.477 236.144 263.596 235.855 263.651C235.566 263.707 235.26 263.376 235.171 262.912C235.082 262.448 235.243 262.027 235.532 261.971C235.821 261.916 236.566 261.549 236.656 262.013Z" fill="#361B7C"/>
<path d="M236.759 263.092C236.848 263.556 236.247 264.674 235.958 264.73C235.67 264.785 235.364 264.454 235.275 263.99C235.185 263.526 235.347 263.105 235.636 263.049C235.924 262.994 236.67 262.628 236.759 263.092Z" fill="#361B7C"/>
<path d="M237.083 264.606C237.173 265.07 236.571 266.189 236.283 266.244C235.994 266.299 235.688 265.968 235.599 265.504C235.51 265.04 235.671 264.619 235.96 264.564C236.248 264.508 236.994 264.142 237.083 264.606Z" fill="#361B7C"/>
<path d="M237.39 265.936C237.479 266.4 236.878 267.519 236.589 267.574C236.301 267.629 235.995 267.298 235.905 266.834C235.816 266.37 235.978 265.949 236.266 265.894C236.555 265.838 237.301 265.472 237.39 265.936Z" fill="#361B7C"/>
<path d="M237.876 267.254C237.966 267.718 237.364 268.837 237.076 268.892C236.787 268.948 236.481 268.617 236.392 268.153C236.303 267.689 236.464 267.267 236.753 267.212C237.041 267.157 237.787 266.79 237.876 267.254Z" fill="#361B7C"/>
<path d="M240.639 259.78C240.55 260.244 241.151 261.363 241.44 261.418C241.729 261.474 242.035 261.143 242.124 260.679C242.213 260.215 242.051 259.794 241.763 259.738C241.474 259.683 240.728 259.316 240.639 259.78Z" fill="#361B7C"/>
<path d="M240.307 261.428C240.218 261.892 240.819 263.01 241.108 263.066C241.396 263.121 241.703 262.79 241.792 262.326C241.881 261.862 241.719 261.441 241.431 261.385C241.142 261.33 240.396 260.964 240.307 261.428Z" fill="#361B7C"/>
<path d="M239.999 262.762C239.909 263.226 240.511 264.345 240.799 264.4C241.088 264.456 241.394 264.124 241.483 263.66C241.572 263.196 241.411 262.775 241.122 262.72C240.834 262.664 240.088 262.298 239.999 262.762Z" fill="#361B7C"/>
<path d="M239.874 264.11C239.784 264.574 240.386 265.693 240.674 265.749C240.963 265.804 241.269 265.473 241.358 265.009C241.447 264.545 241.286 264.124 240.997 264.068C240.709 264.013 239.963 263.646 239.874 264.11Z" fill="#361B7C"/>
<path d="M239.77 265.19C239.681 265.654 240.282 266.772 240.571 266.828C240.859 266.883 241.166 266.552 241.255 266.088C241.344 265.624 241.182 265.203 240.894 265.147C240.605 265.092 239.859 264.726 239.77 265.19Z" fill="#361B7C"/>
<path d="M239.446 266.702C239.357 267.166 239.958 268.285 240.247 268.34C240.535 268.396 240.841 268.065 240.931 267.601C241.02 267.137 240.858 266.716 240.569 266.66C240.281 266.605 239.535 266.238 239.446 266.702Z" fill="#361B7C"/>
<path d="M239.141 268.037C239.052 268.501 239.653 269.619 239.942 269.675C240.23 269.73 240.537 269.399 240.626 268.935C240.715 268.471 240.553 268.05 240.265 267.994C239.976 267.939 239.23 267.573 239.141 268.037Z" fill="#361B7C"/>
<path d="M238.655 269.351C238.566 269.815 239.167 270.934 239.456 270.989C239.744 271.045 240.05 270.714 240.14 270.25C240.229 269.786 240.067 269.365 239.778 269.309C239.49 269.254 238.744 268.887 238.655 269.351Z" fill="#361B7C"/>
<path d="M255.28 259.416C255.191 259.88 255.792 260.998 256.081 261.054C256.369 261.109 256.675 260.778 256.765 260.314C256.854 259.85 256.692 259.429 256.403 259.373C256.115 259.318 255.369 258.952 255.28 259.416Z" fill="#361B7C"/>
<path d="M254.95 261.063C254.861 261.527 255.462 262.645 255.75 262.701C256.039 262.756 256.345 262.425 256.434 261.961C256.524 261.497 256.362 261.076 256.073 261.021C255.785 260.965 255.039 260.599 254.95 261.063Z" fill="#361B7C"/>
<path d="M254.641 262.397C254.552 262.861 255.153 263.98 255.442 264.035C255.73 264.091 256.037 263.76 256.126 263.296C256.215 262.832 256.053 262.41 255.765 262.355C255.476 262.3 254.73 261.933 254.641 262.397Z" fill="#361B7C"/>
<path d="M254.516 263.746C254.427 264.21 255.028 265.328 255.317 265.384C255.605 265.439 255.912 265.108 256.001 264.644C256.09 264.18 255.928 263.759 255.64 263.703C255.351 263.648 254.605 263.282 254.516 263.746Z" fill="#361B7C"/>
<path d="M254.415 264.827C254.325 265.291 254.927 266.409 255.215 266.465C255.504 266.52 255.81 266.189 255.899 265.725C255.988 265.261 255.827 264.84 255.538 264.784C255.25 264.729 254.504 264.363 254.415 264.827Z" fill="#361B7C"/>
<path d="M254.088 266.338C253.999 266.802 254.601 267.92 254.889 267.976C255.178 268.031 255.484 267.7 255.573 267.236C255.662 266.772 255.501 266.351 255.212 266.295C254.924 266.24 254.178 265.874 254.088 266.338Z" fill="#361B7C"/>
<path d="M253.784 267.672C253.695 268.136 254.296 269.254 254.584 269.31C254.873 269.365 255.179 269.034 255.268 268.57C255.358 268.106 255.196 267.685 254.907 267.63C254.619 267.574 253.873 267.208 253.784 267.672Z" fill="#361B7C"/>
<path d="M253.299 268.988C253.21 269.452 253.812 270.571 254.1 270.626C254.389 270.682 254.695 270.351 254.784 269.887C254.873 269.423 254.712 269.002 254.423 268.946C254.134 268.891 253.389 268.524 253.299 268.988Z" fill="#361B7C"/>
<path d="M249.055 250.146C248.583 250.146 247.598 249.345 247.598 249.051C247.598 248.757 247.981 248.519 248.453 248.519C248.926 248.519 249.309 248.757 249.309 249.051C249.309 249.345 249.528 250.146 249.055 250.146Z" fill="#361B7C"/>
<path d="M255.02 250.506C254.551 250.451 253.666 249.54 253.7 249.248C253.734 248.956 254.142 248.764 254.612 248.819C255.081 248.875 255.434 249.156 255.399 249.448C255.365 249.739 255.489 250.561 255.02 250.506Z" fill="#361B7C"/>
<path d="M246.526 261.531C246.053 261.531 245.068 260.729 245.068 260.436C245.068 260.142 245.451 259.904 245.924 259.904C246.396 259.904 246.779 260.142 246.779 260.436C246.779 260.729 246.998 261.531 246.526 261.531Z" fill="#361B7C"/>
<path d="M247.6 261.442C247.128 261.442 246.143 260.64 246.143 260.347C246.143 260.053 246.526 259.814 246.998 259.814C247.471 259.814 247.854 260.053 247.854 260.347C247.854 260.64 248.073 261.442 247.6 261.442Z" fill="#361B7C"/>
<path d="M248.504 261.353C248.032 261.353 247.047 260.551 247.047 260.257C247.047 259.964 247.43 259.725 247.902 259.725C248.375 259.725 248.758 259.964 248.758 260.257C248.758 260.551 248.977 261.353 248.504 261.353Z" fill="#361B7C"/>
<path d="M257.098 254.907C256.69 255.144 256.238 256.334 256.385 256.589C256.531 256.844 256.981 256.859 257.389 256.621C257.797 256.384 258.009 255.985 257.863 255.73C257.716 255.475 257.506 254.669 257.098 254.907Z" fill="#361B7C"/>
<path d="M256.266 253.86C256.256 254.332 257.039 255.336 257.333 255.344C257.627 255.351 257.873 254.975 257.882 254.503C257.892 254.031 257.661 253.642 257.367 253.634C257.073 253.627 256.275 253.388 256.266 253.86Z" fill="#361B7C"/>
<path d="M255.84 252.527C255.831 252.999 256.613 254.004 256.907 254.011C257.201 254.019 257.447 253.642 257.456 253.17C257.466 252.698 257.235 252.309 256.941 252.302C256.647 252.294 255.85 252.055 255.84 252.527Z" fill="#361B7C"/>
<path d="M246.853 250.206C246.403 250.346 245.221 249.873 245.132 249.593C245.043 249.313 245.337 248.972 245.788 248.832C246.239 248.691 246.676 248.805 246.765 249.086C246.853 249.366 247.304 250.066 246.853 250.206Z" fill="#361B7C"/>
<path d="M252.829 250.308C252.364 250.395 251.246 249.787 251.19 249.498C251.135 249.21 251.466 248.905 251.93 248.819C252.394 248.732 252.815 248.896 252.871 249.185C252.926 249.474 253.293 250.221 252.829 250.308Z" fill="#361B7C"/>
<path d="M244.326 261.592C243.875 261.732 242.693 261.26 242.605 260.979C242.516 260.699 242.809 260.358 243.26 260.218C243.711 260.078 244.149 260.192 244.237 260.472C244.326 260.752 244.777 261.452 244.326 261.592Z" fill="#361B7C"/>
<path d="M256.631 255.809C256.223 256.046 255.771 257.236 255.918 257.491C256.064 257.746 256.514 257.761 256.922 257.523C257.33 257.286 257.543 256.887 257.396 256.632C257.25 256.377 257.039 255.572 256.631 255.809Z" fill="#361B7C"/>
<path d="M245.633 250.206C245.182 250.346 244 249.873 243.911 249.593C243.823 249.313 244.116 248.972 244.567 248.832C245.018 248.691 245.455 248.805 245.544 249.086C245.633 249.366 246.084 250.066 245.633 250.206Z" fill="#361B7C"/>
<path d="M251.618 250.164C251.154 250.251 250.035 249.644 249.979 249.355C249.924 249.066 250.255 248.762 250.719 248.675C251.183 248.589 251.605 248.752 251.66 249.041C251.715 249.33 252.082 250.078 251.618 250.164Z" fill="#361B7C"/>
<path d="M243.1 261.593C242.649 261.733 241.467 261.26 241.378 260.979C241.289 260.699 241.583 260.358 242.034 260.218C242.485 260.078 242.922 260.192 243.011 260.472C243.099 260.753 243.55 261.453 243.1 261.593Z" fill="#361B7C"/>
<path d="M255.805 256.71C255.397 256.947 254.945 258.137 255.092 258.392C255.238 258.647 255.688 258.662 256.096 258.424C256.504 258.187 256.716 257.788 256.57 257.533C256.423 257.278 256.213 256.472 255.805 256.71Z" fill="#361B7C"/>
<path d="M244.408 250.206C243.957 250.346 242.775 249.873 242.687 249.593C242.598 249.313 242.892 248.972 243.342 248.832C243.793 248.691 244.231 248.805 244.319 249.086C244.408 249.366 244.859 250.066 244.408 250.206Z" fill="#361B7C"/>
<path d="M250.403 250.02C249.939 250.107 248.82 249.5 248.765 249.211C248.709 248.922 249.04 248.618 249.504 248.531C249.969 248.445 250.39 248.609 250.445 248.897C250.501 249.186 250.867 249.934 250.403 250.02Z" fill="#361B7C"/>
<path d="M241.879 261.592C241.428 261.732 240.246 261.26 240.157 260.979C240.069 260.699 240.362 260.358 240.813 260.218C241.264 260.078 241.701 260.192 241.79 260.472C241.879 260.752 242.33 261.452 241.879 261.592Z" fill="#361B7C"/>
<path d="M247.831 250.25C247.358 250.25 246.373 249.448 246.373 249.155C246.373 248.861 246.756 248.623 247.229 248.623C247.701 248.623 248.084 248.861 248.084 249.155C248.084 249.448 248.303 250.25 247.831 250.25Z" fill="#361B7C"/>
<path d="M253.791 250.466C253.322 250.411 252.437 249.5 252.472 249.208C252.506 248.917 252.914 248.725 253.383 248.78C253.852 248.835 254.205 249.116 254.171 249.408C254.137 249.7 254.261 250.521 253.791 250.466Z" fill="#361B7C"/>
<path d="M245.303 261.636C244.831 261.636 243.846 260.835 243.846 260.541C243.846 260.247 244.229 260.009 244.701 260.009C245.174 260.009 245.557 260.247 245.557 260.541C245.557 260.835 245.776 261.636 245.303 261.636Z" fill="#361B7C"/>
<path d="M257.446 248.909C258.478 248.207 259.203 249.404 258.598 250.022C258.729 250.536 258.232 251.027 257.727 250.974C257.662 251.388 257.185 251.721 256.779 251.646C256.638 252.181 255.967 252.508 255.473 252.245C254.542 252.875 253.702 251.558 254.576 250.863C254.431 250.301 254.75 249.802 255.284 249.602C255.42 249.022 256.064 248.724 256.603 248.983C256.826 248.775 257.194 248.704 257.446 248.909Z" fill="#361B7C"/>
<path d="M237.283 271.928L234.662 257.921H242.253L239.407 271.928H237.283Z" fill="#361B7C"/>
<path d="M252.648 271.927L249.078 257.919H256.353L254.771 271.927H252.648Z" fill="#361B7C"/>
<path d="M249.621 262.571C248.321 261.45 248.672 258.279 248.672 258.279L255.088 257.556L255.676 263.068L252.513 263.43C252.513 263.43 250.513 263.341 249.621 262.571Z" fill="#361B7C"/>
<path d="M250.708 260.615C250.841 261.069 250.351 262.24 250.069 262.323C249.787 262.406 249.45 262.106 249.317 261.653C249.183 261.2 249.303 260.765 249.585 260.682C249.867 260.599 250.574 260.162 250.708 260.615Z" fill="#361B7C"/>
<path d="M251.202 262.222C251.335 262.676 250.845 263.847 250.563 263.93C250.281 264.013 249.944 263.713 249.811 263.26C249.677 262.807 249.798 262.372 250.079 262.289C250.361 262.206 251.068 261.769 251.202 262.222Z" fill="#361B7C"/>
<path d="M251.637 263.52C251.771 263.973 251.28 265.145 250.999 265.228C250.717 265.311 250.38 265.011 250.246 264.558C250.113 264.104 250.233 263.67 250.515 263.587C250.797 263.504 251.504 263.067 251.637 263.52Z" fill="#361B7C"/>
<path d="M251.893 264.851C252.027 265.304 251.536 266.476 251.254 266.559C250.973 266.642 250.636 266.342 250.502 265.889C250.369 265.435 250.489 265.001 250.771 264.917C251.053 264.834 251.76 264.398 251.893 264.851Z" fill="#361B7C"/>
<path d="M252.096 265.914C252.23 266.368 251.739 267.539 251.458 267.622C251.176 267.705 250.839 267.405 250.705 266.952C250.572 266.499 250.692 266.064 250.974 265.981C251.256 265.898 251.963 265.461 252.096 265.914Z" fill="#361B7C"/>
<path d="M252.565 267.39C252.699 267.843 252.208 269.014 251.926 269.097C251.644 269.18 251.308 268.88 251.174 268.427C251.041 267.974 251.161 267.539 251.443 267.456C251.725 267.373 252.432 266.936 252.565 267.39Z" fill="#361B7C"/>
<path d="M252.997 268.687C253.13 269.141 252.64 270.312 252.358 270.395C252.076 270.478 251.739 270.178 251.606 269.725C251.472 269.272 251.592 268.837 251.874 268.754C252.156 268.671 252.863 268.234 252.997 268.687Z" fill="#361B7C"/>
<path d="M253.61 269.951C253.744 270.404 253.253 271.575 252.971 271.658C252.689 271.741 252.353 271.441 252.219 270.988C252.085 270.535 252.206 270.1 252.488 270.017C252.769 269.934 253.476 269.497 253.61 269.951Z" fill="#361B7C"/>
<path d="M252.783 272.243C251.689 272.37 251.201 272.56 250.388 272.243C248.671 266.324 248.4 264.246 247.089 260.811C246.357 260.699 245.383 260.704 244.649 260.811C243.565 262.529 243.158 269.216 241.712 272.243C240.568 272.386 238.775 271.927 238.775 271.927L239.544 259.727L249.981 260.134C249.981 260.134 251.698 268.267 252.783 272.243Z" fill="#361B7C"/>
<path d="M254.59 269.486H249.62L249.529 269.17L254.726 269.035L254.59 269.486Z" fill="#361B7C"/>
<path d="M242.662 269.486H237.85L237.736 269.169L242.752 269.034L242.662 269.486Z" fill="#361B7C"/>
<path d="M242.257 246.35C239.907 246.576 232.813 246.802 231.955 247.164C231.743 248.858 232.483 249.762 232.271 251.456C232.059 253.15 232.219 255.56 232.813 258.144C234.055 263.542 234.846 267.497 236.518 271.835C238.687 272.196 237.241 272.106 239.772 271.97C240.946 269.53 240.946 263.972 242.121 261.984C243.219 261.653 247.874 261.622 248.357 262.662C249.532 265.192 251.836 271.911 252.152 271.97C254.095 272.332 253.463 272.151 255.406 271.97C257.303 264.921 256.987 262.888 256.987 258.46C256.987 257.568 257.84 256.384 258.072 255.523C258.577 253.641 256.964 253.578 257.8 251.818C258.229 250.916 258.756 251.079 259.111 250.146C259.437 249.288 259.597 249.297 259.111 248.519C258.443 247.451 257.749 248.208 256.49 248.248C255.403 248.283 253.96 248.248 253.96 248.248C253.96 248.248 243.838 247.164 242.257 248.519C241.672 249.021 242.591 247.045 242.257 246.35Z" fill="#361B7C"/>
<path d="M239.639 251.77L242.079 248.607C242.668 248.217 243.037 248.105 243.751 248.065L239.639 251.77Z" fill="#361B7C"/>
<path d="M232.143 247.49L242.466 246.875C242.73 246.86 242.935 246.641 242.935 246.377C242.935 246.092 242.697 245.865 242.412 245.878L232.083 246.37C231.784 246.384 231.549 246.631 231.549 246.93C231.549 247.253 231.821 247.509 232.143 247.49Z" fill="#361B7C"/>
<path d="M256.038 269.484H251.067L250.932 269.168L256.173 269.032L256.038 269.484Z" fill="#361B7C"/>
<path d="M240.495 269.485H235.684L235.57 269.168L240.586 269.033L240.495 269.485Z" fill="#361B7C"/>
<path d="M237.601 248.656H234.664C234.514 248.656 234.393 248.777 234.393 248.927V251.332C234.393 251.478 234.508 251.597 234.653 251.603L237.59 251.717C237.744 251.723 237.872 251.6 237.872 251.447V248.927C237.872 248.777 237.75 248.656 237.601 248.656Z" fill="#361B7C"/>
<path d="M239.364 248.609H238.55C238.401 248.609 238.279 248.731 238.279 248.88V249.559C238.279 249.704 238.394 249.823 238.539 249.829L239.353 249.863C239.507 249.869 239.635 249.746 239.635 249.592V248.88C239.635 248.731 239.513 248.609 239.364 248.609Z" fill="#361B7C"/>
<path d="M239.364 250.055H238.55C238.401 250.055 238.279 250.176 238.279 250.326V251.44C238.279 251.584 238.392 251.702 238.535 251.711L239.349 251.756C239.504 251.765 239.635 251.641 239.635 251.485V250.326C239.635 250.176 239.513 250.055 239.364 250.055Z" fill="#361B7C"/>
<path d="M141.17 258.035C118.344 240.892 72.3711 233.338 72.3711 233.338H88.2478L196.739 258.035L370.501 299.491H176.452C176.452 299.491 158.169 270.801 141.17 258.035Z" fill="url(#paint5_linear_268_20732)"/>
</g>
<defs>
<linearGradient id="paint0_linear_268_20732" x1="71.93" y1="191" x2="482.52" y2="432.679" gradientUnits="userSpaceOnUse">
<stop stop-color="#BB3EDA"/>
<stop offset="1" stop-color="#5A45FF"/>
</linearGradient>
<radialGradient id="paint1_diamond_268_20732" cx="0" cy="0" r="1" gradientUnits="userSpaceOnUse" gradientTransform="translate(-123.442 203.349) rotate(34.6346) scale(237.45 905.721)">
<stop stop-color="#5A31C3"/>
<stop offset="1" stop-color="#5A31C3" stop-opacity="0"/>
</radialGradient>
<linearGradient id="paint2_linear_268_20732" x1="287.699" y1="238.168" x2="316.963" y2="237.377" gradientUnits="userSpaceOnUse">
<stop stop-color="#EE71A2"/>
<stop offset="1" stop-color="#FFA9A9"/>
</linearGradient>
<linearGradient id="paint3_linear_268_20732" x1="259.504" y1="256.527" x2="287.665" y2="255.766" gradientUnits="userSpaceOnUse">
<stop stop-color="#EE71A2"/>
<stop offset="1" stop-color="#FFA9A9"/>
</linearGradient>
<linearGradient id="paint4_linear_268_20732" x1="227.983" y1="247.496" x2="247.319" y2="246.973" gradientUnits="userSpaceOnUse">
<stop stop-color="#EE71A2"/>
<stop offset="1" stop-color="#FFA9A9"/>
</linearGradient>
<linearGradient id="paint5_linear_268_20732" x1="62.6687" y1="226.282" x2="222.759" y2="299.491" gradientUnits="userSpaceOnUse">
<stop stop-color="#4E1D88" stop-opacity="0.4"/>
<stop offset="1" stop-color="#4A1D88" stop-opacity="0"/>
</linearGradient>
<clipPath id="clip0_268_20732">
<path d="M0 12.0499C0 5.39495 5.39493 0 12.0499 0H339V339H12.0499C5.39495 339 0 333.605 0 326.95V12.0499Z" fill="white"/>
</clipPath>
</defs>
</svg>
