<svg width="339" height="339" viewBox="0 0 339 339" fill="none" xmlns="http://www.w3.org/2000/svg">
<g clip-path="url(#clip0_268_20470)">
<path d="M308.81 83L310.109 86.5107L313.62 87.8098L310.109 89.1089L308.81 92.6196L307.511 89.1089L304 87.8098L307.511 86.5107L308.81 83Z" fill="#FFF2D2" fill-opacity="0.8"/>
<path d="M243.347 178.342L244.646 181.853L248.157 183.152L244.646 184.451L243.347 187.961L242.048 184.451L238.537 183.152L242.048 181.853L243.347 178.342Z" fill="#4B22A2"/>
<path d="M298.81 110L300.109 113.511L303.62 114.81L300.109 116.109L298.81 119.62L297.511 116.109L294 114.81L297.511 113.511L298.81 110Z" fill="#7242D8"/>
<path d="M280.052 120.059L281.351 123.57L284.862 124.869L281.351 126.168L280.052 129.679L278.753 126.168L275.242 124.869L278.753 123.57L280.052 120.059Z" fill="#4B22A2"/>
<path d="M31.8098 224L33.1089 227.511L36.6196 228.81L33.1089 230.109L31.8098 233.62L30.5107 230.109L27 228.81L30.5107 227.511L31.8098 224Z" fill="#4B22A2"/>
<path d="M125.164 51L127.639 57.6888L134.328 60.1638L127.639 62.6389L125.164 69.3277L122.689 62.6389L116 60.1638L122.689 57.6888L125.164 51Z" fill="#FFBA09"/>
<path d="M147.492 46L149.967 52.6888L156.656 55.1638L149.967 57.6389L147.492 64.3277L145.017 57.6389L138.328 55.1638L145.017 52.6888L147.492 46Z" fill="#FFBA09"/>
<path d="M169.819 43L172.294 49.6888L178.983 52.1638L172.294 54.6389L169.819 61.3277L167.344 54.6389L160.655 52.1638L167.344 49.6888L169.819 43Z" fill="#FFBA09"/>
<path d="M192.146 46L194.621 52.6888L201.31 55.1638L194.621 57.6389L192.146 64.3277L189.671 57.6389L182.982 55.1638L189.671 52.6888L192.146 46Z" fill="#FFBA09"/>
<path d="M214.475 51L216.95 57.6888L223.638 60.1638L216.95 62.6389L214.475 69.3277L212 62.6389L205.311 60.1638L212 57.6888L214.475 51Z" fill="#FFBA09"/>
<path d="M298.638 29L299.351 30.9256L301.276 31.6381L299.351 32.3506L298.638 34.2762L297.926 32.3506L296 31.6381L297.926 30.9256L298.638 29Z" fill="#FFBA09"/>
<path d="M31.4652 20.7654L32.5478 23.6911L35.4734 24.7736L32.5478 25.8562L31.4652 28.7818L30.3826 25.8562L27.457 24.7736L30.3826 23.6911L31.4652 20.7654Z" fill="#FFBA09"/>
<path d="M223.008 220L224.091 222.926L227.016 224.008L224.091 225.091L223.008 228.016L221.926 225.091L219 224.008L221.926 222.926L223.008 220Z" fill="#FFBA09"/>
<path d="M35.0758 65.708L37.8558 73.2207L45.3684 76.0006L37.8558 78.7806L35.0758 86.2932L32.2959 78.7806L24.7832 76.0006L32.2959 73.2207L35.0758 65.708Z" fill="#8A4FA6"/>
<path d="M160.92 126.968L161.633 128.894L163.558 129.606L161.633 130.319L160.92 132.245L160.208 130.319L158.282 129.606L160.208 128.894L160.92 126.968Z" fill="#FFBA09"/>
<path d="M36.515 126.968L37.2276 128.894L39.1531 129.606L37.2276 130.319L36.515 132.245L35.8025 130.319L33.877 129.606L35.8025 128.894L36.515 126.968Z" fill="#FFBA09"/>
<path d="M316.638 266L317.351 267.926L319.276 268.638L317.351 269.351L316.638 271.276L315.926 269.351L314 268.638L315.926 267.926L316.638 266Z" fill="#FFBA09"/>
<path d="M288.861 169.045L289.573 170.97L291.499 171.683L289.573 172.395L288.861 174.321L288.148 172.395L286.223 171.683L288.148 170.97L288.861 169.045Z" fill="#FFBA09"/>
<path d="M69.2699 181.713L69.9824 183.639L71.908 184.351L69.9824 185.064L69.2699 186.99L68.5574 185.064L66.6318 184.351L68.5574 183.639L69.2699 181.713Z" fill="#FFBA09"/>
<circle cx="262.702" cy="53.4645" r="0.971923" fill="white"/>
<circle cx="142.972" cy="18.9719" r="0.971923" fill="white"/>
<circle cx="90.5422" cy="40.0186" r="0.971923" fill="white"/>
<circle cx="83.6506" cy="203.8" r="0.971923" fill="white"/>
<circle cx="260.167" cy="208.867" r="0.971923" fill="white"/>
<circle cx="181.972" cy="203.972" r="0.971923" fill="white"/>
<circle cx="187.578" cy="92.1182" r="0.971923" fill="white"/>
<path d="M92.9566 262.486C93.0285 263.66 95.1708 265.987 95.9012 265.942C96.6316 265.897 97.1655 264.909 97.0936 263.735C97.0218 262.56 96.3714 261.644 95.641 261.689C94.9105 261.734 92.8847 261.311 92.9566 262.486Z" fill="#3FD4EE"/>
<path d="M93.1666 266.665C93.2384 267.839 95.3808 270.166 96.1112 270.121C96.8416 270.077 97.3755 269.088 97.3036 267.914C97.2317 266.739 96.5813 265.823 95.8509 265.868C95.1205 265.913 93.0947 265.49 93.1666 266.665Z" fill="#3FD4EE"/>
<path d="M93.2518 270.07C93.3236 271.245 95.466 273.571 96.1964 273.527C96.9268 273.482 97.4607 272.494 97.3888 271.319C97.3169 270.145 96.6666 269.229 95.9361 269.274C95.2057 269.318 93.1799 268.896 93.2518 270.07Z" fill="#3FD4EE"/>
<path d="M93.7818 273.404C93.8537 274.579 95.996 276.905 96.7264 276.86C97.4568 276.816 97.9907 275.827 97.9188 274.653C97.847 273.478 97.1966 272.563 96.4662 272.607C95.7357 272.652 93.7099 272.23 93.7818 273.404Z" fill="#3FD4EE"/>
<path d="M94.2047 276.07C94.2765 277.245 96.4188 279.571 97.1493 279.527C97.8797 279.482 98.4136 278.494 98.3417 277.319C98.2698 276.145 97.6194 275.229 96.889 275.274C96.1586 275.318 94.1328 274.896 94.2047 276.07Z" fill="#3FD4EE"/>
<path d="M94.3609 279.921C94.4328 281.095 96.5751 283.422 97.3055 283.377C98.0359 283.332 98.5698 282.344 98.4979 281.169C98.4261 279.995 97.7757 279.079 97.0453 279.124C96.3148 279.168 94.289 278.746 94.3609 279.921Z" fill="#3FD4EE"/>
<path d="M94.4478 283.325C94.5197 284.5 96.662 286.826 97.3924 286.782C98.1229 286.737 98.6567 285.748 98.5849 284.574C98.513 283.4 97.8626 282.484 97.1322 282.528C96.4017 282.573 94.376 282.151 94.4478 283.325Z" fill="#3FD4EE"/>
<path d="M94.0894 286.8C94.1613 287.975 96.3036 290.301 97.034 290.257C97.7645 290.212 98.2983 289.224 98.2265 288.049C98.1546 286.875 97.5042 285.959 96.7738 286.004C96.0433 286.048 94.0176 285.626 94.0894 286.8Z" fill="#3FD4EE"/>
<path d="M109.51 260.474C110.112 261.485 109.653 264.614 109.025 264.989C108.396 265.363 107.398 264.848 106.796 263.837C106.193 262.826 106.215 261.703 106.843 261.329C107.472 260.954 108.907 259.463 109.51 260.474Z" fill="#3FD4EE"/>
<path d="M111.693 264.044C112.296 265.055 111.837 268.184 111.208 268.559C110.58 268.934 109.582 268.418 108.979 267.407C108.377 266.397 108.398 265.274 109.027 264.899C109.655 264.524 111.091 263.034 111.693 264.044Z" fill="#3FD4EE"/>
<path d="M113.541 266.906C114.144 267.917 113.685 271.046 113.056 271.421C112.428 271.795 111.43 271.28 110.827 270.269C110.225 269.258 110.246 268.135 110.875 267.76C111.503 267.386 112.939 265.895 113.541 266.906Z" fill="#3FD4EE"/>
<path d="M114.981 269.959C115.584 270.97 115.125 274.099 114.496 274.474C113.868 274.848 112.87 274.333 112.267 273.322C111.665 272.311 111.686 271.188 112.315 270.813C112.943 270.439 114.379 268.948 114.981 269.959Z" fill="#3FD4EE"/>
<path d="M116.134 272.401C116.736 273.412 116.278 276.541 115.649 276.916C115.02 277.29 114.022 276.775 113.42 275.764C112.817 274.753 112.839 273.63 113.467 273.256C114.096 272.881 115.531 271.39 116.134 272.401Z" fill="#3FD4EE"/>
<path d="M118.175 275.669C118.777 276.68 118.319 279.809 117.69 280.184C117.061 280.558 116.063 280.043 115.461 279.032C114.858 278.021 114.88 276.898 115.508 276.524C116.137 276.149 117.572 274.658 118.175 275.669Z" fill="#3FD4EE"/>
<path d="M120.022 278.53C120.625 279.54 120.166 282.67 119.538 283.044C118.909 283.419 117.911 282.903 117.309 281.893C116.706 280.882 116.727 279.759 117.356 279.384C117.984 279.009 119.42 277.519 120.022 278.53Z" fill="#3FD4EE"/>
<path d="M122.277 281.198C122.88 282.209 122.421 285.338 121.792 285.713C121.164 286.088 120.166 285.572 119.563 284.561C118.961 283.551 118.982 282.428 119.611 282.053C120.239 281.678 121.675 280.188 122.277 281.198Z" fill="#3FD4EE"/>
<path d="M88.422 294.801C88.2457 294.543 88.3792 294.188 88.6818 294.111L91.4372 293.404C91.7169 293.333 91.9909 293.539 91.9989 293.828L92.0433 295.443C92.0491 295.653 91.9087 295.839 91.7051 295.891L89.8515 296.366C89.6682 296.413 89.475 296.341 89.3682 296.184L88.422 294.801Z" fill="#F08C30"/>
<path d="M120.686 286.529C120.509 286.271 120.643 285.917 120.945 285.839L123.701 285.133C123.981 285.061 124.255 285.267 124.263 285.556L124.307 287.171C124.313 287.381 124.172 287.567 123.969 287.619L122.115 288.095C121.932 288.142 121.739 288.069 121.632 287.913L120.686 286.529Z" fill="#F08C30"/>
<path d="M93.0002 293.627C92.8239 293.369 92.9574 293.015 93.2599 292.937L96.0153 292.231C96.2951 292.159 96.5691 292.365 96.577 292.654L96.6214 294.269C96.6272 294.479 96.4868 294.665 96.2833 294.717L94.4297 295.193C94.2463 295.24 94.0532 295.167 93.9463 295.011L93.0002 293.627Z" fill="#F08C30"/>
<path d="M125.265 285.355C125.089 285.097 125.222 284.743 125.525 284.665L128.28 283.959C128.56 283.887 128.834 284.094 128.842 284.382L128.886 285.997C128.892 286.207 128.751 286.393 128.548 286.446L126.694 286.921C126.511 286.968 126.318 286.895 126.211 286.739L125.265 285.355Z" fill="#F08C30"/>
<path d="M91.933 293.974L80.8718 260.798L95.042 257.166L97.0561 292.661L91.933 293.974Z" fill="#3FD4EE"/>
<path d="M120.274 286.708L105.831 258.465L120.509 262.253L125.397 285.395L120.274 286.708Z" fill="#3FD4EE"/>
<circle cx="67.7345" cy="216.363" r="22.8429" transform="rotate(-14.3798 67.7345 216.363)" fill="url(#paint0_linear_268_20470)"/>
<path d="M62.7084 225.788C63.0007 226.927 61.6762 229.799 60.9673 229.981C60.2585 230.163 59.4469 229.386 59.1547 228.246C58.8625 227.106 59.2002 226.035 59.9091 225.853C60.618 225.672 62.4162 224.648 62.7084 225.788Z" fill="#56E6FF"/>
<path d="M63.4663 228.74C63.7585 229.879 62.434 232.751 61.7251 232.933C61.0163 233.115 60.2047 232.338 59.9125 231.198C59.6203 230.059 59.958 228.987 60.6669 228.805C61.3758 228.624 63.174 227.6 63.4663 228.74Z" fill="#56E6FF"/>
<path d="M64.5306 234.122C65.1474 235.123 64.7378 238.267 64.1162 238.654C63.4947 239.042 62.4908 238.544 61.8741 237.543C61.2573 236.542 61.2611 235.417 61.8827 235.029C62.5042 234.642 63.9138 233.121 64.5306 234.122Z" fill="#56E6FF"/>
<path d="M65.0685 237.129C65.6852 238.13 65.2756 241.274 64.6541 241.661C64.0325 242.049 63.0287 241.551 62.4119 240.55C61.7951 239.549 61.799 238.424 62.4205 238.037C63.0421 237.649 64.4517 236.129 65.0685 237.129Z" fill="#56E6FF"/>
<path d="M65.8253 240.08C66.4421 241.081 66.0324 244.224 65.4109 244.612C64.7894 244.999 63.7855 244.502 63.1687 243.501C62.552 242.5 62.5558 241.374 63.1774 240.987C63.7989 240.6 65.2085 239.079 65.8253 240.08Z" fill="#56E6FF"/>
<path d="M67.3829 236.145C67.9997 237.146 67.5901 240.289 66.9685 240.677C66.347 241.064 65.3431 240.567 64.7264 239.566C64.1096 238.565 64.1134 237.439 64.735 237.052C65.3565 236.665 66.7661 235.144 67.3829 236.145Z" fill="#5A5A5B"/>
<path d="M77.3114 221.277C77.6036 222.417 80.1465 224.297 80.8554 224.115C81.5642 223.934 81.902 222.862 81.6098 221.723C81.3175 220.583 80.506 219.806 79.7971 219.988C79.0883 220.17 77.0192 220.137 77.3114 221.277Z" fill="#56E6FF"/>
<path d="M78.0682 224.23C78.3605 225.37 80.9033 227.25 81.6122 227.068C82.3211 226.887 82.6588 225.815 82.3666 224.675C82.0744 223.536 81.2628 222.759 80.554 222.941C79.8451 223.123 77.776 223.09 78.0682 224.23Z" fill="#56E6FF"/>
<path d="M79.2876 229.572C79.2285 230.746 81.1 233.305 81.8313 233.345C82.5625 233.386 83.2033 232.467 83.2624 231.293C83.3215 230.119 82.7766 229.134 82.0453 229.093C81.3141 229.053 79.3467 228.398 79.2876 229.572Z" fill="#56E6FF"/>
<path d="M80.0451 232.523C79.986 233.697 81.8576 236.256 82.5888 236.296C83.3201 236.337 83.9608 235.418 84.0199 234.244C84.079 233.07 83.5342 232.085 82.8029 232.044C82.0716 232.004 80.1042 231.349 80.0451 232.523Z" fill="#56E6FF"/>
<path d="M80.801 235.474C80.7419 236.648 82.6134 239.207 83.3447 239.248C84.076 239.288 84.7167 238.369 84.7758 237.195C84.8349 236.021 84.29 235.036 83.5587 234.995C82.8275 234.955 80.8601 234.3 80.801 235.474Z" fill="#56E6FF"/>
<path d="M77.8742 232.688C77.8151 233.862 79.6867 236.421 80.4179 236.461C81.1492 236.502 81.7899 235.583 81.849 234.409C81.9081 233.234 81.3633 232.249 80.632 232.209C79.9007 232.168 77.9333 231.513 77.8742 232.688Z" fill="#DDE8EF"/>
<path d="M78.538 227.257C78.8302 228.397 81.373 230.278 82.0819 230.096C82.7908 229.914 83.1285 228.843 82.8363 227.703C82.5441 226.563 81.7326 225.787 81.0237 225.968C80.3148 226.15 78.2457 226.118 78.538 227.257Z" fill="#56E6FF"/>
<path d="M64.4721 231.631C64.7643 232.771 63.4399 235.643 62.731 235.824C62.0221 236.006 61.2106 235.229 60.9184 234.09C60.6261 232.95 60.9639 231.879 61.6728 231.697C62.3816 231.515 64.1799 230.491 64.4721 231.631Z" fill="#56E6FF"/>
<path fill-rule="evenodd" clip-rule="evenodd" d="M59.1665 220.793C56.3038 220.597 53.9481 215.398 52.7108 210.572C51.1162 204.353 52.2243 198.905 54.3745 198.354C56.1322 197.903 56.8374 200.865 57.9073 205.358C58.1462 206.362 58.4033 207.441 58.6943 208.577C59.4301 210.394 60.2644 211.974 60.986 213.341C61.2518 213.844 61.5023 214.318 61.7269 214.765C62.9852 213.534 64.6542 212.679 66.6232 212.174C68.8136 211.612 71.0571 211.567 73.1057 212.172C73.0784 211.583 73.0679 210.939 73.0567 210.246C73.0317 208.7 73.0028 206.914 72.7737 204.967C72.4826 203.832 72.1885 202.762 71.9152 201.767C70.691 197.313 69.8843 194.377 71.6421 193.927C73.7923 193.375 77.3847 197.618 78.9793 203.838C80.2098 208.637 80.6479 214.291 78.2775 215.878C79.1998 217.154 79.9439 218.75 80.4447 220.704C80.6455 221.487 80.9263 222.5 81.257 223.693C84.2844 234.614 91.4956 260.628 79.8136 263.623C68.5698 266.505 63.2781 242.051 60.7428 230.335C60.3562 228.548 60.0337 227.058 59.764 226.006C59.2649 224.059 59.079 222.325 59.1665 220.793Z" fill="#56E6FF"/>
<path fill-rule="evenodd" clip-rule="evenodd" d="M77.499 220.87C77.8741 219.884 77.9641 218.856 77.7082 217.858C76.8311 214.437 72.2211 212.663 67.4114 213.896C62.6017 215.129 59.4137 218.902 60.2908 222.324C60.5515 223.34 61.142 224.212 61.9695 224.902C61.4729 226.043 61.7874 227.269 62.1306 228.608C62.9057 231.631 67.2331 232.635 71.9443 231.427C76.6554 230.219 79.9662 227.257 79.1911 224.234C78.8421 222.873 78.5229 221.628 77.499 220.87Z" fill="#C6F5FF"/>
<path d="M77.8242 204.369C78.6369 207.539 76.3023 213.379 75.8565 212.635C75.4108 211.891 75.8464 210.564 74.0667 205.654C72.2871 200.744 71.1797 195.304 72.2546 194.922C72.7033 194.762 76.2946 199.288 77.8242 204.369Z" fill="#96F6FF"/>
<path d="M78.2481 205.267C79.0608 208.437 76.7261 214.278 76.2803 213.534C75.8346 212.789 76.2702 211.463 74.4906 206.553C72.7109 201.643 71.6035 196.203 72.6784 195.82C73.1271 195.66 76.7184 200.187 78.2481 205.267Z" fill="url(#paint1_linear_268_20470)" fill-opacity="0.8"/>
<path d="M53.7696 210.536C54.5823 213.706 59.439 217.703 59.4717 216.836C59.5044 215.969 58.4842 215.016 57.682 209.855C56.8797 204.695 55.2334 199.393 54.1069 199.575C53.6366 199.651 52.666 205.346 53.7696 210.536Z" fill="#96F6FF"/>
<path d="M53.919 211.908C54.7317 215.078 59.5885 219.074 59.6212 218.208C59.6538 217.341 58.6337 216.387 57.8314 211.227C57.0292 206.066 55.3829 200.765 54.2563 200.946C53.786 201.022 52.8154 206.718 53.919 211.908Z" fill="url(#paint2_linear_268_20470)" fill-opacity="0.8"/>
<path d="M73.8064 224.981C74.0471 225.92 72.7962 227.052 71.0124 227.509C69.2285 227.967 67.5873 227.576 67.3465 226.637C67.1058 225.698 67.5423 221.389 69.3261 220.932C71.1099 220.475 73.5656 224.042 73.8064 224.981Z" fill="#54BDEA"/>
<line x1="70.26" y1="224.693" x2="70.6961" y2="226.394" stroke="url(#paint3_linear_268_20470)" stroke-width="0.0559277"/>
<path d="M68.7487 226.291C70.3515 226.663 71.1107 226.513 72.1504 225.419" stroke="black" stroke-width="0.0585292" stroke-linecap="round" stroke-linejoin="round"/>
<path d="M69.7442 222.588C71.4292 222.192 72.0844 223.217 72.3901 223.48C72.6957 223.743 72.6962 224.886 70.4188 225.22C68.699 225.597 67.6795 225.492 67.818 224.709C67.818 224.709 68.0591 222.985 69.7442 222.588Z" fill="#0F515C"/>
<path d="M71.9565 223.532C72.1208 223.711 71.4446 224.516 71.1812 224.674C70.8061 224.898 70.3834 225.166 70.3504 225.13C70.3174 225.094 70.6974 224.687 70.9565 224.324C71.2155 223.961 71.7923 223.354 71.9565 223.532Z" fill="#160646"/>
<path d="M68.2643 224.48C68.2061 224.715 69.1863 225.096 69.4931 225.107C69.9299 225.123 70.4294 225.155 70.4411 225.108C70.4528 225.06 69.9237 224.886 69.5218 224.692C69.1199 224.498 68.3225 224.244 68.2643 224.48Z" fill="#160646"/>
<path d="M116.005 230.027C104.77 228.316 64.5446 246.049 64.5446 246.049C64.5446 246.049 70.0737 260.988 78.0158 265.97C89.2189 272.997 120.239 255.145 120.239 255.145C120.239 255.145 127.077 248.105 126.353 242.77C125.636 237.478 120.648 230.734 116.005 230.027Z" fill="#56E6FF"/>
<path d="M80.5915 246.117L84.7729 237.959L86.707 237.347L80.5915 246.117Z" fill="#59D9EF"/>
<path d="M54.7255 208.369C52.9419 206.707 54.3007 203.716 56.306 202.33C57.4267 201.556 58.3732 201.224 59.701 201.529C62.7085 202.219 60.9897 208.795 57.9349 209.23C56.6502 209.413 55.6751 209.253 54.7255 208.369Z" fill="url(#paint4_linear_268_20470)"/>
<path d="M50.1791 211.639C49.1602 210.734 49.4157 208.79 50.6339 208.179C51.6182 207.685 52.7586 207.997 53.3535 208.924C54.2348 210.297 51.3985 212.723 50.1791 211.639Z" fill="url(#paint5_linear_268_20470)"/>
<path d="M73.2672 208.684C78.1245 207.573 79.135 213.258 75.991 214.699C75.7479 216.865 73.193 217.988 71.379 217.017C70.5455 218.5 68.2897 219.045 66.8755 218.138C65.5887 219.971 62.613 220.199 61.1398 218.44C56.762 219.429 55.4928 213.108 59.7523 211.782C60.0071 209.412 61.91 207.989 64.1905 208.039C65.527 206.026 68.3609 205.868 70.0081 207.683C71.1368 207.227 72.6161 207.515 73.2672 208.684Z" fill="#5CD9EF"/>
<path d="M73.4167 208.389C78.4212 207.239 79.4148 212.912 76.1696 214.376C75.9022 216.543 73.2656 217.685 71.4078 216.729C70.5386 218.218 68.2143 218.78 66.7671 217.886C65.429 219.727 62.3667 219.98 60.8657 218.233C56.3554 219.256 55.101 212.951 59.4923 211.592C59.7734 209.223 61.7419 207.785 64.0869 207.817C65.4777 205.795 68.3935 205.614 70.073 207.414C71.2374 206.949 72.7565 207.226 73.4167 208.389Z" fill="#56E6FF"/>
<path d="M61.0194 213.576C57.5421 216.798 60.6717 209.869 62.3058 208.945C62.8056 208.663 63.5085 208.631 64.1461 208.686C64.8679 208.748 65.0953 209.598 64.5806 210.108C63.4542 211.223 61.7871 212.865 61.0194 213.576Z" fill="url(#paint6_linear_268_20470)" fill-opacity="0.3"/>
<path d="M65.8136 221.349C66.3247 222.305 65.9975 223.485 65.0827 223.982C64.1679 224.48 63.012 224.108 62.5009 223.151C61.9898 222.194 62.4445 222.168 63.3592 221.67C64.274 221.173 65.3025 220.392 65.8136 221.349Z" fill="#8C8C8C" fill-opacity="0.2"/>
<path d="M76.2472 218.674C76.7583 219.631 76.4311 220.81 75.5163 221.307C74.6015 221.805 73.4456 221.433 72.9345 220.476C72.4234 219.52 72.8781 219.493 73.7928 218.996C74.7076 218.498 75.7361 217.717 76.2472 218.674Z" fill="#8C8C8C" fill-opacity="0.2"/>
<path fill-rule="evenodd" clip-rule="evenodd" d="M74.5097 221.302C73.4693 221.307 72.6165 220.43 72.6049 219.344C72.5932 218.259 73.4272 217.375 74.4675 217.371C75.5079 217.366 76.3607 218.243 76.3723 219.328C76.384 220.414 75.55 221.298 74.5097 221.302ZM73.7147 219.302C74.041 219.3 74.3028 219.033 74.2993 218.706C74.2957 218.378 74.0283 218.113 73.702 218.115C73.3756 218.116 73.1139 218.383 73.1174 218.711C73.1209 219.038 73.3883 219.303 73.7147 219.302Z" fill="#333333"/>
<path fill-rule="evenodd" clip-rule="evenodd" d="M63.242 220.705C63.2298 220.708 63.2177 220.71 63.2056 220.713C62.8611 220.802 62.6534 221.153 62.7417 221.497C62.83 221.842 63.1809 222.049 63.5254 221.961C63.8699 221.873 64.0776 221.522 63.9893 221.177C63.9304 220.948 63.7549 220.779 63.5423 220.718C63.4403 220.716 63.34 220.711 63.242 220.705Z" fill="#F5F5F5"/>
<path d="M74.3145 218.53C74.4028 218.875 74.1951 219.226 73.8506 219.314C73.5061 219.402 73.1552 219.194 73.0669 218.85C72.9786 218.505 73.1863 218.155 73.5308 218.066C73.8753 217.978 74.2262 218.186 74.3145 218.53Z" fill="#F5F5F5"/>
<path fill-rule="evenodd" clip-rule="evenodd" d="M65.044 223.744C65.9587 223.247 66.286 222.067 65.7749 221.111C65.2638 220.154 64.1079 219.782 63.1931 220.28C62.2783 220.777 61.9511 221.956 62.4622 222.913C62.9733 223.87 64.1292 224.242 65.044 223.744ZM63.5907 221.825C63.8775 221.669 63.9846 221.308 63.83 221.019C63.6754 220.73 63.3176 220.622 63.0308 220.778C62.744 220.934 62.6369 221.294 62.7915 221.583C62.9461 221.872 63.3039 221.98 63.5907 221.825Z" fill="#333333"/>
<path d="M67.2556 243.929C67.5478 245.068 66.2233 247.94 65.5144 248.122C64.8056 248.304 63.994 247.527 63.7018 246.387C63.4096 245.247 63.7473 244.176 64.4562 243.994C65.1651 243.813 66.9633 242.789 67.2556 243.929Z" fill="#56E6FF"/>
<path d="M68.4177 246.651C68.7099 247.791 67.3854 250.663 66.6765 250.845C65.9677 251.026 65.1561 250.25 64.8639 249.11C64.5717 247.97 64.9094 246.899 65.6183 246.717C66.3272 246.535 68.1254 245.511 68.4177 246.651Z" fill="#56E6FF"/>
<path d="M69.2671 249.707C69.8145 250.749 69.1887 253.849 68.5409 254.189C67.8931 254.53 66.9242 253.962 66.3768 252.92C65.8294 251.878 65.9107 250.758 66.5585 250.418C67.2063 250.077 68.7196 248.666 69.2671 249.707Z" fill="#56E6FF"/>
<path d="M71.1919 253.586C71.7393 254.627 71.1135 257.727 70.4657 258.068C69.8179 258.408 68.849 257.84 68.3016 256.798C67.7542 255.757 67.8355 254.636 68.4833 254.296C69.1311 253.955 70.6444 252.544 71.1919 253.586Z" fill="#56E6FF"/>
<path d="M72.2519 256.109C73.1187 256.904 73.5757 260.034 73.0808 260.573C72.5859 261.112 71.4821 260.904 70.6153 260.108C69.7485 259.312 69.447 258.23 69.9419 257.691C70.4368 257.152 71.3851 255.313 72.2519 256.109Z" fill="#56E6FF"/>
<path d="M73.6806 258.186C74.5474 258.981 75.0044 262.111 74.5095 262.65C74.0146 263.189 72.9108 262.981 72.044 262.185C71.1772 261.389 70.8757 260.307 71.3706 259.768C71.8655 259.229 72.8138 257.39 73.6806 258.186Z" fill="#56E6FF"/>
<path d="M76.3681 260.517C77.2349 261.313 77.6919 264.442 77.197 264.981C76.7021 265.52 75.5983 265.312 74.7315 264.516C73.8647 263.721 73.5632 262.638 74.0581 262.099C74.553 261.56 75.5013 259.721 76.3681 260.517Z" fill="#56E6FF"/>
<path d="M77.8505 261.763C78.7173 262.559 79.1744 265.688 78.6795 266.227C78.1846 266.766 77.0807 266.558 76.2139 265.763C75.3471 264.967 75.0456 263.885 75.5405 263.346C76.0354 262.807 76.9838 260.967 77.8505 261.763Z" fill="#56E6FF"/>
<path d="M75.6187 261.541C76.1208 262.605 75.3621 265.675 74.7002 265.987C74.0384 266.3 73.0949 265.69 72.5928 264.626C72.0907 263.562 72.2202 262.446 72.8821 262.134C73.5439 261.821 75.1166 260.477 75.6187 261.541Z" fill="#56E6FF"/>
<path d="M77.4458 265.306C77.9479 266.37 77.1892 269.44 76.5274 269.752C75.8656 270.065 74.922 269.455 74.4199 268.391C73.9179 267.327 74.0474 266.211 74.7092 265.899C75.3711 265.586 76.9438 264.241 77.4458 265.306Z" fill="#56E6FF"/>
<path d="M79.01 268.332C79.5121 269.396 78.7534 272.466 78.0916 272.779C77.4298 273.091 76.4862 272.481 75.9842 271.417C75.4821 270.353 75.6116 269.237 76.2734 268.925C76.9353 268.613 78.508 267.268 79.01 268.332Z" fill="#56E6FF"/>
<path d="M80.1492 271.509C80.6513 272.574 79.8926 275.644 79.2308 275.956C78.5689 276.268 77.6254 275.659 77.1233 274.595C76.6212 273.53 76.7508 272.415 77.4126 272.102C78.0744 271.79 79.6471 270.445 80.1492 271.509Z" fill="#56E6FF"/>
<path d="M81.0608 274.051C81.5629 275.115 80.8042 278.186 80.1424 278.498C79.4805 278.81 78.537 278.2 78.0349 277.136C77.5329 276.072 77.6624 274.956 78.3242 274.644C78.986 274.332 80.5588 272.987 81.0608 274.051Z" fill="#56E6FF"/>
<path d="M82.7757 277.502C83.2777 278.566 82.5191 281.636 81.8572 281.948C81.1954 282.26 80.2519 281.651 79.7498 280.587C79.2477 279.523 79.3772 278.407 80.0391 278.094C80.7009 277.782 82.2736 276.437 82.7757 277.502Z" fill="#56E6FF"/>
<path d="M84.3384 280.526C84.8405 281.59 84.0818 284.661 83.42 284.973C82.7581 285.285 81.8146 284.676 81.3125 283.612C80.8105 282.547 80.94 281.432 81.6018 281.119C82.2636 280.807 83.8363 279.462 84.3384 280.526Z" fill="#56E6FF"/>
<path d="M86.3238 283.401C86.8258 284.465 86.0671 287.535 85.4053 287.847C84.7435 288.159 83.7999 287.55 83.2979 286.486C82.7958 285.422 82.9253 284.306 83.5871 283.994C84.249 283.681 85.8217 282.336 86.3238 283.401Z" fill="#56E6FF"/>
<path d="M88.3765 263.659C88.4484 264.834 90.5907 267.16 91.3211 267.115C92.0516 267.071 92.5854 266.082 92.5136 264.908C92.4417 263.733 91.7913 262.818 91.0609 262.862C90.3305 262.907 88.3047 262.485 88.3765 263.659Z" fill="#56E6FF"/>
<path d="M88.5875 267.838C88.6593 269.013 90.8016 271.339 91.5321 271.294C92.2625 271.25 92.7964 270.261 92.7245 269.087C92.6526 267.912 92.0022 266.997 91.2718 267.041C90.5414 267.086 88.5156 266.664 88.5875 267.838Z" fill="#56E6FF"/>
<path d="M88.6717 271.244C88.7436 272.418 90.8859 274.745 91.6163 274.7C92.3467 274.655 92.8806 273.667 92.8087 272.493C92.7369 271.318 92.0865 270.402 91.356 270.447C90.6256 270.492 88.5998 270.069 88.6717 271.244Z" fill="#56E6FF"/>
<path d="M89.2017 274.578C89.2736 275.753 91.4159 278.079 92.1463 278.034C92.8768 277.99 93.4106 277.001 93.3388 275.827C93.2669 274.652 92.6165 273.736 91.8861 273.781C91.1556 273.826 89.1299 273.404 89.2017 274.578Z" fill="#56E6FF"/>
<path d="M89.6256 277.245C89.6974 278.419 91.8397 280.746 92.5702 280.701C93.3006 280.656 93.8345 279.668 93.7626 278.493C93.6907 277.319 93.0403 276.403 92.3099 276.448C91.5795 276.492 89.5537 276.07 89.6256 277.245Z" fill="#56E6FF"/>
<path d="M89.7828 281.095C89.8547 282.269 91.997 284.596 92.7274 284.551C93.4578 284.506 93.9917 283.518 93.9198 282.343C93.8479 281.169 93.1976 280.253 92.4671 280.298C91.7367 280.342 89.7109 279.92 89.7828 281.095Z" fill="#56E6FF"/>
<path d="M89.8675 284.498C89.9394 285.672 92.0817 287.999 92.8121 287.954C93.5425 287.909 94.0764 286.921 94.0045 285.747C93.9327 284.572 93.2823 283.656 92.5518 283.701C91.8214 283.746 89.7956 283.323 89.8675 284.498Z" fill="#56E6FF"/>
<path d="M89.5093 287.974C89.5812 289.148 91.7235 291.475 92.454 291.43C93.1844 291.385 93.7183 290.397 93.6464 289.222C93.5745 288.048 92.9241 287.132 92.1937 287.177C91.4633 287.222 89.4375 286.799 89.5093 287.974Z" fill="#56E6FF"/>
<path d="M123.474 253.732C123.546 254.906 125.688 257.233 126.419 257.188C127.149 257.144 127.683 256.155 127.611 254.981C127.539 253.806 126.889 252.89 126.158 252.935C125.428 252.98 123.402 252.558 123.474 253.732Z" fill="#56E6FF"/>
<path d="M123.685 257.912C123.757 259.087 125.899 261.413 126.63 261.368C127.36 261.324 127.894 260.335 127.822 259.161C127.75 257.986 127.1 257.071 126.369 257.115C125.639 257.16 123.613 256.738 123.685 257.912Z" fill="#56E6FF"/>
<path d="M123.769 261.317C123.841 262.491 125.983 264.818 126.714 264.773C127.444 264.728 127.978 263.74 127.906 262.565C127.834 261.391 127.184 260.475 126.453 260.52C125.723 260.565 123.697 260.142 123.769 261.317Z" fill="#56E6FF"/>
<path d="M124.299 264.651C124.371 265.826 126.514 268.152 127.244 268.107C127.974 268.063 128.508 267.074 128.436 265.9C128.365 264.725 127.714 263.809 126.984 263.854C126.253 263.899 124.228 263.477 124.299 264.651Z" fill="#56E6FF"/>
<path d="M124.722 267.318C124.794 268.492 126.936 270.819 127.667 270.774C128.397 270.729 128.931 269.741 128.859 268.566C128.787 267.392 128.137 266.476 127.407 266.521C126.676 266.566 124.65 266.143 124.722 267.318Z" fill="#56E6FF"/>
<path d="M124.88 271.168C124.952 272.342 127.094 274.669 127.824 274.624C128.555 274.579 129.089 273.591 129.017 272.417C128.945 271.242 128.294 270.326 127.564 270.371C126.834 270.416 124.808 269.993 124.88 271.168Z" fill="#56E6FF"/>
<path d="M124.965 274.572C125.037 275.746 127.18 278.073 127.91 278.028C128.64 277.983 129.174 276.995 129.102 275.82C129.031 274.646 128.38 273.73 127.65 273.775C126.919 273.819 124.894 273.397 124.965 274.572Z" fill="#56E6FF"/>
<path d="M124.607 278.047C124.679 279.221 126.821 281.548 127.552 281.503C128.282 281.458 128.816 280.47 128.744 279.295C128.672 278.121 128.022 277.205 127.291 277.25C126.561 277.295 124.535 276.872 124.607 278.047Z" fill="#56E6FF"/>
<path d="M102.714 235.22C101.574 235.512 98.7022 234.187 98.5204 233.478C98.3387 232.77 99.1154 231.958 100.255 231.666C101.395 231.374 102.466 231.711 102.648 232.42C102.83 233.129 103.854 234.927 102.714 235.22Z" fill="#56E6FF"/>
<path d="M117.331 232.395C116.165 232.552 113.467 230.902 113.369 230.177C113.271 229.452 114.137 228.736 115.303 228.579C116.469 228.421 117.494 228.882 117.592 229.607C117.69 230.332 118.497 232.237 117.331 232.395Z" fill="#56E6FF"/>
<path d="M103.653 264.253C102.513 264.545 99.6409 263.221 99.4592 262.512C99.2774 261.803 100.054 260.991 101.194 260.699C102.334 260.407 103.405 260.745 103.587 261.454C103.768 262.163 104.792 263.961 103.653 264.253Z" fill="#56E6FF"/>
<path d="M106.188 263.371C105.049 263.663 102.177 262.338 101.995 261.63C101.813 260.921 102.59 260.109 103.73 259.817C104.87 259.525 105.941 259.862 106.123 260.571C106.304 261.28 107.328 263.078 106.188 263.371Z" fill="#56E6FF"/>
<path d="M108.312 262.594C107.172 262.886 104.3 261.561 104.118 260.852C103.937 260.144 104.713 259.332 105.853 259.04C106.993 258.748 108.064 259.085 108.246 259.794C108.428 260.503 109.452 262.301 108.312 262.594Z" fill="#56E6FF"/>
<path d="M125.062 241.729C124.224 242.554 123.871 245.704 124.382 246.229C124.894 246.753 125.987 246.51 126.825 245.685C127.663 244.861 127.928 243.767 127.417 243.242C126.906 242.718 125.9 240.904 125.062 241.729Z" fill="#56E6FF"/>
<path d="M122.406 239.72C122.675 240.864 125.183 242.803 125.897 242.639C126.61 242.476 126.971 241.415 126.702 240.27C126.433 239.126 125.636 238.331 124.923 238.495C124.209 238.659 122.137 238.575 122.406 239.72Z" fill="#56E6FF"/>
<path d="M120.555 236.768C120.824 237.913 123.332 239.852 124.046 239.688C124.76 239.524 125.121 238.463 124.852 237.319C124.583 236.174 123.786 235.379 123.072 235.543C122.358 235.707 120.286 235.624 120.555 236.768Z" fill="#56E6FF"/>
<path d="M97.4434 236.72C96.4425 237.337 93.299 236.927 92.9115 236.306C92.5241 235.684 93.0215 234.68 94.0224 234.064C95.0234 233.447 96.1489 233.451 96.5363 234.072C96.9237 234.694 98.4444 236.103 97.4434 236.72Z" fill="#56E6FF"/>
<path d="M111.92 233.271C110.854 233.767 107.78 232.994 107.468 232.332C107.155 231.669 107.766 230.73 108.832 230.234C109.898 229.738 111.016 229.873 111.328 230.536C111.64 231.198 112.986 232.775 111.92 233.271Z" fill="#56E6FF"/>
<path d="M98.3819 265.753C97.3809 266.37 94.2374 265.961 93.85 265.339C93.4626 264.717 93.96 263.714 94.9609 263.097C95.9619 262.48 97.0874 262.484 97.4748 263.105C97.8622 263.727 99.3828 265.137 98.3819 265.753Z" fill="#56E6FF"/>
<path d="M124.496 244.191C123.658 245.016 123.306 248.166 123.817 248.691C124.328 249.215 125.421 248.972 126.259 248.147C127.097 247.323 127.362 246.229 126.851 245.704C126.34 245.179 125.334 243.366 124.496 244.191Z" fill="#56E6FF"/>
<path d="M94.4922 237.477C93.4913 238.094 90.3478 237.684 89.9604 237.062C89.573 236.441 90.0703 235.437 91.0713 234.82C92.0722 234.203 93.1977 234.207 93.5851 234.829C93.9726 235.45 95.4932 236.86 94.4922 237.477Z" fill="#56E6FF"/>
<path d="M108.903 233.679C107.837 234.174 104.763 233.401 104.45 232.739C104.138 232.077 104.749 231.137 105.815 230.641C106.881 230.146 107.998 230.28 108.311 230.943C108.623 231.605 109.969 233.183 108.903 233.679Z" fill="#56E6FF"/>
<path d="M95.431 266.51C94.43 267.127 91.2865 266.717 90.8991 266.095C90.5117 265.474 91.009 264.47 92.01 263.853C93.0109 263.237 94.1364 263.24 94.5239 263.862C94.9113 264.483 96.4319 265.893 95.431 266.51Z" fill="#56E6FF"/>
<path d="M123.056 246.876C122.218 247.701 121.865 250.851 122.376 251.376C122.887 251.9 123.981 251.657 124.819 250.832C125.657 250.008 125.922 248.914 125.411 248.389C124.9 247.865 123.894 246.051 123.056 246.876Z" fill="#56E6FF"/>
<path d="M91.5418 238.233C90.5409 238.85 87.3974 238.44 87.0099 237.819C86.6225 237.197 87.1199 236.193 88.1208 235.576C89.1218 234.96 90.2473 234.964 90.6347 235.585C91.0221 236.207 92.5428 237.616 91.5418 238.233Z" fill="#56E6FF"/>
<path d="M105.883 234.086C104.817 234.582 101.743 233.809 101.431 233.146C101.118 232.484 101.729 231.545 102.795 231.049C103.861 230.553 104.979 230.688 105.291 231.35C105.603 232.013 106.949 233.59 105.883 234.086Z" fill="#56E6FF"/>
<path d="M92.4793 267.266C91.4784 267.883 88.3349 267.473 87.9474 266.852C87.56 266.23 88.0574 265.227 89.0583 264.61C90.0593 263.993 91.1848 263.997 91.5722 264.618C91.9596 265.24 93.4803 266.65 92.4793 267.266Z" fill="#56E6FF"/>
<path d="M99.8245 236.227C98.6847 236.519 95.8128 235.194 95.631 234.486C95.4493 233.777 96.226 232.965 97.3658 232.673C98.5056 232.381 99.5769 232.718 99.7586 233.427C99.9404 234.136 100.964 235.934 99.8245 236.227Z" fill="#56E6FF"/>
<path d="M114.343 233.058C113.177 233.216 110.479 231.566 110.381 230.84C110.283 230.115 111.149 229.4 112.315 229.242C113.481 229.085 114.506 229.545 114.604 230.27C114.702 230.995 115.509 232.901 114.343 233.058Z" fill="#56E6FF"/>
<path d="M100.763 265.261C99.6229 265.553 96.751 264.228 96.5693 263.519C96.3875 262.811 97.1642 261.999 98.304 261.707C99.4438 261.415 100.515 261.752 100.697 262.461C100.879 263.17 101.903 264.968 100.763 265.261Z" fill="#56E6FF"/>
<path d="M122.188 227.047C124.243 224.716 126.733 227.154 125.654 229.019C126.287 230.179 125.394 231.671 124.144 231.856C124.241 232.895 123.297 233.991 122.27 234.062C122.262 235.44 120.846 236.644 119.491 236.315C117.635 238.41 114.794 235.753 116.473 233.535C115.775 232.271 116.236 230.87 117.4 230.058C117.37 228.573 118.74 227.455 120.201 227.748C120.609 227.108 121.453 226.708 122.188 227.047Z" fill="#56E6FF"/>
<path d="M87.7907 295.036L72.8054 262.867L91.1176 258.172L92.9137 293.723L87.7907 295.036Z" fill="#56E6FF"/>
<path d="M124.851 285.535L107.577 253.952L125.126 249.453L129.974 284.221L124.851 285.535Z" fill="#56E6FF"/>
<path d="M111.764 264.842C107.935 262.941 106.821 255.074 106.821 255.074L121.852 249.362L126.678 262.297L119.272 265.125C119.272 265.125 114.392 266.147 111.764 264.842Z" fill="#56E6FF"/>
<path d="M113.182 259.45C113.784 260.46 113.325 263.59 112.697 263.964C112.068 264.339 111.07 263.823 110.468 262.813C109.865 261.802 109.886 260.679 110.515 260.304C111.144 259.929 112.579 258.439 113.182 259.45Z" fill="#56E6FF"/>
<path d="M115.365 263.02C115.968 264.031 115.509 267.16 114.88 267.535C114.252 267.91 113.254 267.394 112.651 266.383C112.049 265.373 112.07 264.25 112.699 263.875C113.327 263.5 114.763 262.01 115.365 263.02Z" fill="#56E6FF"/>
<path d="M117.213 265.882C117.816 266.892 117.357 270.021 116.728 270.396C116.1 270.771 115.102 270.255 114.499 269.244C113.897 268.234 113.918 267.111 114.547 266.736C115.175 266.361 116.611 264.871 117.213 265.882Z" fill="#56E6FF"/>
<path d="M118.653 268.934C119.256 269.945 118.797 273.074 118.168 273.449C117.54 273.823 116.542 273.308 115.939 272.297C115.337 271.286 115.358 270.163 115.987 269.788C116.615 269.414 118.051 267.923 118.653 268.934Z" fill="#56E6FF"/>
<path d="M119.806 271.377C120.408 272.388 119.949 275.517 119.321 275.892C118.692 276.266 117.694 275.751 117.092 274.74C116.489 273.729 116.51 272.606 117.139 272.231C117.768 271.857 119.203 270.366 119.806 271.377Z" fill="#56E6FF"/>
<path d="M121.846 274.645C122.448 275.656 121.989 278.785 121.361 279.16C120.732 279.534 119.734 279.019 119.132 278.008C118.529 276.997 118.55 275.874 119.179 275.5C119.808 275.125 121.243 273.634 121.846 274.645Z" fill="#56E6FF"/>
<path d="M123.694 277.505C124.297 278.516 123.838 281.645 123.209 282.02C122.581 282.395 121.583 281.879 120.98 280.868C120.378 279.858 120.399 278.735 121.028 278.36C121.656 277.985 123.092 276.495 123.694 277.505Z" fill="#56E6FF"/>
<path d="M125.949 280.173C126.552 281.184 126.093 284.313 125.464 284.688C124.836 285.062 123.838 284.547 123.235 283.536C122.633 282.525 122.654 281.402 123.283 281.028C123.911 280.653 125.347 279.162 125.949 280.173Z" fill="#56E6FF"/>
<path d="M125.377 286.214C122.816 287.195 121.757 287.955 119.599 287.695C111.797 274.478 109.857 269.631 104.572 262.157C102.735 262.339 100.388 262.953 98.6861 263.667C97.132 268.479 100.287 284.863 98.6712 293.06C95.9975 294.111 91.3906 294.114 91.3906 294.114L85.6982 264.208L111.129 258.734C111.129 258.734 120.301 277.292 125.377 286.214Z" fill="#F3F3F3"/>
<path d="M128.031 278.446L116.041 281.52L115.628 280.813L128.079 277.272L128.031 278.446Z" fill="#989898"/>
<path d="M99.2551 285.823L87.6481 288.799L87.1783 288.106L99.1936 284.677L99.2551 285.823Z" fill="#989898"/>
<path d="M83.9665 230.267C78.4381 232.265 61.4646 237.198 59.6172 238.601C60.1541 242.818 62.4981 244.543 63.035 248.76C63.5719 252.978 65.4475 258.692 68.479 264.557C74.8132 276.811 79.1689 285.863 85.8847 295.293C91.3403 294.823 87.7963 295.5 93.8165 293.608C95.1415 286.995 91.7041 273.588 93.3086 268.065C95.7531 266.588 106.961 263.633 108.77 265.844C113.169 271.221 122.883 286.004 123.683 285.951C128.593 285.621 126.956 285.576 131.531 283.939C131.75 265.761 129.729 261.051 126.99 250.369C126.439 248.218 127.764 244.834 127.79 242.613C127.847 237.761 123.915 238.606 124.844 233.843C125.32 231.402 126.693 231.47 126.971 228.999C127.228 226.729 127.62 226.652 125.965 225.075C123.694 222.912 122.488 225.167 119.476 226.042C116.876 226.798 113.371 227.607 113.371 227.607C113.371 227.607 88.2845 231.251 85.3079 235.499C84.2064 237.071 85.2027 231.736 83.9665 230.267Z" fill="#FEFEFE"/>
<path d="M80.9974 244.967L84.9272 235.828C86.1072 234.521 86.9274 234.025 88.6249 233.486L80.9974 244.967Z" fill="#EDEDED" fill-opacity="0.91"/>
<path d="M60.2709 239.271L84.7934 231.404C85.42 231.203 85.7815 230.549 85.6181 229.912C85.4418 229.224 84.7264 228.823 84.0479 229.032L59.4337 236.607C58.7214 236.826 58.3068 237.566 58.4919 238.288C58.6915 239.067 59.5056 239.517 60.2709 239.271Z" fill="#535353"/>
<path d="M131.52 277.551L119.53 280.625L119.007 279.946L131.568 276.377L131.52 277.551Z" fill="#C4C4C4"/>
<path d="M94.0226 287.165L82.4157 290.14L81.9459 289.448L93.9612 286.019L94.0226 287.165Z" fill="#C4C4C4"/>
<path d="M74.1646 238.703L67.0795 240.52C66.7183 240.613 66.5006 240.98 66.5932 241.342L68.0807 247.144C68.1708 247.495 68.5223 247.712 68.8768 247.636L76.0327 246.096C76.4073 246.015 76.6398 245.639 76.5446 245.268L74.9863 239.19C74.8937 238.829 74.5258 238.611 74.1646 238.703Z" fill="#38124A"/>
<path d="M78.3873 237.505L76.4252 238.008C76.064 238.1 75.8463 238.468 75.9389 238.829L76.3583 240.465C76.4482 240.816 76.7988 241.033 77.1529 240.958L79.1357 240.535C79.511 240.456 79.7443 240.079 79.649 239.707L79.2089 237.991C79.1163 237.63 78.7485 237.412 78.3873 237.505Z" fill="#7A24EF"/>
<path d="M79.2818 240.993L77.3198 241.496C76.9586 241.588 76.7408 241.956 76.8334 242.317L77.5223 245.004C77.6113 245.351 77.9558 245.568 78.3072 245.499L80.2974 245.106C80.6777 245.03 80.9167 244.651 80.8204 244.276L80.1035 241.479C80.0109 241.118 79.643 240.9 79.2818 240.993Z" fill="#201D22"/>
<path opacity="0.7" d="M100.258 296.415L88.0569 300.222L82.9645 320.331L115.571 310.157L100.258 296.415Z" fill="url(#paint7_linear_268_20470)"/>
<path opacity="0.7" d="M133.073 287.396L120.872 291.203L115.78 311.312L148.386 301.138L133.073 287.396Z" fill="url(#paint8_linear_268_20470)"/>
<path fill-rule="evenodd" clip-rule="evenodd" d="M225.677 272.733C225.035 272.836 198.929 274.619 196.717 275.75C194.505 276.881 181.363 295.505 181.363 295.505L196.741 289.502L216.923 296.219L225.677 272.733Z" fill="#7C39EB"/>
<path d="M196.646 275.873C198.858 274.743 224.964 272.959 225.606 272.856L221.232 284.611L197.514 282.434L181.292 295.629C181.292 295.629 194.434 277.004 196.646 275.873Z" fill="#5817C4"/>
<path fill-rule="evenodd" clip-rule="evenodd" d="M262.278 293.864C262.509 294.471 274.018 317.972 274.145 320.453C274.271 322.934 264.713 343.627 264.713 343.627L262.2 327.314L246.291 313.195L262.278 293.864Z" fill="#7C39EB"/>
<path d="M274.144 320.453C274.017 317.972 262.508 294.471 262.277 293.864L254.283 303.529L268.028 322.981L264.712 343.627C264.712 343.627 274.27 322.934 274.144 320.453Z" fill="#5817C4"/>
<path d="M223.612 299.104L240.647 308.94L241.636 322.769L211.142 305.163L223.612 299.104Z" fill="#B869F6"/>
<path fill-rule="evenodd" clip-rule="evenodd" d="M247.096 312.693C287.849 285.098 313.085 223.827 305.935 175.979C260.842 193.742 220.342 246.391 216.938 295.552L213.878 300.851L243.919 318.195L247.096 312.693Z" fill="#7C39EB"/>
<path d="M214.047 301.009L216.781 296.274L196.908 289.659L181.53 295.663C181.53 295.663 194.672 277.038 196.884 275.908C198.524 275.069 213.298 273.872 221.091 273.267C232.882 231.401 267.838 191.209 306.102 176.137C306.102 176.137 279.808 217.143 258.957 240.398C238.106 263.654 239.714 315.828 239.714 315.828L214.047 301.009Z" fill="#915DE8" fill-opacity="0.4"/>
<circle cx="273.66" cy="232.536" r="13.7782" transform="rotate(30 273.66 232.536)" fill="#1B0329" stroke="#481B93" stroke-width="3.06183"/>
<path opacity="0.7" d="M234.149 321.24L214.042 309.695L181.001 327.707L234.737 358.562L234.149 321.24Z" fill="url(#paint9_linear_268_20470)"/>
</g>
<defs>
<linearGradient id="paint0_linear_268_20470" x1="67.7345" y1="193.52" x2="96.3163" y2="246.632" gradientUnits="userSpaceOnUse">
<stop stop-color="#EDFCFF" stop-opacity="0.5"/>
<stop offset="1" stop-color="#EDFCFF" stop-opacity="0"/>
</linearGradient>
<linearGradient id="paint1_linear_268_20470" x1="73.5974" y1="195.584" x2="78.1034" y2="213.16" gradientUnits="userSpaceOnUse">
<stop stop-color="#88EBFE"/>
<stop offset="1" stop-color="#8CFAF5"/>
</linearGradient>
<linearGradient id="paint2_linear_268_20470" x1="53.3372" y1="201.182" x2="57.8431" y2="218.757" gradientUnits="userSpaceOnUse">
<stop stop-color="#88EBFE"/>
<stop offset="1" stop-color="#8CFAF5"/>
</linearGradient>
<linearGradient id="paint3_linear_268_20470" x1="70.5102" y1="223.686" x2="71.333" y2="226.899" gradientUnits="userSpaceOnUse">
<stop stop-color="#2D0047"/>
<stop offset="1" stop-color="#34312F"/>
</linearGradient>
<linearGradient id="paint4_linear_268_20470" x1="56.6155" y1="202.296" x2="56.5064" y2="220.32" gradientUnits="userSpaceOnUse">
<stop stop-color="white"/>
<stop offset="1" stop-color="white" stop-opacity="0"/>
</linearGradient>
<linearGradient id="paint5_linear_268_20470" x1="56.6155" y1="202.296" x2="56.5064" y2="220.32" gradientUnits="userSpaceOnUse">
<stop stop-color="white"/>
<stop offset="1" stop-color="white" stop-opacity="0"/>
</linearGradient>
<linearGradient id="paint6_linear_268_20470" x1="57.3233" y1="207.134" x2="61.5746" y2="215.842" gradientUnits="userSpaceOnUse">
<stop stop-color="white"/>
<stop offset="1" stop-color="white" stop-opacity="0"/>
</linearGradient>
<linearGradient id="paint7_linear_268_20470" x1="88.7027" y1="293.651" x2="93.7798" y2="313.176" gradientUnits="userSpaceOnUse">
<stop stop-color="white"/>
<stop offset="1" stop-color="white" stop-opacity="0"/>
</linearGradient>
<linearGradient id="paint8_linear_268_20470" x1="121.518" y1="284.632" x2="126.595" y2="304.158" gradientUnits="userSpaceOnUse">
<stop stop-color="white"/>
<stop offset="1" stop-color="white" stop-opacity="0"/>
</linearGradient>
<linearGradient id="paint9_linear_268_20470" x1="223.583" y1="302.454" x2="203.855" y2="333.281" gradientUnits="userSpaceOnUse">
<stop stop-color="white"/>
<stop offset="1" stop-color="white" stop-opacity="0"/>
</linearGradient>
<clipPath id="clip0_268_20470">
<path d="M0 12.0499C0 5.39495 5.39493 0 12.0499 0H339V339H12.0499C5.39495 339 0 333.605 0 326.95V12.0499Z" fill="white"/>
</clipPath>
</defs>
</svg>
